<svg width="119" height="119" viewBox="0 0 119 119" fill="none" xmlns="http://www.w3.org/2000/svg">
<g opacity="0.71" filter="url(#filter0_bii_359_4644)">
<circle cx="49.1267" cy="49.1267" r="49.1267" transform="matrix(0.228847 -0.973462 -0.973462 -0.228847 95.646 118.133)" fill="white" fill-opacity="0.1"/>
</g>
<g opacity="0.71">
<mask id="path-2-inside-1_359_4644" fill="white">
<path d="M70.6619 11.2442C44.25 5.03517 17.8055 21.4128 11.5964 47.8248C5.38735 74.2367 21.765 100.681 48.177 106.89C74.5889 113.099 101.033 96.7217 107.242 70.3098C113.452 43.8978 97.0739 17.4533 70.6619 11.2442ZM48.3727 106.057C22.4208 99.9566 6.32831 73.9725 12.4292 48.0206C18.5302 22.0686 44.5142 5.97613 70.4662 12.0771C96.4181 18.178 112.511 44.162 106.41 70.114C100.309 96.066 74.3247 112.158 48.3727 106.057Z"/>
</mask>
<path d="M70.6619 11.2442C44.25 5.03517 17.8055 21.4128 11.5964 47.8248C5.38735 74.2367 21.765 100.681 48.177 106.89C74.5889 113.099 101.033 96.7217 107.242 70.3098C113.452 43.8978 97.0739 17.4533 70.6619 11.2442ZM48.3727 106.057C22.4208 99.9566 6.32831 73.9725 12.4292 48.0206C18.5302 22.0686 44.5142 5.97613 70.4662 12.0771C96.4181 18.178 112.511 44.162 106.41 70.114C100.309 96.066 74.3247 112.158 48.3727 106.057Z" fill="white"/>
<path d="M70.6619 11.2442C44.25 5.03517 17.8055 21.4128 11.5964 47.8248C5.38735 74.2367 21.765 100.681 48.177 106.89C74.5889 113.099 101.033 96.7217 107.242 70.3098C113.452 43.8978 97.0739 17.4533 70.6619 11.2442ZM48.3727 106.057C22.4208 99.9566 6.32831 73.9725 12.4292 48.0206C18.5302 22.0686 44.5142 5.97613 70.4662 12.0771C96.4181 18.178 112.511 44.162 106.41 70.114C100.309 96.066 74.3247 112.158 48.3727 106.057Z" stroke="black" stroke-opacity="0.2" stroke-width="2" mask="url(#path-2-inside-1_359_4644)"/>
<path d="M70.6619 11.2442C44.25 5.03517 17.8055 21.4128 11.5964 47.8248C5.38735 74.2367 21.765 100.681 48.177 106.89C74.5889 113.099 101.033 96.7217 107.242 70.3098C113.452 43.8978 97.0739 17.4533 70.6619 11.2442ZM48.3727 106.057C22.4208 99.9566 6.32831 73.9725 12.4292 48.0206C18.5302 22.0686 44.5142 5.97613 70.4662 12.0771C96.4181 18.178 112.511 44.162 106.41 70.114C100.309 96.066 74.3247 112.158 48.3727 106.057Z" stroke="black" stroke-opacity="0.2" stroke-width="2" mask="url(#path-2-inside-1_359_4644)"/>
</g>
<path d="M77 57.768C78.3333 58.5378 78.3333 60.4622 77 61.232L52.25 75.5215C50.9167 76.2913 49.25 75.329 49.25 73.7894L49.25 45.2106C49.25 43.671 50.9167 42.7087 52.25 43.4785L77 57.768Z" fill="white"/>
<defs>
<filter id="filter0_bii_359_4644" x="-3.17285" y="-3.17078" width="124.477" height="124.478" filterUnits="userSpaceOnUse" color-interpolation-filters="sRGB">
<feFlood flood-opacity="0" result="BackgroundImageFix"/>
<feGaussianBlur in="BackgroundImageFix" stdDeviation="6.55023"/>
<feComposite in2="SourceAlpha" operator="in" result="effect1_backgroundBlur_359_4644"/>
<feBlend mode="normal" in="SourceGraphic" in2="effect1_backgroundBlur_359_4644" result="shape"/>
<feColorMatrix in="SourceAlpha" type="matrix" values="0 0 0 0 0 0 0 0 0 0 0 0 0 0 0 0 0 0 127 0" result="hardAlpha"/>
<feOffset dx="-6.55023" dy="6.55023"/>
<feGaussianBlur stdDeviation="3.27512"/>
<feComposite in2="hardAlpha" operator="arithmetic" k2="-1" k3="1"/>
<feColorMatrix type="matrix" values="0 0 0 0 1 0 0 0 0 1 0 0 0 0 1 0 0 0 0.1 0"/>
<feBlend mode="normal" in2="shape" result="effect2_innerShadow_359_4644"/>
<feColorMatrix in="SourceAlpha" type="matrix" values="0 0 0 0 0 0 0 0 0 0 0 0 0 0 0 0 0 0 127 0" result="hardAlpha"/>
<feOffset dx="6.55023" dy="-6.55023"/>
<feGaussianBlur stdDeviation="3.27512"/>
<feComposite in2="hardAlpha" operator="arithmetic" k2="-1" k3="1"/>
<feColorMatrix type="matrix" values="0 0 0 0 0.76 0 0 0 0 0.76 0 0 0 0 0.76 0 0 0 0.1 0"/>
<feBlend mode="normal" in2="effect2_innerShadow_359_4644" result="effect3_innerShadow_359_4644"/>
</filter>
</defs>
</svg>
