<svg width="64" height="64" viewBox="0 0 64 64" fill="none" xmlns="http://www.w3.org/2000/svg">
<path fill-rule="evenodd" clip-rule="evenodd" d="M18 36C26.8366 36 34 28.8366 34 20C34 11.1634 26.8366 4 18 4C9.16344 4 2 11.1634 2 20C2 28.8366 9.16344 36 18 36Z" stroke="#111111" stroke-width="2" stroke-linecap="round" stroke-linejoin="round"/>
<path d="M10.9279 19.9978H17.9999V12.9258" stroke="#2355D6" stroke-width="2" stroke-linecap="round" stroke-linejoin="round"/>
<path d="M38 32H42C44.2091 32 46 33.7909 46 36V50.1013" stroke="#111111" stroke-width="2" stroke-linecap="round" stroke-linejoin="round"/>
<path d="M20 56H18C15.7909 56 14 54.2091 14 52V44" stroke="#111111" stroke-width="2" stroke-linecap="round" stroke-linejoin="round"/>
<path d="M46 36H54C58.4183 36 62 39.5817 62 44V52C62 54.2091 60.2091 56 58 56H51.8987" stroke="#111111" stroke-width="2" stroke-linecap="round" stroke-linejoin="round"/>
<path fill-rule="evenodd" clip-rule="evenodd" d="M47 60C49.7614 60 52 57.7614 52 55C52 52.2386 49.7614 50 47 50C44.2386 50 42 52.2386 42 55C42 57.7614 44.2386 60 47 60Z" stroke="#111111" stroke-width="2" stroke-linecap="round" stroke-linejoin="round"/>
<path fill-rule="evenodd" clip-rule="evenodd" d="M25 60C27.7614 60 30 57.7614 30 55C30 52.2386 27.7614 50 25 50C22.2386 50 20 52.2386 20 55C20 57.7614 22.2386 60 25 60Z" stroke="#111111" stroke-width="1.5" stroke-linecap="round" stroke-linejoin="round"/>
<path d="M42.1013 56H30" stroke="#111111" stroke-width="1.5" stroke-linecap="round" stroke-linejoin="round"/>
<path d="M62 44H54" stroke="#111111" stroke-width="1.5" stroke-linecap="round" stroke-linejoin="round"/>
</svg>
