<svg width="26" height="73" viewBox="0 0 26 73" fill="none" xmlns="http://www.w3.org/2000/svg">
<g clip-path="url(#clip0_1255_15245)">
<path fill-rule="evenodd" clip-rule="evenodd" d="M25.0099 59.4393C25.3028 59.7322 25.3028 60.207 25.0099 60.4999L13.2237 72.2861C13.1871 72.3227 13.1476 72.3547 13.1061 72.3822C12.8149 72.5744 12.4193 72.5424 12.1631 72.2861L0.376897 60.4999C0.0840031 60.207 0.0840031 59.7322 0.376897 59.4393C0.66979 59.1464 1.14466 59.1464 1.43756 59.4393L11.9434 69.9451V1.25C11.9434 0.835788 12.2792 0.5 12.6934 0.5C13.1076 0.5 13.4434 0.835787 13.4434 1.25V69.9451L23.9492 59.4393C24.2421 59.1464 24.717 59.1464 25.0099 59.4393Z" fill="#111111"/>
</g>
<defs>
<clipPath id="clip0_1255_15245">
<rect width="26" height="73" fill="white"/>
</clipPath>
</defs>
</svg>
