<svg width="48" height="84" viewBox="0 0 48 84" fill="none" xmlns="http://www.w3.org/2000/svg">
<path d="M41.5796 17.9997L39.3597 4.44001C39.0906 3.178 38.3947 2.04734 37.3892 1.23859C36.3837 0.429832 35.1302 -0.00756964 33.8398 9.915e-05H14.1602C12.8424 0.00519789 11.5675 0.469175 10.5547 1.31228C9.54186 2.15539 8.85435 3.32497 8.61032 4.62L6.42037 17.9997C4.63371 18.2209 2.99125 19.0928 1.80692 20.4487C0.622593 21.8046 -0.0205228 23.5494 0.000499562 25.3496V58.6489C-0.0205228 60.449 0.622593 62.1938 1.80692 63.5497C2.99125 64.9056 4.63371 65.7775 6.42037 65.9987L8.64032 79.5584C8.90941 80.8204 9.60534 81.9511 10.6108 82.7599C11.6163 83.5686 12.8699 84.006 14.1602 83.9983H33.8398C35.1576 83.9932 36.4325 83.5293 37.4453 82.6862C38.4581 81.8431 39.1456 80.6735 39.3897 79.3784L41.5796 65.9987C43.3663 65.7775 45.0088 64.9056 46.1931 63.5497C47.3774 62.1938 48.0205 60.449 47.9995 58.6489V25.3496C48.0205 23.5494 47.3774 21.8046 46.1931 20.4487C45.0088 19.0928 43.3663 18.2209 41.5796 17.9997ZM14.5802 5.99997H33.6598L35.5798 17.9997H12.5402L14.5802 5.99997ZM41.9996 58.6489C41.9996 59.0069 41.8574 59.3503 41.6042 59.6035C41.3511 59.8566 41.0077 59.9988 40.6497 59.9988H21.0001C20.2044 59.9988 19.4414 60.3149 18.8788 60.8775C18.3162 61.4401 18.0001 62.2032 18.0001 62.9988C18.0001 63.7944 18.3162 64.5575 18.8788 65.1201C19.4414 65.6827 20.2044 65.9987 21.0001 65.9987H35.4598L33.5398 77.9985H14.4602L12.0002 62.5188C11.9628 62.4035 11.9124 62.2928 11.8503 62.1888C11.8224 61.9901 11.7616 61.7975 11.6703 61.6188L11.3403 61.1388L10.9503 60.7488C10.8025 60.622 10.6416 60.5114 10.4703 60.4188L9.96029 60.1788H9.3603L9.00031 59.9988H7.35035C6.99231 59.9988 6.64894 59.8566 6.39577 59.6035C6.1426 59.3503 6.00037 59.0069 6.00037 58.6489V25.3496C6.00037 24.9915 6.1426 24.6482 6.39577 24.395C6.64894 24.1418 6.99231 23.9996 7.35035 23.9996H40.6497C41.0077 23.9996 41.3511 24.1418 41.6042 24.395C41.8574 24.6482 41.9996 24.9915 41.9996 25.3496V58.6489Z" fill="white" fill-opacity="0.5"/>
<path d="M35.9994 38.9998H31.8595L29.6696 34.6499C29.392 34.1066 28.9554 33.6609 28.4179 33.3722C27.8805 33.0835 27.2678 32.9655 26.6616 33.0339C26.0554 33.1024 25.4845 33.354 25.0249 33.7553C24.5654 34.1566 24.2392 34.6884 24.0897 35.2799L23.3397 38.2798L20.7898 31.89C20.5514 31.3431 20.1627 30.8751 19.6688 30.5405C19.1749 30.2059 18.5961 30.0185 17.9998 30C17.3864 30.0169 16.7928 30.2215 16.2993 30.5863C15.8058 30.9511 15.436 31.4585 15.2399 32.04L12.8399 38.9998H11.9999C11.2043 38.9998 10.4413 39.3159 9.87866 39.8785C9.31606 40.4411 9 41.2041 9 41.9997C9 42.7954 9.31606 43.5584 9.87866 44.121C10.4413 44.6836 11.2043 44.9997 11.9999 44.9997H14.9999C15.6288 45.0013 16.2423 44.8052 16.7537 44.4392C17.2651 44.0731 17.6486 43.5556 17.8498 42.9597L18.2698 41.7298L21.2697 49.1096C21.4882 49.6584 21.8638 50.1305 22.3494 50.4667C22.835 50.8029 23.4091 50.9883 23.9997 50.9996H24.2097C24.8431 50.9542 25.4458 50.709 25.931 50.2993C26.4162 49.8896 26.7588 49.3365 26.9096 48.7196L28.0196 44.2497C28.5665 44.732 29.2704 44.9986 29.9996 44.9997H35.9994C36.7951 44.9997 37.5581 44.6836 38.1207 44.121C38.6833 43.5584 38.9994 42.7954 38.9994 41.9997C38.9994 41.2041 38.6833 40.4411 38.1207 39.8785C37.5581 39.3159 36.7951 38.9998 35.9994 38.9998Z" fill="white" fill-opacity="0.5"/>
</svg>
