<svg width="48" height="74" viewBox="0 0 48 74" fill="none" xmlns="http://www.w3.org/2000/svg">
<path d="M40.96 0H7.04C5.17504 0.00696169 3.38847 0.744287 2.06973 2.05125C0.750992 3.35821 0.00702441 5.12883 0 6.97714V50.2143C0 50.9152 0.280952 51.5874 0.781049 52.0831C1.28115 52.5787 1.95942 52.8571 2.66667 52.8571C3.37391 52.8571 4.05219 52.5787 4.55228 52.0831C5.05238 51.5874 5.33333 50.9152 5.33333 50.2143V6.97714C5.33333 6.52855 5.51314 6.09833 5.8332 5.78112C6.15327 5.46392 6.58737 5.28571 7.04 5.28571H40.96C41.4126 5.28571 41.8467 5.46392 42.1668 5.78112C42.4869 6.09833 42.6667 6.52855 42.6667 6.97714V67.0229C42.6667 67.4715 42.4869 67.9017 42.1668 68.2189C41.8467 68.5361 41.4126 68.7143 40.96 68.7143H7.04C6.58737 68.7143 6.15327 68.5361 5.8332 68.2189C5.51314 67.9017 5.33333 67.4715 5.33333 67.0229V60.7857C5.33333 60.0848 5.05238 59.4126 4.55228 58.9169C4.05219 58.4213 3.37391 58.1429 2.66667 58.1429C1.95942 58.1429 1.28115 58.4213 0.781049 58.9169C0.280952 59.4126 0 60.0848 0 60.7857V67.0229C0.00702441 68.8712 0.750992 70.6418 2.06973 71.9488C3.38847 73.2557 5.17504 73.993 7.04 74H40.96C42.825 73.993 44.6115 73.2557 45.9303 71.9488C47.249 70.6418 47.993 68.8712 48 67.0229V6.97714C47.993 5.12883 47.249 3.35821 45.9303 2.05125C44.6115 0.744287 42.825 0.00696169 40.96 0Z" fill="white" fill-opacity="0.5"/>
<path d="M18.6667 18.5065C18.6667 17.8055 18.3857 17.1333 17.8856 16.6377C17.3855 16.142 16.7072 15.8636 16 15.8636C15.2928 15.8636 14.6145 16.142 14.1144 16.6377C13.6143 17.1333 13.3333 17.8055 13.3333 18.5065C13.332 20.7504 14.0511 22.9366 15.3866 24.7485C16.7222 26.5605 18.6048 27.9043 20.7622 28.5855C22.9195 29.2666 25.2395 29.2497 27.3865 28.5373C29.5335 27.8249 31.3961 26.4539 32.7047 24.6227C34.0133 22.7915 34.7 20.5951 34.6654 18.3514C34.6308 16.1077 33.8768 13.9332 32.5124 12.1424C31.148 10.3517 29.2441 9.03766 27.0761 8.39054C24.9082 7.74342 22.5887 7.79678 20.4533 8.54289C19.8452 8.81516 19.3622 9.30347 19.0997 9.91143C18.8371 10.5194 18.8141 11.2028 19.0351 11.8268C19.2561 12.4508 19.7052 12.9699 20.2936 13.2818C20.882 13.5937 21.567 13.6757 22.2133 13.5115C22.79 13.3231 23.3928 13.225 24 13.2207C25.0548 13.2207 26.086 13.5307 26.963 14.1115C27.8401 14.6923 28.5237 15.5179 28.9274 16.4837C29.331 17.4495 29.4366 18.5123 29.2309 19.5376C29.0251 20.563 28.5171 21.5048 27.7712 22.244C27.0254 22.9832 26.075 23.4867 25.0405 23.6906C24.0059 23.8946 22.9336 23.7899 21.959 23.3898C20.9845 22.9898 20.1515 22.3123 19.5655 21.443C18.9795 20.5738 18.6667 19.5519 18.6667 18.5065ZM8 50.2207C7.99872 53.8647 9.26385 57.398 11.5825 60.2261C13.9012 63.0542 17.132 65.0045 20.7313 65.749C24.3306 66.4934 28.0788 65.9866 31.3453 64.3137C34.6117 62.6408 37.1972 59.9039 38.6667 56.5636C38.8289 56.2429 38.9236 55.8928 38.945 55.5346C38.9663 55.1764 38.9138 54.8177 38.7907 54.4803C38.6676 54.1429 38.4765 53.8338 38.229 53.572C37.9815 53.3102 37.6828 53.101 37.3511 52.9573C37.0194 52.8136 36.6616 52.7383 36.2996 52.7361C35.9376 52.7338 35.5789 52.8047 35.2454 52.9443C34.9119 53.0839 34.6106 53.2893 34.3598 53.548C34.109 53.8068 33.914 54.1134 33.7867 54.4493C32.8064 56.6752 31.0828 58.4988 28.9055 59.6133C26.7282 60.7278 24.2301 61.0654 21.8312 60.5692C19.4323 60.073 17.279 58.7733 15.7333 56.8887C14.1876 55.004 13.3438 52.6494 13.3438 50.2207C13.3438 47.7921 14.1876 45.4374 15.7333 43.5528C17.279 41.6682 19.4323 40.3685 21.8312 39.8723C24.2301 39.3761 26.7282 39.7136 28.9055 40.8282C31.0828 41.9427 32.8064 43.7662 33.7867 45.9922C33.914 46.328 34.109 46.6347 34.3598 46.8934C34.6106 47.1522 34.9119 47.3576 35.2454 47.4972C35.5789 47.6368 35.9376 47.7076 36.2996 47.7054C36.6616 47.7032 37.0194 47.6279 37.3511 47.4842C37.6828 47.3405 37.9815 47.1313 38.229 46.8695C38.4765 46.6076 38.6676 46.2986 38.7907 45.9612C38.9138 45.6238 38.9663 45.265 38.945 44.9069C38.9236 44.5487 38.8289 44.1986 38.6667 43.8779C37.1972 40.5375 34.6117 37.8007 31.3453 36.1278C28.0788 34.4549 24.3306 33.9481 20.7313 34.6925C17.132 35.437 13.9012 37.3873 11.5825 40.2154C9.26385 43.0435 7.99872 46.5767 8 50.2207Z" fill="white" fill-opacity="0.5"/>
<path d="M26.6654 18.4983C26.6654 17.7974 26.3844 17.1252 25.8843 16.6295C25.3842 16.1339 24.7059 15.8555 23.9987 15.8555C23.4713 15.8555 22.9557 16.0105 22.5172 16.3009C22.0786 16.5913 21.7369 17.004 21.535 17.4869C21.3332 17.9699 21.2804 18.5013 21.3833 19.0139C21.4862 19.5266 21.7401 19.9975 22.1131 20.3671C22.486 20.7367 22.9612 20.9884 23.4785 21.0904C23.9957 21.1924 24.5319 21.14 25.0192 20.94C25.5065 20.74 25.9229 20.4012 26.216 19.9666C26.509 19.532 26.6654 19.021 26.6654 18.4983ZM23.9987 47.5698C23.4713 47.5698 22.9557 47.7248 22.5172 48.0152C22.0786 48.3056 21.7369 48.7183 21.535 49.2012C21.3332 49.6842 21.2804 50.2155 21.3833 50.7282C21.4862 51.2409 21.7401 51.7118 22.1131 52.0814C22.486 52.451 22.9612 52.7027 23.4785 52.8047C23.9957 52.9067 24.5319 52.8543 25.0192 52.6543C25.5065 52.4543 25.9229 52.1155 26.216 51.6809C26.509 51.2463 26.6654 50.7353 26.6654 50.2126C26.6654 49.5117 26.3844 48.8395 25.8843 48.3438C25.3842 47.8482 24.7059 47.5698 23.9987 47.5698Z" fill="white" fill-opacity="0.5"/>
</svg>
