<svg width="85" height="26" viewBox="0 0 85 26" fill="none" xmlns="http://www.w3.org/2000/svg">
<path d="M24.74 10.8865C24.86 11.6545 24.92 12.3265 24.92 12.9025C24.92 16.4305 23.768 19.4305 21.464 21.9025C19.16 24.3505 16.28 25.5745 12.824 25.5745C9.31998 25.5745 6.33198 24.3385 3.85998 21.8665C1.38798 19.3945 0.151978 16.4065 0.151978 12.9025C0.151978 9.39847 1.38798 6.41047 3.85998 3.93847C6.33198 1.46647 9.31998 0.230469 12.824 0.230469C15.248 0.230469 17.408 0.854469 19.304 2.10247C21.2 3.35047 22.688 5.03047 23.768 7.14247L19.124 8.43847C18.476 7.33447 17.6 6.45847 16.496 5.81047C15.416 5.16247 14.192 4.83847 12.824 4.83847C10.592 4.83847 8.68398 5.63047 7.09998 7.21447C5.53998 8.77447 4.75998 10.6705 4.75998 12.9025C4.75998 15.1345 5.53998 17.0425 7.09998 18.6265C8.68398 20.1865 10.592 20.9665 12.824 20.9665C14.552 20.9665 16.052 20.4625 17.324 19.4545C18.596 18.4465 19.472 17.1265 19.952 15.4945H11.096V10.8865H24.74Z" fill="#111111"/>
<path d="M34.4943 25.5745C32.4063 25.5745 30.7623 24.8905 29.5623 23.5225C28.3863 22.1545 27.7983 20.1505 27.7983 17.5105V7.14247H32.4063V16.9345C32.4063 18.3265 32.6823 19.3465 33.2343 19.9945C33.8103 20.6425 34.6863 20.9665 35.8623 20.9665C37.0143 20.9665 37.9743 20.5825 38.7423 19.8145C39.5103 19.0465 39.8943 17.8945 39.8943 16.3585V7.14247H44.5023V24.9985H39.8943V23.2705C38.5983 24.8065 36.7983 25.5745 34.4943 25.5745Z" fill="#111111"/>
<path d="M62.378 24.9985H47.402L55.178 11.7505H47.978V7.14247H62.954L55.178 20.3905H62.378V24.9985Z" fill="#111111"/>
<path d="M79.6614 7.14247H84.2694V24.9985H79.6614V23.0905C78.2214 24.7465 76.3974 25.5745 74.1894 25.5745C71.7174 25.5745 69.6054 24.6505 67.8534 22.8025C66.1254 20.9305 65.2614 18.6865 65.2614 16.0705C65.2614 13.4545 66.1254 11.2225 67.8534 9.37447C69.6054 7.50247 71.7174 6.56647 74.1894 6.56647C76.3974 6.56647 78.2214 7.39447 79.6614 9.05047V7.14247ZM71.3093 19.5265C72.2693 20.4865 73.4213 20.9665 74.7654 20.9665C76.1094 20.9665 77.2614 20.4865 78.2214 19.5265C79.1814 18.5665 79.6614 17.4145 79.6614 16.0705C79.6614 14.7265 79.1814 13.5745 78.2214 12.6145C77.2614 11.6545 76.1094 11.1745 74.7654 11.1745C73.4213 11.1745 72.2693 11.6545 71.3093 12.6145C70.3493 13.5745 69.8694 14.7265 69.8694 16.0705C69.8694 17.4145 70.3493 18.5665 71.3093 19.5265Z" fill="#111111"/>
</svg>
