<svg width="34" height="48" viewBox="0 0 34 48" fill="none" xmlns="http://www.w3.org/2000/svg">
<path d="M17 47.4917C16.448 47.4917 16 47.0437 16 46.4917V33.4577C6.844 32.9417 0 25.3037 0 15.4917L0.00199986 7.43572C0.0219999 6.90372 0.246 6.40972 0.638 6.04572C1.01 5.70172 1.498 5.50972 2.014 5.50972C2.018 5.50972 2.062 5.50972 2.066 5.50972C4.062 5.58572 6.054 5.87172 8 6.36372L8.002 2.43772C8.032 1.87572 8.268 1.38372 8.668 1.02772C9.034 0.699719 9.51 0.519719 10.006 0.519719C10.04 0.519719 10.074 0.519719 10.108 0.521719C12.474 0.649719 14.786 1.19972 16.982 2.15772C19.178 1.13972 21.512 0.585719 23.924 0.513719L23.994 0.511719C24.498 0.511719 24.978 0.697719 25.348 1.03572C25.742 1.39772 25.972 1.88972 25.996 2.42372C25.996 2.42372 25.998 2.50172 25.998 2.51372V6.34972C27.958 5.82972 29.956 5.54572 31.946 5.50572C32.528 5.50572 33.03 5.70772 33.414 6.09172C33.792 6.46972 34 6.97172 33.998 7.50772V15.4917C33.998 25.3037 27.154 32.9417 17.998 33.4577V46.4917C18 47.0437 17.552 47.4917 17 47.4917ZM2 15.4917C2 24.6137 8.448 31.4917 17 31.4917C20.734 31.4917 24.244 30.1457 26.918 27.6977C24.038 16.2377 13.832 7.95172 2 7.50972V15.4917ZM18.954 11.8117C23.494 15.4537 26.854 20.4337 28.518 25.9777C30.77 23.1317 32 19.4457 32 15.4917V7.50572C27.35 7.60172 22.742 9.12572 18.954 11.8117ZM10 6.94572C12.588 7.80372 15.032 9.01772 17.272 10.5617C18.674 9.51172 20.2 8.60372 21.818 7.85572C18.698 4.69372 14.43 2.75772 10 2.51772V6.94572ZM19.322 3.36772C20.992 4.37172 22.494 5.60372 23.8 7.04172C23.866 7.01772 23.934 6.99372 24 6.96972V2.51372H23.984V2.01372L23.982 2.51372C22.39 2.56172 20.824 2.84772 19.322 3.36772Z" fill="#46655E"/>
</svg>
