<svg width="46" height="48" viewBox="0 0 46 48" fill="none" xmlns="http://www.w3.org/2000/svg">
<path d="M28.6175 26C28.0937 26 27.6652 25.552 27.6652 25.002C27.6652 24.45 28.0899 24.002 28.6156 24C29.5052 23.998 30.3718 23.814 31.189 23.452C32.8309 22.726 34.1052 21.374 34.7775 19.642C35.4499 17.91 35.4404 16.008 34.749 14.284C33.7071 11.682 31.2918 10 28.5947 10C27.709 10 26.8423 10.184 26.0194 10.548C25.9013 10.6 25.7775 10.626 25.6499 10.626C25.2652 10.626 24.9204 10.386 24.7718 10.014C24.568 9.506 24.7966 8.918 25.2804 8.704C26.3375 8.236 27.4537 8 28.5947 8C32.0594 8 35.1642 10.162 36.5071 13.51C37.3947 15.726 37.408 18.172 36.5432 20.398C35.6785 22.624 34.0404 24.364 31.9299 25.296C30.8747 25.762 29.7604 25.998 28.6175 26C28.6194 26 28.6194 26 28.6175 26Z" fill="#47655E"/>
<path d="M29.5715 5C29.0458 5 28.6191 4.552 28.6191 4V1C28.6191 0.448 29.0458 0 29.5715 0C30.0972 0 30.5239 0.448 30.5239 1V4C30.5239 4.552 30.0972 5 29.5715 5Z" fill="#47655E"/>
<path d="M37.3728 9.80647C37.1175 9.80647 36.8794 9.70247 36.6985 9.51447C36.3271 9.12447 36.3271 8.49047 36.6985 8.10047L39.3937 5.27247C39.5747 5.08447 39.8128 4.98047 40.068 4.98047C40.3233 4.98047 40.5613 5.08447 40.7423 5.27247C41.1137 5.66247 41.1137 6.29647 40.7423 6.68647L38.0471 9.51447C37.8661 9.70247 37.6261 9.80647 37.3728 9.80647Z" fill="#47655E"/>
<path d="M40.9993 18C40.4735 18 40.0469 17.552 40.0469 17C40.0469 16.448 40.4735 16 40.9993 16H44.8088C45.3345 16 45.7612 16.448 45.7612 17C45.7612 17.552 45.3345 18 44.8088 18H40.9993Z" fill="#47655E"/>
<path d="M40.0675 30.0018C39.8123 30.0018 39.5742 29.8978 39.3933 29.7098L36.698 26.8818C36.519 26.6938 36.4199 26.4438 36.4199 26.1758C36.4199 25.9078 36.519 25.6558 36.698 25.4678C36.8771 25.2798 37.1171 25.1758 37.3723 25.1758C37.6275 25.1758 37.8656 25.2798 38.0466 25.4678L40.7418 28.2958C40.9209 28.4838 41.0199 28.7338 41.0199 29.0018C41.0199 29.2698 40.9209 29.5218 40.7418 29.7098C40.5628 29.8978 40.3228 30.0018 40.0675 30.0018Z" fill="#47655E"/>
<path d="M29.5715 34C29.0458 34 28.6191 33.552 28.6191 33V30C28.6191 29.448 29.0458 29 29.5715 29C30.0972 29 30.5239 29.448 30.5239 30V33C30.5239 33.552 30.0972 34 29.5715 34Z" fill="#47655E"/>
<path d="M5.76023 38C4.71071 38 3.85547 37.104 3.85547 36V28C3.85547 26.896 4.71071 26 5.76023 26H19.0936C20.1431 26 20.9983 26.896 20.9983 28V36C20.9983 37.104 20.1431 38 19.0936 38H5.76023ZM5.76023 36H19.0936V28H5.76023V36Z" fill="#47655E"/>
<path d="M4.80878 48C2.18211 48 0.046875 45.756 0.046875 43V19C0.046875 16.242 2.18211 14 4.80878 14H7.97259L9.39926 10.256C9.69069 9.494 10.384 9 11.1669 9H11.4754V4H6.6583C6.37259 4 6.10592 4.134 5.92497 4.364L2.56687 8.636C2.38402 8.868 2.11735 9 1.83164 9C1.61068 9 1.39545 8.918 1.22592 8.77C0.820208 8.42 0.763066 7.79 1.0964 7.364L4.45449 3.092C4.99926 2.398 5.80116 2 6.6564 2H19.0945C19.6202 2 20.0469 2.448 20.0469 3C20.0469 3.552 19.6202 4 19.0945 4H13.3802V9H13.6869C14.4716 9 15.165 9.494 15.4564 10.256L16.8831 14H20.0469C22.6735 14 24.8088 16.242 24.8088 19V43C24.8088 45.756 22.6735 48 20.0469 48H4.80878ZM4.80878 16C3.23354 16 1.95164 17.346 1.95164 19V43C1.95164 44.654 3.23354 46 4.80878 46H20.0469C21.6221 46 22.904 44.654 22.904 43V19C22.904 17.346 21.6221 16 20.0469 16H4.80878ZM14.8316 14L13.6888 11H11.165L10.024 14H14.8316Z" fill="#47655E"/>
</svg>
