<svg width="64" height="64" viewBox="0 0 64 64" fill="none" xmlns="http://www.w3.org/2000/svg">
<path d="M59.7333 8.52448H38L39 9.64717C38.5 7.5 36.7115 10.725 35.5 9.5C34.2839 8.29634 33.7021 10.0003 32 10.0003C28.4708 10.0003 26 7 25.5 9.99978L27 8.5L4.26667 8.52448C1.91406 8.52448 0 10.4385 0 12.7911V51.2C0 53.5526 1.91406 55.4667 4.26667 55.4667H59.7333C62.0859 55.4667 64 53.5526 64 51.2V12.7911C64 10.4385 62.0859 8.52448 59.7333 8.52448ZM26 9.49978C26 7.14665 30.1474 10.6578 32.5 10.6578C33.637 10.6578 34.6937 8.84978 35.5 9.64717C36.3052 10.4618 38 8.52448 41 8.52448H36.2667L25.5 8.5L26 9.49978ZM4.26667 10.6578H59.7333C60.9099 10.6578 61.8667 11.6146 61.8667 12.7911V17.0755H2.13333V12.7911C2.13333 11.6146 3.0901 10.6578 4.26667 10.6578ZM59.7333 53.3333H4.26667C3.0901 53.3333 2.13333 52.3766 2.13333 51.2V19.2088H61.8667V51.2C61.8667 52.3766 60.9099 53.3333 59.7333 53.3333Z" fill="#111111"/>
<path d="M22.8259 34.7257C23.8768 33.5852 24.5247 32.0679 24.5247 30.3984C24.5247 26.8703 21.6539 24 18.1247 24C14.5955 24 11.7247 26.8703 11.7247 30.3984C11.7247 32.0604 12.3668 33.5713 13.4093 34.71C9.83044 36.482 7.45752 40.1783 7.45752 44.2714V46.4042C7.45752 46.9932 7.93512 47.4708 8.52419 47.4708H27.7242C28.3133 47.4708 28.7909 46.9932 28.7909 46.4042V44.2714C28.7909 41.4281 27.6799 38.7511 25.6622 36.7344C24.8368 35.9093 23.8696 35.2428 22.8259 34.7257ZM18.1247 26.1333C20.4773 26.1333 22.3914 28.0469 22.3914 30.3984C22.3914 32.7505 20.4773 34.6641 18.1247 34.6641C15.7721 34.6641 13.858 32.7505 13.858 30.3984C13.858 28.0469 15.7721 26.1333 18.1247 26.1333ZM26.6575 45.3375H9.59085V44.2714C9.59085 40.603 11.9815 37.3486 15.434 36.1964C16.2533 36.5781 17.1628 36.7974 18.1247 36.7974C19.0891 36.7974 20.0008 36.5769 20.8216 36.1934C22.0722 36.6172 23.2213 37.3111 24.1539 38.2427C25.7685 39.8568 26.6575 41.9979 26.6575 44.2714V45.3375Z" fill="#111111"/>
<path d="M55.4621 28H33.0642C32.4752 28 31.9976 28.4776 31.9976 29.0667C31.9976 29.6557 32.4752 30.1333 33.0642 30.1333H55.4621C56.0512 30.1333 56.5288 29.6557 56.5288 29.0667C56.5288 28.4776 56.0512 28 55.4621 28Z" fill="#2355D6"/>
<path d="M55.4621 34.4062H33.0642C32.4752 34.4062 31.9976 34.8838 31.9976 35.4729C31.9976 36.062 32.4752 36.5396 33.0642 36.5396H55.4621C56.0512 36.5396 56.5288 36.062 56.5288 35.4729C56.5288 34.8838 56.0512 34.4062 55.4621 34.4062Z" fill="#2355D6"/>
<path d="M44.7887 40.8125H33.0642C32.4752 40.8125 31.9976 41.2901 31.9976 41.8792C31.9976 42.4682 32.4752 42.9458 33.0642 42.9458H44.7887C45.3778 42.9458 45.8554 42.4682 45.8554 41.8792C45.8554 41.2901 45.3778 40.8125 44.7887 40.8125Z" fill="#2355D6"/>
</svg>
