<svg width="64" height="64" viewBox="0 0 64 64" fill="none" xmlns="http://www.w3.org/2000/svg">
<path d="M60.8 6.39844H11.7333C9.96875 6.39844 8.53333 7.83385 8.53333 9.59844V19.1984H3.2C1.43541 19.1984 0 20.6339 0 22.3984V54.3984C0 56.163 1.43541 57.5984 3.2 57.5984H52.2667C54.0313 57.5984 55.4667 56.163 55.4667 54.3984V44.7984H60.8C62.5646 44.7984 64 43.363 64 41.5984V9.59844C64 7.83385 62.5646 6.39844 60.8 6.39844ZM3.2 21.3318H52.2667C52.8547 21.3318 53.3333 21.8104 53.3333 22.3984V27.7318H2.13333V22.3984C2.13333 21.8104 2.61198 21.3318 3.2 21.3318ZM2.13333 29.8651H53.3333V34.1318H2.13333V29.8651ZM53.3333 54.3984C53.3333 54.9865 52.8547 55.4651 52.2667 55.4651H3.2C2.61198 55.4651 2.13333 54.9865 2.13333 54.3984V36.2651H53.3333V54.3984ZM61.8667 41.5984C61.8667 42.1865 61.388 42.6651 60.8 42.6651H55.4667V22.3984C55.4667 20.6339 54.0313 19.1984 52.2667 19.1984H10.6667V9.59844C10.6667 9.01042 11.1453 8.53177 11.7333 8.53177H60.8C61.388 8.53177 61.8667 9.01042 61.8667 9.59844V41.5984Z" fill="#111111"/>
<rect y="34" width="53.335" height="2.26" fill="#2355D6"/>
<rect width="53.335" height="2.26" transform="matrix(1 0 0 -1 0 30)" fill="#2355D6"/>
<rect y="24" width="2.13" height="27" fill="#111111"/>
</svg>
