<svg width="64" height="64" viewBox="0 0 64 64" fill="none" xmlns="http://www.w3.org/2000/svg">
<g clip-path="url(#clip0_582_2871)">
<path d="M55.9188 20.626C55.3282 19.7318 54.3334 19.1979 53.2584 19.1979H45.6233L46.4147 12.0839C46.5147 11.1828 46.223 10.2771 45.6167 9.59896C45.0094 8.92032 44.1397 8.53125 43.2324 8.53125H8.06361C6.42508 8.53125 5.05736 9.75678 4.88132 11.3771L4.61466 13.7453C4.54903 14.3307 4.96987 14.8589 5.55528 14.9245C6.14591 14.9932 6.66883 14.5687 6.7355 13.9838L7.00216 11.6115C7.06049 11.0714 7.51675 10.6646 8.06361 10.6646H43.2324C43.5386 10.6646 43.8209 10.7917 44.0272 11.0219C44.2324 11.2516 44.3282 11.5453 44.2938 11.8484L40.4969 45.9839C40.4386 46.5151 39.9772 46.9313 39.4459 46.9313H39.4407H20.1704C19.6602 43.9093 17.0318 41.5979 13.8667 41.5979C10.7017 41.5979 8.07331 43.9093 7.56309 46.9313H4.26674C3.96049 46.9313 3.6782 46.8047 3.47195 46.5745C3.2657 46.3443 3.1709 46.0505 3.20423 45.7474L4.83652 31.049C4.90111 30.4635 4.47923 29.9359 3.89381 29.8714C3.32298 29.8068 2.78027 30.2281 2.71569 30.8135L1.08341 45.513C0.984447 46.4146 1.27612 47.3203 1.88341 47.9979C2.4907 48.676 3.35944 49.0646 4.26674 49.0646H7.56309C8.07331 52.0866 10.7017 54.3979 13.8667 54.3979C17.0318 54.3979 19.6602 52.0866 20.1704 49.0646H39.4407H39.4459H44.8964C45.4066 52.0866 48.035 54.3979 51.2001 54.3979C54.3651 54.3979 56.9935 52.0866 57.5037 49.0646H60.8001C62.5647 49.0646 64.0001 47.6292 64.0001 45.8646V33.0646C64.0001 32.8542 63.9376 32.6479 63.8209 32.4729L55.9188 20.626ZM13.8667 52.2646C11.5136 52.2646 9.60007 50.3505 9.60007 47.9979C9.60007 45.6453 11.5136 43.7313 13.8667 43.7313C16.2199 43.7313 18.1334 45.6453 18.1334 47.9979C18.1334 50.3505 16.2199 52.2646 13.8667 52.2646ZM54.1417 21.8057L61.8667 33.3875V35.0349L49.0667 33.2062V21.3313H53.2584C53.6147 21.3313 53.9449 21.5073 54.1417 21.8057ZM51.2001 52.2646C48.847 52.2646 46.9334 50.3505 46.9334 47.9979C46.9334 45.6453 48.847 43.7313 51.2001 43.7313C53.5532 43.7313 55.4667 45.6453 55.4667 47.9979C55.4667 50.3505 53.5532 52.2646 51.2001 52.2646ZM60.8001 46.9313H57.5037C56.9935 43.9093 54.3651 41.5979 51.2001 41.5979C48.035 41.5979 45.4066 43.9093 44.8964 46.9313H42.4462C42.5264 46.7032 42.5905 46.4672 42.6178 46.2172L45.386 21.3313H46.9334V34.1313C46.9334 34.662 47.324 35.112 47.849 35.187L61.8667 37.1895V45.8646C61.8667 46.4526 61.3886 46.9313 60.8001 46.9313Z" fill="#111111"/>
<path d="M1.06667 20.2661H19.2C19.7896 20.2661 20.2667 19.7885 20.2667 19.1995C20.2667 18.6104 19.7896 18.1328 19.2 18.1328H1.06667C0.477088 18.1328 0 18.6104 0 19.1995C0 19.7885 0.477088 20.2661 1.06667 20.2661Z" fill="#2355D6"/>
<path d="M1.06667 25.6021H9.6C10.1896 25.6021 10.6667 25.1245 10.6667 24.5354C10.6667 23.9463 10.1896 23.4688 9.6 23.4688H1.06667C0.477088 23.4688 0 23.9463 0 24.5354C0 25.1245 0.477088 25.6021 1.06667 25.6021Z" fill="#2355D6"/>
<path d="M17.0667 29.8674C17.0667 29.2784 16.5896 28.8008 16 28.8008H1.06667C0.477088 28.8008 0 29.2784 0 29.8674C0 30.4565 0.477088 30.9341 1.06667 30.9341H16C16.5896 30.9341 17.0667 30.4565 17.0667 29.8674Z" fill="#2355D6"/>
</g>
<defs>
<clipPath id="clip0_582_2871">
<rect width="64" height="64" fill="white"/>
</clipPath>
</defs>
</svg>
