<svg width="48" height="48" viewBox="0 0 48 48" fill="none" xmlns="http://www.w3.org/2000/svg">
<g clip-path="url(#clip0_2456_17065)">
<path d="M9.02649 47.9881C8.19849 47.9881 7.42249 47.6681 6.84049 47.0881L0.902494 41.1501C-0.289506 39.9561 -0.299506 38.0041 0.880494 36.7981C1.62449 36.0401 2.40249 35.2861 3.22649 34.4901C5.68449 32.1121 8.42249 29.4641 10.7545 26.1941C9.61649 25.6521 8.56849 24.9821 7.63249 24.1921C5.61249 22.1761 4.51649 19.5481 4.51649 16.7641C4.51649 13.9821 5.60049 11.3661 7.56849 9.39809C9.05449 7.69809 11.2085 6.58409 13.5005 6.33209C13.9525 4.98809 14.7125 3.75209 15.7125 2.74609C17.4865 0.972094 19.8405 -0.00390625 22.3425 -0.00390625C24.8505 -0.00190625 27.2025 0.974094 28.9705 2.74409C29.7965 3.58009 30.4665 4.58609 30.9225 5.67009C31.2725 5.63409 31.6245 5.61609 31.9745 5.61609C32.6045 5.61609 33.2425 5.67409 33.8665 5.79009C39.2285 6.78209 42.8745 11.6921 42.3205 17.0681C43.4045 17.5241 44.4085 18.1921 45.2425 19.0161C48.9005 22.6781 48.9025 28.6261 45.2465 32.2761C44.2345 33.2781 42.9985 34.0381 41.6545 34.4881C41.4025 36.7741 40.2845 38.9281 38.5565 40.4461C36.6165 42.3841 34.0025 43.4641 31.2205 43.4641C28.4345 43.4641 25.8165 42.3821 23.8525 40.4161C23.0245 39.4381 22.3405 38.3761 21.7945 37.2341C18.5345 39.5601 15.8945 42.2881 13.5525 44.7101C12.7165 45.5721 11.9565 46.3581 11.1925 47.1081C10.6145 47.6761 9.84449 47.9881 9.02649 47.9881ZM13.0065 26.4301C10.3845 30.3501 7.20649 33.4241 4.65249 35.8961C3.80649 36.7161 3.03649 37.4601 2.31049 38.1981C1.89449 38.6241 1.89849 39.3141 2.31849 39.7381L8.25449 45.6741C8.45849 45.8781 8.73449 45.9901 9.02649 45.9901C9.31649 45.9901 9.58849 45.8801 9.79249 45.6801C10.5465 44.9401 11.3085 44.1541 12.1145 43.3201C14.5805 40.7741 17.6445 37.6081 21.5485 34.9941C21.6305 34.9181 21.7205 34.8581 21.8165 34.8141C24.6205 32.9721 27.5065 31.6281 30.6365 30.7021C31.1565 29.9321 30.8105 28.4041 29.7385 26.5481L23.4205 30.7121C23.2565 30.8201 23.0665 30.8781 22.8705 30.8781C22.5325 30.8781 22.2205 30.7101 22.0365 30.4301C21.7325 29.9681 21.8605 29.3461 22.3205 29.0441L28.6385 24.8781C27.9085 23.8861 27.0485 22.8921 26.0725 21.9181C25.0945 20.9401 24.1005 20.0801 23.1125 19.3521L18.9465 25.6721C18.7605 25.9541 18.4485 26.1221 18.1105 26.1221C17.9145 26.1221 17.7245 26.0641 17.5605 25.9581C17.1005 25.6541 16.9725 25.0341 17.2745 24.5721L21.4385 18.2541C20.1545 17.5141 19.0085 17.1101 18.1725 17.1101C17.8165 17.1101 17.5245 17.1821 17.3045 17.3261C16.3565 20.4981 15.0025 23.3981 13.1445 26.2181C13.1105 26.2941 13.0605 26.3661 13.0065 26.4301ZM23.4745 36.1041C23.9605 37.1881 24.5825 38.1821 25.3265 39.0661C26.8685 40.6061 28.9685 41.4701 31.2105 41.4701C33.4605 41.4701 35.5765 40.5981 37.1645 39.0161C37.1725 39.0061 37.1985 38.9821 37.2225 38.9601C38.7445 37.6301 39.6505 35.7121 39.7085 33.6961C39.7225 33.2501 40.0345 32.8621 40.4685 32.7541C41.7425 32.4381 42.9065 31.7841 43.8385 30.8601C46.7105 27.9901 46.7125 23.3141 43.8405 20.4401C43.0245 19.6361 42.0125 19.0261 40.9185 18.6821C40.4365 18.5301 40.1425 18.0421 40.2345 17.5461C41.0765 12.9921 38.0585 8.60009 33.5045 7.75809C32.9985 7.66409 32.4845 7.61809 31.9745 7.61809C31.4645 7.61809 30.9505 7.66609 30.4445 7.75809C30.3825 7.76809 30.3245 7.77409 30.2645 7.77409C29.8245 7.77409 29.4385 7.49209 29.3085 7.07409C28.9645 5.98009 28.3565 4.97009 27.5505 4.15409C26.1665 2.76409 24.3165 1.99809 22.3485 1.99609C20.3785 1.99609 18.5285 2.76209 17.1365 4.15209C16.2105 5.08409 15.5545 6.24809 15.2365 7.52209C15.1285 7.95609 14.7405 8.26609 14.2945 8.28009C12.2765 8.33809 10.3605 9.24409 9.03249 10.7641C5.71449 14.0841 5.70249 19.4361 8.98249 22.7181C9.82249 23.4221 10.8045 24.0321 11.8865 24.5161C13.3325 22.2101 14.4325 19.8141 15.2405 17.2201C14.5425 17.1121 13.8765 16.9001 13.2505 16.5881C12.7585 16.3421 12.5585 15.7381 12.8045 15.2461C12.9745 14.9061 13.3185 14.6941 13.6985 14.6941C13.8525 14.6941 14.0085 14.7301 14.1465 14.8001C14.8225 15.1401 15.5445 15.3101 16.2905 15.3101C17.9345 15.3101 19.4405 14.4701 20.3185 13.0621C20.5025 12.7681 20.8205 12.5921 21.1665 12.5921C21.3525 12.5921 21.5345 12.6441 21.6945 12.7421C22.1625 13.0341 22.3065 13.6521 22.0145 14.1201C21.6505 14.7041 21.2025 15.2221 20.6805 15.6681C21.5005 15.9921 22.3765 16.4561 23.2925 17.0521C23.3245 17.0641 23.3585 17.0821 23.3945 17.1061C23.4185 17.1221 23.4505 17.1481 23.4785 17.1761C24.8265 18.0761 26.2125 19.2241 27.4885 20.5001C28.7625 21.7741 29.9085 23.1561 30.8085 24.5041C30.8305 24.5261 30.8565 24.5561 30.8825 24.5941C30.8985 24.6181 30.9165 24.6541 30.9305 24.6881C31.5285 25.6041 31.9905 26.4781 32.3165 27.2981C32.7605 26.7821 33.2805 26.3381 33.8685 25.9721C34.0285 25.8721 34.2105 25.8201 34.3965 25.8201C34.7445 25.8201 35.0625 25.9961 35.2465 26.2901C35.3885 26.5181 35.4325 26.7861 35.3725 27.0441C35.3125 27.3041 35.1545 27.5261 34.9265 27.6681C32.8285 28.9761 32.0825 31.6281 33.1905 33.8381C33.3105 34.0761 33.3305 34.3481 33.2445 34.6021C33.1605 34.8561 32.9825 35.0601 32.7445 35.1801C32.6065 35.2481 32.4525 35.2861 32.2965 35.2861C31.9145 35.2861 31.5725 35.0741 31.4025 34.7341C31.0885 34.1061 30.8745 33.4401 30.7665 32.7481C28.1725 33.5581 25.7785 34.6581 23.4745 36.1041Z" fill="black"/>
</g>
<defs>
<clipPath id="clip0_2456_17065">
<rect width="48" height="48" fill="white"/>
</clipPath>
</defs>
</svg>
