<svg width="12" height="12" viewBox="0 0 12 12" fill="none" xmlns="http://www.w3.org/2000/svg">
<path d="M7.09375 6L10.9688 9.875C11.0729 9.97917 11.0729 10.0938 10.9688 10.2188L10.25 10.9375C10.125 11.0417 10.0104 11.0417 9.90625 10.9375L9.25 10.25L6.03125 7.0625L2.15625 10.9375C2.05208 11.0417 1.9375 11.0417 1.8125 10.9375L1.09375 10.2188C0.989583 10.0938 0.989583 9.97917 1.09375 9.875L4.96875 6L1.09375 2.125C0.989583 2.02083 0.989583 1.90625 1.09375 1.78125L1.8125 1.0625C1.9375 0.958333 2.05208 0.958333 2.15625 1.0625L6.03125 4.9375L9.90625 1.0625C10.0104 0.958333 10.125 0.958333 10.25 1.0625L10.9688 1.78125C11.0729 1.90625 11.0729 2.02083 10.9688 2.125L10.2812 2.78125L7.09375 6Z" fill="#111111"/>
</svg>
