<svg width="24" height="24" viewBox="0 0 24 24" fill="none" xmlns="http://www.w3.org/2000/svg">
<g clip-path="url(#clip0_654_8481)">
<path d="M12.001 5.25C16.045 5.25 19.4095 8.16 20.1152 12C19.4102 15.84 16.045 18.75 12.001 18.75C7.95697 18.75 4.59247 15.84 3.88672 12C4.59172 8.16 7.95697 5.25 12.001 5.25ZM12.001 17.25C13.5306 17.2497 15.0148 16.7301 16.2106 15.7764C17.4065 14.8226 18.2431 13.4912 18.5837 12C18.2419 10.51 17.4047 9.18 16.2089 8.22752C15.0132 7.27504 13.5297 6.7564 12.001 6.7564C10.4722 6.7564 8.98874 7.27504 7.793 8.22752C6.59727 9.18 5.76004 10.51 5.41822 12C5.75879 13.4912 6.59547 14.8226 7.79133 15.7764C8.98718 16.7301 10.4714 17.2497 12.001 17.25ZM12.001 15.375C11.1059 15.375 10.2474 15.0194 9.61448 14.3865C8.98155 13.7535 8.62597 12.8951 8.62597 12C8.62597 11.1049 8.98155 10.2464 9.61448 9.61351C10.2474 8.98058 11.1059 8.625 12.001 8.625C12.8961 8.625 13.7545 8.98058 14.3875 9.61351C15.0204 10.2464 15.376 11.1049 15.376 12C15.376 12.8951 15.0204 13.7535 14.3875 14.3865C13.7545 15.0194 12.8961 15.375 12.001 15.375ZM12.001 13.875C12.4983 13.875 12.9752 13.6775 13.3268 13.3258C13.6784 12.9742 13.876 12.4973 13.876 12C13.876 11.5027 13.6784 11.0258 13.3268 10.6742C12.9752 10.3225 12.4983 10.125 12.001 10.125C11.5037 10.125 11.0268 10.3225 10.6751 10.6742C10.3235 11.0258 10.126 11.5027 10.126 12C10.126 12.4973 10.3235 12.9742 10.6751 13.3258C11.0268 13.6775 11.5037 13.875 12.001 13.875Z" fill="#111111"/>
</g>
<defs>
<clipPath id="clip0_654_8481">
<rect width="18" height="18" fill="white" transform="translate(3 3)"/>
</clipPath>
</defs>
</svg>
