<svg width="18" height="18" viewBox="0 0 18 18" fill="none" xmlns="http://www.w3.org/2000/svg">
<g clip-path="url(#clip0_77_22856)">
<path d="M9 6.75C8.40326 6.75 7.83097 6.98705 7.40901 7.40901C6.98705 7.83097 6.75 8.40326 6.75 9C6.75 9.59674 6.98705 10.169 7.40901 10.591C7.83097 11.0129 8.40326 11.25 9 11.25C9.59674 11.25 10.169 11.0129 10.591 10.591C11.0129 10.169 11.25 9.59674 11.25 9C11.25 8.40326 11.0129 7.83097 10.591 7.40901C10.169 6.98705 9.59674 6.75 9 6.75ZM9 5.25C9.99456 5.25 10.9484 5.64509 11.6517 6.34835C12.3549 7.05161 12.75 8.00544 12.75 9C12.75 9.99456 12.3549 10.9484 11.6517 11.6517C10.9484 12.3549 9.99456 12.75 9 12.75C8.00544 12.75 7.05161 12.3549 6.34835 11.6517C5.64509 10.9484 5.25 9.99456 5.25 9C5.25 8.00544 5.64509 7.05161 6.34835 6.34835C7.05161 5.64509 8.00544 5.25 9 5.25ZM13.875 5.0625C13.875 5.31114 13.7762 5.5496 13.6004 5.72541C13.4246 5.90123 13.1861 6 12.9375 6C12.6889 6 12.4504 5.90123 12.2746 5.72541C12.0988 5.5496 12 5.31114 12 5.0625C12 4.81386 12.0988 4.5754 12.2746 4.39959C12.4504 4.22377 12.6889 4.125 12.9375 4.125C13.1861 4.125 13.4246 4.22377 13.6004 4.39959C13.7762 4.5754 13.875 4.81386 13.875 5.0625ZM9 3C7.1445 3 6.8415 3.00525 5.97825 3.0435C5.39025 3.07125 4.99575 3.15 4.62975 3.2925C4.30425 3.4185 4.0695 3.56925 3.81975 3.81975C3.58501 4.04655 3.40451 4.32344 3.29175 4.62975C3.14925 4.99725 3.0705 5.391 3.0435 5.97825C3.0045 6.80625 3 7.09575 3 9C3 10.8555 3.00525 11.1585 3.0435 12.0217C3.07125 12.609 3.15 13.0043 3.29175 13.3695C3.41925 13.6958 3.56925 13.9305 3.81825 14.1795C4.071 14.4315 4.30575 14.5822 4.62825 14.7067C4.99875 14.85 5.39325 14.9295 5.97825 14.9565C6.80625 14.9955 7.09575 15 9 15C10.8555 15 11.1585 14.9948 12.0217 14.9565C12.6082 14.9288 13.0035 14.85 13.3695 14.7083C13.6943 14.5815 13.9305 14.4307 14.1795 14.1818C14.4323 13.929 14.583 13.6943 14.7075 13.3717C14.85 13.002 14.9295 12.6067 14.9565 12.0217C14.9955 11.1937 15 10.9043 15 9C15 7.1445 14.9948 6.8415 14.9565 5.97825C14.9288 5.39175 14.85 4.99575 14.7075 4.62975C14.5945 4.32375 14.4143 4.04697 14.1803 3.81975C13.9536 3.58488 13.6766 3.40438 13.3702 3.29175C13.0027 3.14925 12.6082 3.0705 12.0217 3.0435C11.1937 3.0045 10.9043 3 9 3ZM9 1.5C11.0378 1.5 11.292 1.5075 12.0915 1.545C12.8903 1.5825 13.434 1.70775 13.9125 1.89375C14.4075 2.08425 14.8245 2.34225 15.2415 2.7585C15.6229 3.13342 15.918 3.58694 16.1063 4.0875C16.2915 4.56525 16.4175 5.10975 16.455 5.9085C16.4903 6.708 16.5 6.96225 16.5 9C16.5 11.0378 16.4925 11.292 16.455 12.0915C16.4175 12.8903 16.2915 13.434 16.1063 13.9125C15.9185 14.4133 15.6233 14.867 15.2415 15.2415C14.8665 15.6227 14.413 15.9178 13.9125 16.1063C13.4347 16.2915 12.8903 16.4175 12.0915 16.455C11.292 16.4903 11.0378 16.5 9 16.5C6.96225 16.5 6.708 16.4925 5.9085 16.455C5.10975 16.4175 4.566 16.2915 4.0875 16.1063C3.58674 15.9184 3.13315 15.6232 2.7585 15.2415C2.37705 14.8666 2.08195 14.4131 1.89375 13.9125C1.70775 13.4347 1.5825 12.8903 1.545 12.0915C1.50975 11.292 1.5 11.0378 1.5 9C1.5 6.96225 1.5075 6.708 1.545 5.9085C1.5825 5.109 1.70775 4.566 1.89375 4.0875C2.08143 3.58663 2.3766 3.13299 2.7585 2.7585C3.13325 2.37692 3.58682 2.0818 4.0875 1.89375C4.566 1.70775 5.109 1.5825 5.9085 1.545C6.708 1.50975 6.96225 1.5 9 1.5Z" fill="black"/>
</g>
<defs>
<clipPath id="clip0_77_22856">
<rect width="18" height="18" fill="white"/>
</clipPath>
</defs>
</svg>
