<svg width="32" height="25" viewBox="0 0 32 25" fill="none" xmlns="http://www.w3.org/2000/svg">
<path opacity="0.8" d="M26.3594 20.9766C26.3594 20.5938 26.1406 20.3203 25.7578 20.3203C25.375 20.3203 25.1562 20.5938 25.1562 20.9766C25.1562 21.3047 25.375 21.5781 25.7578 21.5781C26.1406 21.5781 26.3594 21.3594 26.3594 20.9766ZM9.40625 20.3203C9.02344 20.3203 8.75 20.5938 8.75 20.9766C8.75 21.3047 9.02344 21.5781 9.40625 21.5781C9.73438 21.5781 10.0078 21.3594 10.0078 20.9766C9.95312 20.5938 9.73438 20.3203 9.40625 20.3203ZM15.8047 20.3203C15.5312 20.3203 15.3125 20.4844 15.3125 20.7578H16.3516C16.2969 20.4844 16.0781 20.3203 15.8047 20.3203ZM21.7109 20.3203C21.3281 20.3203 21.1094 20.5938 21.1094 20.9766C21.1094 21.3047 21.3281 21.5781 21.7109 21.5781C22.0938 21.5781 22.3125 21.3594 22.3125 20.9766C22.3125 20.5938 22.0938 20.3203 21.7109 20.3203ZM27.5078 21.7422C27.5078 21.7422 27.5078 21.6875 27.4531 21.6875C27.4531 21.6875 27.4531 21.6875 27.3984 21.6875C27.3984 21.6328 27.3984 21.6328 27.3438 21.6328C27.3438 21.6328 27.3438 21.6328 27.2891 21.6875C27.2891 21.6875 27.2891 21.6875 27.2344 21.6875V21.7422C27.1797 21.7422 27.1797 21.7969 27.1797 21.7969C27.1797 21.8516 27.1797 21.8516 27.2344 21.8516C27.2344 21.9062 27.2344 21.9062 27.2344 21.9062C27.2891 21.9062 27.2891 21.9609 27.2891 21.9609C27.3438 21.9609 27.3438 21.9609 27.3438 21.9609C27.3984 21.9609 27.3984 21.9609 27.3984 21.9609C27.4531 21.9609 27.4531 21.9062 27.4531 21.9062C27.5078 21.9062 27.5078 21.9062 27.5078 21.8516C27.5078 21.8516 27.5078 21.8516 27.5078 21.7969V21.7422ZM27.3984 21.8516L27.4531 21.9062H27.3984L27.3438 21.7969V21.9062H27.2891V21.6875H27.3438C27.3984 21.6875 27.3984 21.7422 27.3984 21.7422C27.4531 21.7422 27.4531 21.7422 27.4531 21.7422C27.4531 21.7969 27.4531 21.7969 27.3984 21.7969V21.8516ZM31.5 2.92969C31.5 1.50781 30.2969 0.304688 28.875 0.304688H2.625C1.14844 0.304688 0 1.50781 0 2.92969V22.1797C0 23.6562 1.14844 24.8047 2.625 24.8047H28.875C30.2969 24.8047 31.5 23.6562 31.5 22.1797V2.92969ZM3.5 10.5859C3.5 6.42969 6.89062 3.03906 11.0469 3.03906C12.5234 3.03906 14 3.47656 15.2578 4.29688C11.2656 7.52344 11.2656 13.6484 15.2578 16.875C14 17.6953 12.5234 18.1875 11.0469 18.1875C6.89062 18.1875 3.5 14.7969 3.5 10.5859ZM15.75 16.5469C11.8672 13.5391 11.8672 7.6875 15.75 4.625C19.5781 7.6875 19.5781 13.5391 15.75 16.5469ZM7.92969 20.7031V21.9609H7.49219C7.49219 20.8672 7.60156 20.3203 7.05469 20.3203C6.45312 20.3203 6.5625 20.9766 6.5625 21.9609H6.125C6.125 20.8672 6.23438 20.3203 5.6875 20.3203C5.03125 20.3203 5.19531 20.9219 5.19531 21.9609H4.75781V19.9375H5.19531V20.2109C5.35938 19.9922 5.57812 19.8828 5.79688 19.8828C6.07031 19.8828 6.28906 20.0469 6.45312 20.2656C6.61719 19.9922 6.89062 19.8828 7.16406 19.8828C7.65625 19.9375 7.92969 20.2109 7.92969 20.7031ZM10.3906 19.9375V21.9609H9.95312V21.7422C9.84375 21.9062 9.625 22.0156 9.35156 22.0156C8.75 22.0156 8.3125 21.5781 8.3125 20.9766C8.3125 20.375 8.75 19.8828 9.35156 19.8828C9.625 19.8828 9.84375 20.0469 9.95312 20.2109V19.9375H10.3906ZM12.6328 21.3594C12.6328 22.125 11.4297 22.1797 10.8281 21.7969L11.0469 21.4141C11.4297 21.6875 12.1406 21.7422 12.1406 21.3594C12.1406 21.0312 10.8828 21.3594 10.8828 20.5391C10.8828 19.7734 12.0312 19.7734 12.5781 20.1016L12.3594 20.4844C12.0312 20.2656 11.375 20.2109 11.375 20.5391C11.375 20.9219 12.6328 20.5391 12.6328 21.3594ZM14.5469 21.8516C14.2734 22.0703 13.2891 22.2344 13.2891 21.25V20.375H12.9062V19.9375H13.2891V19.3359H13.7812V19.9375H14.4922V20.375H13.7812V21.25C13.7812 21.7422 14.2188 21.6328 14.4375 21.5234L14.5469 21.8516ZM15.2578 21.1406C15.4219 21.7422 16.0234 21.7422 16.4609 21.4141L16.6797 21.7422C16.0781 22.2891 14.8203 22.0703 14.8203 20.9766C14.8203 20.3203 15.2578 19.8828 15.8047 19.8828C16.3516 19.8828 16.7891 20.2656 16.7891 21.1406H15.2578ZM18.4844 19.9375L18.375 20.375C18.2109 20.2656 17.6641 20.2109 17.6641 20.8125V21.9609H17.2266V19.9375H17.6641V20.2109C17.8828 19.8828 18.2656 19.8281 18.4844 19.9375ZM19.0859 20.9766C19.0859 21.5781 19.7422 21.7969 20.2344 21.4141L20.4531 21.7969C19.8516 22.2891 18.6484 22.0703 18.6484 20.9766C18.6484 19.9375 19.7969 19.6641 20.4531 20.1562L20.2344 20.4844C19.7422 20.1562 19.0859 20.3203 19.0859 20.9766ZM22.75 19.9375V21.9609H22.3125V21.7422C21.875 22.2891 20.6719 22.0156 20.6719 20.9766C20.6719 19.9375 21.8203 19.6094 22.3125 20.2109V19.9375H22.75ZM24.5547 19.9375L24.4453 20.375C24.2266 20.2656 23.7344 20.2109 23.7344 20.8125V21.9609H23.2969V19.9375H23.7344V20.2109C23.9531 19.8281 24.4453 19.8828 24.5547 19.9375ZM26.7969 19.1719V21.9609H26.3594V21.7422C25.9219 22.2891 24.7188 22.0156 24.7188 20.9766C24.7188 19.9375 25.9219 19.6094 26.3594 20.2109V19.1719H26.7969ZM27.1797 15.0156H27.0703H27.3438H27.2344V15.2891H27.1797V15.0156ZM27.5625 21.7969C27.5625 21.8516 27.5625 21.8516 27.5625 21.9062C27.5078 21.9062 27.5078 21.9062 27.5078 21.9609C27.5078 21.9609 27.4531 21.9609 27.4531 22.0156C27.3984 22.0156 27.3984 22.0156 27.3438 22.0156H27.2891C27.2344 21.9609 27.2344 21.9609 27.2344 21.9609C27.1797 21.9062 27.1797 21.9062 27.1797 21.9062C27.1797 21.8516 27.1797 21.8516 27.1797 21.7969V21.7422C27.1797 21.6875 27.1797 21.6875 27.2344 21.6875C27.2344 21.6328 27.2344 21.6328 27.2891 21.6328L27.3438 21.5781C27.3984 21.5781 27.3984 21.6328 27.4531 21.6328C27.4531 21.6328 27.5078 21.6328 27.5078 21.6875C27.5078 21.6875 27.5078 21.6875 27.5625 21.7422V21.7969ZM27.7266 15.0156V15.2891H27.6719V15.0703L27.6172 15.2344H27.5625L27.4531 15.0703V15.2891H27.3984V15.0156H27.5078L27.5625 15.1797L27.6719 15.0156H27.7266ZM28 10.5859C28 14.7969 24.5547 18.1875 20.3984 18.1328C18.9219 18.1328 17.4453 17.6953 16.2422 16.875C20.2344 13.6484 20.1797 7.52344 16.2422 4.29688C17.4453 3.47656 18.9219 3.03906 20.3984 3.03906C24.5547 3.03906 28 6.42969 28 10.5859Z" fill="#555555"/>
</svg>
