<svg width="42" height="22" viewBox="0 0 42 22" fill="none" xmlns="http://www.w3.org/2000/svg">
<path d="M0 11C0 11.5067 0.383797 11.9167 0.857166 11.9167L39.0747 11.9167L31.1091 20.4352C30.9417 20.6143 30.858 20.8488 30.858 21.0833C30.858 21.3179 30.9417 21.5524 31.1091 21.7314C31.4439 22.0895 31.9863 22.0895 32.3212 21.7314L41.7493 11.6489C41.8286 11.5642 41.8915 11.4628 41.9351 11.3502C42.0217 11.1262 42.0216 10.8738 41.935 10.6498C41.8915 10.5372 41.8286 10.4358 41.7493 10.3511L32.3212 0.268558C31.9863 -0.0895194 31.4439 -0.0895194 31.1091 0.268558C30.7743 0.626635 30.7743 1.20671 31.1091 1.56478L39.0747 10.0833L0.857166 10.0833C0.383797 10.0833 0 10.4933 0 11Z" fill="#999999"/>
</svg>
