<svg width="24" height="24" viewBox="0 0 24 24" fill="none" xmlns="http://www.w3.org/2000/svg">
<g clip-path="url(#clip0_654_8439)">
<path d="M12.8402 15.7665L9.6909 14.049C9.27975 14.4886 8.74589 14.7943 8.15871 14.9265C7.57153 15.0586 6.95817 15.0111 6.39835 14.7901C5.83852 14.5691 5.35812 14.1848 5.01958 13.6871C4.68104 13.1895 4.5 12.6015 4.5 11.9997C4.5 11.3978 4.68104 10.8098 5.01958 10.3122C5.35812 9.81458 5.83852 9.43029 6.39835 9.20927C6.95817 8.98825 7.57153 8.94073 8.15871 9.07288C8.74589 9.20504 9.27975 9.51075 9.6909 9.9503L12.8409 8.2328C12.6621 7.52485 12.7476 6.77599 13.0814 6.12658C13.4152 5.47716 13.9744 4.97178 14.6542 4.70517C15.3339 4.43856 16.0876 4.42903 16.7739 4.67835C17.4602 4.92767 18.032 5.41874 18.3821 6.05949C18.7323 6.70025 18.8367 7.44671 18.6758 8.15896C18.515 8.8712 18.0999 9.50033 17.5083 9.92841C16.9168 10.3565 16.1894 10.5541 15.4626 10.4843C14.7358 10.4145 14.0594 10.0819 13.5602 9.54905L10.4102 11.2665C10.5311 11.7476 10.5311 12.251 10.4102 12.732L13.5594 14.4495C14.0586 13.9167 14.735 13.5841 15.4619 13.5143C16.1887 13.4445 16.916 13.6421 17.5076 14.0702C18.0991 14.4983 18.5142 15.1274 18.6751 15.8396C18.8359 16.5519 18.7315 17.2983 18.3814 17.9391C18.0312 18.5799 17.4594 19.0709 16.7731 19.3202C16.0868 19.5696 15.3332 19.56 14.6534 19.2934C13.9736 19.0268 13.4144 18.5214 13.0806 17.872C12.7468 17.2226 12.6613 16.4737 12.8402 15.7658V15.7665ZM7.50015 13.4993C7.89798 13.4993 8.27951 13.3413 8.56081 13.06C8.84212 12.7787 9.00015 12.3971 9.00015 11.9993C9.00015 11.6015 8.84212 11.2199 8.56081 10.9386C8.27951 10.6573 7.89798 10.4993 7.50015 10.4993C7.10233 10.4993 6.7208 10.6573 6.43949 10.9386C6.15819 11.2199 6.00015 11.6015 6.00015 11.9993C6.00015 12.3971 6.15819 12.7787 6.43949 13.06C6.7208 13.3413 7.10233 13.4993 7.50015 13.4993ZM15.7502 8.9993C16.148 8.9993 16.5295 8.84126 16.8108 8.55996C17.0921 8.27865 17.2502 7.89712 17.2502 7.4993C17.2502 7.10147 17.0921 6.71994 16.8108 6.43864C16.5295 6.15733 16.148 5.9993 15.7502 5.9993C15.3523 5.9993 14.9708 6.15733 14.6895 6.43864C14.4082 6.71994 14.2502 7.10147 14.2502 7.4993C14.2502 7.89712 14.4082 8.27865 14.6895 8.55996C14.9708 8.84126 15.3523 8.9993 15.7502 8.9993ZM15.7502 17.9993C16.148 17.9993 16.5295 17.8413 16.8108 17.56C17.0921 17.2787 17.2502 16.8971 17.2502 16.4993C17.2502 16.1015 17.0921 15.7199 16.8108 15.4386C16.5295 15.1573 16.148 14.9993 15.7502 14.9993C15.3523 14.9993 14.9708 15.1573 14.6895 15.4386C14.4082 15.7199 14.2502 16.1015 14.2502 16.4993C14.2502 16.8971 14.4082 17.2787 14.6895 17.56C14.9708 17.8413 15.3523 17.9993 15.7502 17.9993Z" fill="#111111"/>
</g>
<defs>
<clipPath id="clip0_654_8439">
<rect width="18" height="18" fill="white" transform="translate(3 3)"/>
</clipPath>
</defs>
</svg>
