<svg width="32" height="25" viewBox="0 0 32 25" fill="none" xmlns="http://www.w3.org/2000/svg">
<path opacity="0.8" d="M26.9062 10.5859C26.4141 10.5859 25.8672 10.9688 25.8672 11.8438H27.8906C27.8906 10.9688 27.3984 10.5859 26.9062 10.5859ZM20.5078 10.75C20.0156 10.75 19.7422 10.9141 19.5781 11.1328V14.0312C19.7422 14.1953 20.0156 14.3594 20.5078 14.3594C21.2188 14.3594 21.6562 13.5938 21.6562 12.5547C21.6562 11.5156 21.1641 10.75 20.5078 10.75ZM28.875 0.25H2.625C1.14844 0.25 0 1.45312 0 2.875V22.125C0 23.6016 1.14844 24.75 2.625 24.75H28.875C30.2969 24.75 31.5 23.6016 31.5 22.125V2.875C31.5 1.45312 30.2969 0.25 28.875 0.25ZM6.67188 13.9219C6.67188 15.2891 5.52344 16.1094 3.9375 16.1094C3.28125 16.1094 2.51562 15.9453 1.80469 15.6719V13.8125C2.46094 14.1406 3.28125 14.4141 3.9375 14.4141C4.375 14.4141 4.70312 14.3047 4.70312 13.9219C4.70312 12.9922 1.75 13.375 1.75 11.2422C1.75 9.82031 2.78906 9 4.375 9C4.97656 9 5.63281 9.10938 6.28906 9.38281V11.1875C5.6875 10.8594 4.92188 10.6953 4.375 10.6953C3.9375 10.6953 3.66406 10.8047 3.66406 11.1328C3.66406 12.0078 6.67188 11.5703 6.67188 13.9219ZM10.4453 10.8047H8.96875V13.5391C8.96875 14.6875 10.1719 14.3594 10.4453 14.25V15.8359C10.1719 16 9.67969 16.1094 9.07812 16.1094C7.92969 16.1094 7.05469 15.2344 7.05469 14.0859V7.85156L8.96875 7.46875V9.16406H10.4453V10.8047ZM14.4922 10.9141C14.2188 10.8594 13.4531 10.75 12.9609 11.3516V15.9453H11.0469V9.16406H12.7422L12.8516 9.71094C13.2891 8.89062 14.2188 9.05469 14.4375 9.16406H14.4922V10.9141ZM16.8984 15.9453H14.9297V9.16406H16.8984V15.9453ZM16.8984 8.125L14.9297 8.5625V6.97656L16.8984 6.53906V8.125ZM20.9453 16.1094C20.2344 16.1094 19.8516 15.7812 19.5781 15.6172V17.8047L17.6094 18.1875V9.16406H19.3047L19.4141 9.60156C19.6875 9.38281 20.1797 9 20.9453 9C22.3125 9 23.5703 10.2578 23.5703 12.5C23.5703 14.9609 22.3125 16.1094 20.9453 16.1094ZM29.6953 13.2656H25.9219C25.9766 14.1953 26.6328 14.4688 27.3984 14.4688C28.1641 14.4688 28.7656 14.3047 29.3125 14.0312V15.5625C28.7656 15.8906 28.1094 16.1094 27.1797 16.1094C25.2656 16.1094 23.9531 14.9062 23.9531 12.5547C23.9531 10.5859 25.0469 9 26.9062 9C28.7656 9 29.75 10.5859 29.75 12.5547C29.75 12.7734 29.6953 13.1562 29.6953 13.2656Z" fill="white"/>
</svg>
