<svg width="32" height="32" viewBox="0 0 32 32" fill="none" xmlns="http://www.w3.org/2000/svg">
<g clip-path="url(#clip0_6661_30444)">
<path d="M24 15.4668C19.5888 15.4668 16 19.0556 16 23.4668C16 27.878 19.5888 31.4668 24 31.4668C28.4112 31.4668 32 27.878 32 23.4668C32 19.0556 28.4112 15.4668 24 15.4668ZM24 30.4001C20.1768 30.4001 17.0667 27.29 17.0667 23.4668C17.0667 19.6436 20.1768 16.5335 24 16.5335C27.8232 16.5335 30.9333 19.6436 30.9333 23.4668C30.9333 27.29 27.8232 30.4001 24 30.4001Z" fill="#111111"/>
<path d="M0.333595 25.8276L14.1922 31.4244C14.1924 31.4244 14.1925 31.4244 14.1926 31.4245L14.2003 31.4276C14.2643 31.4534 14.3323 31.4664 14.4 31.4664C14.4677 31.4664 14.5354 31.4534 14.5995 31.4276L14.6069 31.4246C14.6073 31.4244 14.6077 31.4243 14.6081 31.4241L17.6396 30.201C17.9128 30.0909 18.0448 29.7802 17.9346 29.507C17.8247 29.2341 17.5143 29.1016 17.2406 29.212L14.9333 30.1427V12.6262L27.7333 7.457V15.4716C27.7333 15.7661 27.9721 16.0049 28.2667 16.0049C28.5612 16.0049 28.8 15.7661 28.8 15.4716V6.66641C28.8 6.60081 28.7846 6.5389 28.7623 6.47982C28.7555 6.46179 28.7466 6.446 28.7379 6.42894C28.7177 6.38887 28.6931 6.35248 28.6636 6.31869C28.6509 6.30423 28.6396 6.28994 28.6255 6.27695C28.5863 6.24079 28.5421 6.21074 28.4925 6.18727C28.4846 6.18356 28.4785 6.17757 28.4704 6.17422C28.4689 6.17363 28.4679 6.17246 28.4664 6.17188L14.5997 0.571875C14.4716 0.520312 14.3284 0.520312 14.2003 0.571875L0.333595 6.17188C0.332128 6.17246 0.331056 6.17364 0.329621 6.17422C0.321515 6.17757 0.315397 6.18356 0.307488 6.1873C0.257941 6.21074 0.213739 6.24082 0.174576 6.27692C0.160416 6.28994 0.149056 6.30423 0.136357 6.31872C0.106832 6.35244 0.082352 6.3888 0.0621387 6.42884C0.0534773 6.44593 0.044464 6.46182 0.0376587 6.47991C0.0153653 6.53897 0 6.60085 0 6.66641V25.3331C0 25.3344 0.000746667 25.3355 0.000746667 25.3368C0.0012 25.3994 0.0157867 25.4597 0.0372373 25.5174C0.0400053 25.5249 0.0391573 25.5338 0.0422827 25.5412C0.0648747 25.5945 0.100325 25.6413 0.139221 25.685C0.145995 25.6926 0.149051 25.703 0.156245 25.7102C0.164219 25.7182 0.176299 25.722 0.184827 25.7295C0.228544 25.7679 0.275584 25.8028 0.330235 25.8254C0.331541 25.8259 0.332293 25.8271 0.333595 25.8276ZM13.8667 30.1424L1.06667 24.9733V7.457L13.8667 12.6262V30.1424ZM14.4 1.64167L26.8424 6.66641L21.3333 8.89121L8.89098 3.86641L14.4 1.64167ZM7.46667 4.4416L19.909 9.46641L14.4 11.6912L1.95755 6.66641L7.46667 4.4416Z" fill="#111111"/>
<path d="M27.018 20.775L24.169 22.7081L21.8344 18.7839C21.6836 18.5308 21.3565 18.4482 21.1034 18.5982C20.8503 18.7488 20.7672 19.0761 20.9177 19.3292L23.5417 23.7399C23.6167 23.8662 23.7406 23.9558 23.8841 23.9878C23.9224 23.9964 23.9615 24.0006 24 24.0006C24.106 24.0006 24.2104 23.9691 24.2995 23.9086L27.6169 21.6579C27.8607 21.4925 27.9242 21.1607 27.7588 20.917C27.5935 20.6732 27.2612 20.6094 27.018 20.775Z" fill="#111111"/>
</g>
<defs>
<clipPath id="clip0_6661_30444">
<rect width="32" height="32" fill="white"/>
</clipPath>
</defs>
</svg>
