<svg width="24" height="24" viewBox="0 0 24 24" fill="none" xmlns="http://www.w3.org/2000/svg">
<g clip-path="url(#clip0_6661_30522)">
<path d="M12 5.25C16.044 5.25 19.4085 8.16 20.1143 12C19.4093 15.84 16.044 18.75 12 18.75C7.956 18.75 4.5915 15.84 3.88575 12C4.59075 8.16 7.956 5.25 12 5.25ZM12 17.25C13.5296 17.2497 15.0138 16.7301 16.2096 15.7764C17.4055 14.8226 18.2422 13.4912 18.5828 12C18.2409 10.51 17.4037 9.18 16.208 8.22752C15.0122 7.27504 13.5287 6.7564 12 6.7564C10.4713 6.7564 8.98777 7.27504 7.79203 8.22752C6.5963 9.18 5.75908 10.51 5.41725 12C5.75782 13.4912 6.59451 14.8226 7.79036 15.7764C8.98621 16.7301 10.4704 17.2497 12 17.25ZM12 15.375C11.1049 15.375 10.2464 15.0194 9.61351 14.3865C8.98058 13.7535 8.625 12.8951 8.625 12C8.625 11.1049 8.98058 10.2464 9.61351 9.61351C10.2464 8.98058 11.1049 8.625 12 8.625C12.8951 8.625 13.7535 8.98058 14.3865 9.61351C15.0194 10.2464 15.375 11.1049 15.375 12C15.375 12.8951 15.0194 13.7535 14.3865 14.3865C13.7535 15.0194 12.8951 15.375 12 15.375ZM12 13.875C12.4973 13.875 12.9742 13.6775 13.3258 13.3258C13.6775 12.9742 13.875 12.4973 13.875 12C13.875 11.5027 13.6775 11.0258 13.3258 10.6742C12.9742 10.3225 12.4973 10.125 12 10.125C11.5027 10.125 11.0258 10.3225 10.6742 10.6742C10.3225 11.0258 10.125 11.5027 10.125 12C10.125 12.4973 10.3225 12.9742 10.6742 13.3258C11.0258 13.6775 11.5027 13.875 12 13.875Z" fill="#ED0006"/>
</g>
<defs>
<clipPath id="clip0_6661_30522">
<rect width="18" height="18" fill="white" transform="translate(3 3)"/>
</clipPath>
</defs>
</svg>
