<svg width="40" height="40" viewBox="0 0 40 40" fill="none" xmlns="http://www.w3.org/2000/svg">
<rect opacity="0.1" width="40" height="40" rx="20" fill="white"/>
<path d="M25 20C25 20.2765 24.7765 20.5 24.5 20.5H16.707L19.3535 23.1465C19.549 23.342 19.549 23.658 19.3535 23.8535C19.256 23.951 19.128 24 19 24C18.872 24 18.7441 23.951 18.6466 23.8535L15.1466 20.3535C14.9511 20.158 14.9511 19.842 15.1466 19.6465L18.6466 16.1465C18.8421 15.951 19.158 15.951 19.3535 16.1465C19.549 16.342 19.549 16.658 19.3535 16.8535L16.707 19.5H24.5C24.7765 19.5 25 19.7235 25 20Z" fill="white"/>
</svg>
