<svg width="48" height="48" viewBox="0 0 48 48" fill="none" xmlns="http://www.w3.org/2000/svg">
<g clip-path="url(#clip0_2456_17068)">
<path d="M36.2325 47.7334C35.9885 47.7334 35.3745 47.6534 34.9345 46.9134L28.9345 36.7654C28.7985 36.5354 28.7605 36.2654 28.8265 36.0074C28.8925 35.7494 29.0565 35.5314 29.2865 35.3954C29.4385 35.3054 29.6165 35.2554 29.7945 35.2554C30.1465 35.2554 30.4765 35.4434 30.6565 35.7474L36.0885 44.9334L38.0365 39.5794C38.1785 39.1854 38.5585 38.9214 38.9805 38.9214C39.0325 38.9214 39.0845 38.9254 39.1365 38.9334L44.7505 39.8834L39.0565 30.0234C38.7805 29.5454 38.9445 28.9334 39.4225 28.6574C39.5725 28.5694 39.7465 28.5234 39.9225 28.5234C40.2785 28.5234 40.6105 28.7154 40.7885 29.0234L47.0445 39.8574C47.3765 40.4274 47.3805 41.0434 47.0585 41.5014C46.9365 41.6734 46.5765 42.0754 45.8805 42.0754C45.7605 42.0754 45.6365 42.0634 45.5105 42.0394L39.6325 41.0454L37.5885 46.6614C37.2565 47.5734 36.5565 47.7074 36.3505 47.7254C36.3185 47.7314 36.2785 47.7334 36.2325 47.7334Z" fill="black"/>
<path d="M11.7674 47.7314C11.7274 47.7314 11.6914 47.7294 11.6614 47.7274C11.4454 47.7074 10.7454 47.5714 10.4134 46.6614L8.36937 41.0454L2.47537 42.0434C2.35137 42.0654 2.23137 42.0754 2.12137 42.0754C1.42137 42.0754 1.06337 41.6734 0.943375 41.5014C0.621375 41.0434 0.625375 40.4274 0.957375 39.8554L7.21137 29.0234C7.38937 28.7154 7.72137 28.5234 8.07737 28.5234C8.25337 28.5234 8.42537 28.5694 8.57737 28.6574C9.05337 28.9334 9.21737 29.5454 8.94337 30.0234L3.24937 39.8834L8.85537 38.9354C8.91337 38.9254 8.96737 38.9214 9.01937 38.9214C9.43937 38.9214 9.81937 39.1854 9.96137 39.5794L11.9114 44.9334L17.3434 35.7574C17.5214 35.4554 17.8514 35.2674 18.2034 35.2674C18.3814 35.2674 18.5574 35.3154 18.7134 35.4074C18.9434 35.5434 19.1054 35.7614 19.1734 36.0194C19.2414 36.2774 19.2014 36.5474 19.0654 36.7774L13.0654 46.9114C12.6254 47.6514 12.0114 47.7314 11.7674 47.7314Z" fill="black"/>
<path d="M23.9941 34.2638C23.1001 34.2638 22.2261 34.0818 21.3941 33.7238C20.0921 33.1618 19.0121 32.1978 18.3101 30.9818C17.7601 31.1258 17.1941 31.1998 16.6201 31.1998C15.7181 31.1998 14.8441 31.0198 14.0221 30.6658C12.4101 29.9738 11.1661 28.6938 10.5181 27.0638C9.99411 25.7478 9.91011 24.2998 10.2741 22.9418C8.99611 22.2018 8.00611 21.0578 7.46011 19.6818C6.81211 18.0538 6.83811 16.2678 7.53211 14.6578C8.09411 13.3578 9.05811 12.2758 10.2741 11.5738C9.89411 10.1458 10.0021 8.63581 10.5901 7.27381C11.2861 5.66381 12.5681 4.41981 14.1981 3.77381C14.9781 3.46581 15.7921 3.30781 16.6201 3.30781C17.1941 3.30781 17.7641 3.38381 18.3201 3.53381C19.0581 2.26181 20.2001 1.27181 21.5721 0.725813C22.3541 0.413813 23.1721 0.257812 24.0021 0.257812C24.8941 0.257812 25.7681 0.439812 26.5981 0.795812C27.9001 1.35581 28.9821 2.32181 29.6861 3.53781C30.2361 3.39181 30.8021 3.31781 31.3761 3.31781C32.2781 3.31781 33.1521 3.49781 33.9741 3.85181C36.9621 5.13781 38.5501 8.46981 37.7241 11.5738C39.7561 12.7418 41.0001 14.8838 41.0001 17.2598C41.0001 19.6378 39.7521 21.7798 37.7161 22.9458C38.0941 24.3678 37.9861 25.8738 37.4021 27.2318C36.7101 28.8438 35.4301 30.0878 33.8001 30.7358C33.0181 31.0478 32.2001 31.2038 31.3701 31.2038C30.7981 31.2038 30.2321 31.1278 29.6781 30.9798C28.9401 32.2578 27.7961 33.2478 26.4181 33.7938C25.6401 34.1058 24.8241 34.2638 23.9941 34.2638ZM18.8221 28.7478C18.9541 28.7478 19.0821 28.7738 19.2041 28.8238C19.4521 28.9258 19.6521 29.1298 19.7501 29.3778C20.2001 30.5118 21.0641 31.4018 22.1841 31.8858C22.7621 32.1358 23.3701 32.2618 23.9901 32.2618C24.5661 32.2618 25.1341 32.1518 25.6781 31.9358C26.8421 31.4738 27.7741 30.5418 28.2361 29.3778C28.3361 29.1278 28.5341 28.9258 28.7821 28.8238C28.9041 28.7738 29.0321 28.7478 29.1661 28.7478C29.3021 28.7478 29.4341 28.7738 29.5601 28.8278C30.1401 29.0778 30.7481 29.2038 31.3681 29.2038C31.9461 29.2038 32.5141 29.0938 33.0581 28.8778C34.1921 28.4258 35.0821 27.5618 35.5641 26.4398C36.0601 25.2918 36.0601 23.9758 35.5641 22.8278C35.4581 22.5818 35.4561 22.2978 35.5581 22.0498C35.6621 21.7998 35.8661 21.6018 36.1141 21.5038C37.8681 20.8098 39.0001 19.1438 39.0001 17.2598C39.0001 15.3758 37.8701 13.7098 36.1221 13.0158C35.8721 12.9178 35.6701 12.7178 35.5681 12.4698C35.4661 12.2218 35.4661 11.9378 35.5721 11.6918C36.0541 10.5718 36.0701 9.33181 35.6181 8.19581C35.1661 7.05981 34.3021 6.16981 33.1821 5.68781C32.6121 5.44181 32.0041 5.31781 31.3761 5.31781C30.7481 5.31781 30.1401 5.44181 29.5701 5.68781C29.4441 5.74181 29.3121 5.76981 29.1741 5.76981C29.0421 5.76981 28.9141 5.74381 28.7921 5.69381C28.5421 5.58981 28.3441 5.38781 28.2441 5.13781C27.7921 4.00581 26.9281 3.11581 25.8061 2.63181C25.2281 2.38181 24.6201 2.25581 24.0001 2.25581C23.4221 2.25581 22.8541 2.36581 22.3101 2.58381C21.1501 3.04981 20.2201 3.97981 19.7581 5.13981C19.6581 5.38981 19.4601 5.59181 19.2121 5.69381C19.0881 5.74581 18.9601 5.76981 18.8281 5.76981C18.6921 5.76981 18.5581 5.74181 18.4321 5.68781C17.8521 5.43781 17.2421 5.30981 16.6201 5.30981C16.0441 5.30981 15.4781 5.41781 14.9341 5.63381C13.8021 6.08381 12.9101 6.94981 12.4261 8.06981C11.9281 9.21981 11.9281 10.5398 12.4241 11.6898C12.5321 11.9358 12.5341 12.2198 12.4301 12.4698C12.3281 12.7178 12.1261 12.9158 11.8761 13.0158C10.7421 13.4658 9.85211 14.3298 9.36811 15.4498C8.88411 16.5698 8.86611 17.8118 9.31611 18.9438C9.77811 20.1078 10.7101 21.0398 11.8741 21.5018C12.1241 21.6018 12.3261 21.7998 12.4281 22.0478C12.5301 22.2958 12.5281 22.5798 12.4221 22.8258C11.9401 23.9458 11.9221 25.1878 12.3741 26.3218C12.8241 27.4558 13.6901 28.3458 14.8121 28.8278C15.3861 29.0758 15.9921 29.1998 16.6201 29.1998C17.2481 29.1998 17.8561 29.0758 18.4261 28.8298C18.5521 28.7758 18.6861 28.7478 18.8221 28.7478Z" fill="black"/>
<path d="M21.502 23.1417C20.834 23.1417 20.206 22.8817 19.734 22.4097L16.294 18.9697C16.104 18.7797 16 18.5297 16 18.2617C16 17.9937 16.104 17.7437 16.292 17.5537C16.48 17.3637 16.734 17.2617 17 17.2617C17.266 17.2617 17.518 17.3657 17.708 17.5537L21.148 20.9937C21.244 21.0897 21.366 21.1397 21.502 21.1397C21.638 21.1397 21.76 21.0897 21.856 20.9937L31.294 11.5537C31.482 11.3657 31.734 11.2617 32 11.2617C32.268 11.2617 32.518 11.3657 32.708 11.5537C32.896 11.7437 33 11.9957 33 12.2617C33 12.5297 32.896 12.7797 32.708 12.9697L23.27 22.4097C22.798 22.8817 22.17 23.1417 21.502 23.1417Z" fill="black"/>
</g>
<defs>
<clipPath id="clip0_2456_17068">
<rect width="48" height="48" fill="white"/>
</clipPath>
</defs>
</svg>
