<svg width="64" height="64" viewBox="0 0 64 64" fill="none" xmlns="http://www.w3.org/2000/svg">
<path d="M4.94716 4.10781H59.0528C61.4493 4.10781 63.4 6.05852 63.4 8.45498V40.5176C63.4 40.705 63.2481 40.8569 63.0607 40.8569C62.8733 40.8569 62.7213 40.705 62.7213 40.5176V8.45498C62.7213 6.43167 61.0761 4.78648 59.0528 4.78648H4.94716C2.92386 4.78648 1.27867 6.43167 1.27867 8.45498V40.5176C1.27867 42.5409 2.92386 44.1861 4.94716 44.1861H26.9902C27.1776 44.1861 27.3295 44.338 27.3295 44.5254C27.3295 44.7128 27.1776 44.8648 26.9902 44.8648H4.94716C2.55071 44.8648 0.6 42.9141 0.6 40.5176V8.45498C0.6 6.05852 2.55071 4.10781 4.94716 4.10781Z" stroke="#111111" stroke-width="1.2"/>
<path d="M7.95301 31.8412C7.76561 31.8412 7.61367 31.6892 7.61367 31.5018V29.4979C7.61367 29.3105 7.76561 29.1586 7.95301 29.1586C8.1404 29.1586 8.29234 29.3105 8.29234 29.4979V31.5018C8.29234 31.6892 8.1404 31.8412 7.95301 31.8412Z" stroke="#111111" stroke-width="1.2"/>
<path d="M13.6254 31.5018V29.4979C13.6254 29.3105 13.7773 29.1586 13.9647 29.1586C14.1521 29.1586 14.3041 29.3105 14.3041 29.4979V31.5018C14.3041 31.6892 14.1521 31.8412 13.9647 31.8412C13.7773 31.8412 13.6254 31.6892 13.6254 31.5018Z" stroke="#111111" stroke-width="1.2"/>
<path d="M21.3177 29.4979V31.5018C21.3177 31.6892 21.1658 31.8412 20.9784 31.8412C20.791 31.8412 20.6391 31.6892 20.6391 31.5018V29.4979C20.6391 29.3105 20.791 29.1586 20.9784 29.1586C21.1658 29.1586 21.3177 29.3105 21.3177 29.4979Z" stroke="#111111" stroke-width="1.2"/>
<path d="M26.6508 29.4979C26.6508 29.3105 26.8027 29.1586 26.9901 29.1586C27.1775 29.1586 27.3295 29.3105 27.3295 29.4979V31.5018C27.3295 31.6892 27.1775 31.8412 26.9901 31.8412C26.8027 31.8412 26.6508 31.6892 26.6508 31.5018V29.4979Z" stroke="#111111" stroke-width="1.2"/>
<path d="M51.0526 15.6972C51.0526 18.0936 49.1019 20.0443 46.7055 20.0443H40.6937C38.2973 20.0443 36.3466 18.0936 36.3466 15.6972C36.3466 13.3007 38.2973 11.35 40.6937 11.35H46.7055C49.1019 11.35 51.0526 13.3007 51.0526 15.6972ZM40.6937 12.0287C38.6704 12.0287 37.0253 13.6739 37.0253 15.6972C37.0253 17.7205 38.6704 19.3657 40.6937 19.3657H46.7055C48.7288 19.3657 50.374 17.7205 50.374 15.6972C50.374 13.6739 48.7288 12.0287 46.7055 12.0287H40.6937Z" stroke="#111111" stroke-width="1.2"/>
<path d="M31.0536 34.9286L31.0534 34.9287C30.9763 34.982 30.9247 35.0649 30.9109 35.1575L30.9109 35.1577C30.7433 36.2815 30.6586 37.4103 30.6586 38.5122C30.6586 48.1345 36.6931 57.1056 44.917 59.8749C44.9522 59.8867 44.9888 59.8926 45.0253 59.8926C45.0618 59.8926 45.0985 59.8867 45.1341 59.8748L45.3252 60.4435M31.0536 34.9286L58.7322 34.876C58.8243 34.8563 58.9202 34.8755 58.9972 34.9287C59.0743 34.9821 59.1259 35.0649 59.1397 35.1578C59.3073 36.2815 59.3921 37.4103 59.3921 38.5122C59.3921 48.1345 53.3576 57.1056 45.1337 59.8749L45.3252 60.4435M31.0536 34.9286C31.1305 34.8754 31.2264 34.8563 31.3181 34.876L31.0536 34.9286ZM45.3252 60.4435C53.8238 57.5817 59.9921 48.3583 59.9921 38.5122C59.9921 37.3799 59.905 36.2215 59.7332 35.0692L30.7121 34.4352C30.4986 34.5829 30.3557 34.8125 30.3175 35.0692C30.1456 36.2215 30.0586 37.3799 30.0586 38.5122C30.0586 48.3583 36.2269 57.5817 44.7255 60.4435C44.8227 60.4762 44.924 60.4926 45.0253 60.4926C45.1266 60.4926 45.2278 60.4762 45.3252 60.4435ZM44.738 29.2196C44.8001 29.1208 44.9086 29.0609 45.0252 29.0609C45.1418 29.0609 45.2503 29.1208 45.3124 29.2196C47.6542 32.9415 51.6684 35.167 56.0467 35.167C56.9351 35.167 57.8383 35.0688 58.7319 34.8761L44.738 29.2196ZM44.738 29.2196L44.2301 28.9L44.738 29.2196ZM32.1387 35.7119L31.5221 35.624L31.4572 36.2435C31.3776 37.0046 31.3373 37.7642 31.3373 38.5122C31.3373 42.9825 32.7188 47.5247 35.2259 51.3098L35.7262 50.9784L35.226 51.3098C37.4583 54.6797 40.4792 57.2813 43.848 58.7371L44.686 59.0993V58.1864V32.13V30.6292L43.6514 31.7163C41.1566 34.3378 37.706 35.8457 34.0038 35.8457C33.3876 35.8457 32.7633 35.8009 32.1387 35.7119ZM45.3647 58.1865V59.0994L46.2027 58.7373C49.5716 57.2812 52.5924 54.6797 54.8247 51.3098L54.3245 50.9784L54.8247 51.3098C57.3319 47.5247 58.7134 42.9825 58.7134 38.5122C58.7134 37.7642 58.673 37.0046 58.5934 36.2435L58.5286 35.6241L57.9121 35.7119C57.2873 35.8008 56.6629 35.8457 56.0469 35.8457C52.3446 35.8457 48.8941 34.3378 46.3993 31.7163L45.3647 30.6292V32.13V58.1865Z" stroke="#111111" stroke-width="1.2"/>
</svg>
