<svg width="64" height="64" viewBox="0 0 64 64" fill="none" xmlns="http://www.w3.org/2000/svg">
<path d="M48 30.9336C39.1776 30.9336 32 38.1112 32 46.9336C32 55.756 39.1776 62.9336 48 62.9336C56.8224 62.9336 64 55.756 64 46.9336C64 38.1112 56.8224 30.9336 48 30.9336ZM48 60.8003C40.3536 60.8003 34.1333 54.58 34.1333 46.9336C34.1333 39.2872 40.3536 33.0669 48 33.0669C55.6464 33.0669 61.8667 39.2872 61.8667 46.9336C61.8667 54.58 55.6464 60.8003 48 60.8003Z" fill="#111111"/>
<path d="M0.667189 51.6552L28.3845 62.8488C28.3848 62.8489 28.385 62.8489 28.3853 62.849L28.4005 62.8552C28.5287 62.9068 28.6646 62.9328 28.8 62.9328C28.9354 62.9328 29.0708 62.9068 29.199 62.8552L29.2137 62.8492C29.2146 62.8489 29.2154 62.8486 29.2162 62.8482L35.2792 60.4021C35.8255 60.1818 36.0896 59.5604 35.8693 59.0141C35.6495 58.4682 35.0286 58.2031 34.4812 58.424L29.8667 60.2854V25.2524L55.4667 14.914V30.9432C55.4667 31.5323 55.9443 32.0099 56.5333 32.0099C57.1224 32.0099 57.6 31.5323 57.6 30.9432V13.3328C57.6 13.2016 57.5692 13.0778 57.5246 12.9596C57.511 12.9236 57.4932 12.892 57.4758 12.8579C57.4354 12.7777 57.3863 12.705 57.3271 12.6374C57.3019 12.6085 57.2792 12.5799 57.251 12.5539C57.1726 12.4816 57.0842 12.4215 56.985 12.3745C56.9692 12.3671 56.957 12.3551 56.9408 12.3484C56.9379 12.3473 56.9357 12.3449 56.9328 12.3438L29.1995 1.14375C28.9432 1.04062 28.6568 1.04062 28.4005 1.14375L0.667189 12.3438C0.664256 12.3449 0.662112 12.3473 0.659243 12.3484C0.643029 12.3551 0.630795 12.3671 0.614976 12.3746C0.515883 12.4215 0.427477 12.4816 0.349152 12.5538C0.320832 12.5799 0.298112 12.6085 0.272715 12.6374C0.213664 12.7049 0.164704 12.7776 0.124277 12.8577C0.106955 12.8919 0.088928 12.9236 0.0753173 12.9598C0.0307307 13.0779 0 13.2017 0 13.3328V50.6662C0 50.6688 0.00149333 50.671 0.00149333 50.6736C0.0024 50.7987 0.0315733 50.9193 0.0744747 51.0348C0.0800107 51.0498 0.0783147 51.0676 0.0845653 51.0824C0.129749 51.1889 0.200651 51.2826 0.278443 51.37C0.291989 51.3852 0.298101 51.4061 0.312491 51.4204C0.328437 51.4365 0.352597 51.444 0.369653 51.459C0.457088 51.5358 0.551168 51.6056 0.660469 51.6508C0.663083 51.6518 0.664587 51.6542 0.667189 51.6552ZM27.7333 60.2848L2.13333 49.9466V14.914L27.7333 25.2524V60.2848ZM28.8 3.28333L53.6849 13.3328L42.6667 17.7824L17.782 7.73282L28.8 3.28333ZM14.9333 8.88321L39.818 18.9328L28.8 23.3823L3.9151 13.3328L14.9333 8.88321Z" fill="#111111"/>
<path d="M54.0359 41.5501L48.338 45.4162L43.6687 37.5678C43.3671 37.0616 42.7129 36.8965 42.2067 37.1965C41.7004 37.4975 41.5343 38.1522 41.8353 38.6584L47.0833 47.4798C47.2333 47.7324 47.4812 47.9116 47.7682 47.9756C47.8447 47.9928 47.9228 48.0011 47.9999 48.0011C48.2119 48.0011 48.4208 47.9381 48.5989 47.8173L55.2338 43.3157C55.7213 42.985 55.8484 42.3215 55.5176 41.834C55.1869 41.3465 54.5223 41.2188 54.0359 41.5501Z" fill="#111111"/>
</svg>
