<svg width="64" height="64" viewBox="0 0 64 64" fill="none" xmlns="http://www.w3.org/2000/svg">
<path d="M14.1031 60.9583L14.1025 60.9587C13.2788 61.4658 12.6277 61.8667 11.1973 61.8667C9.76662 61.8667 9.11506 61.4656 8.2911 60.9583L57.7375 29.3168C57.8899 29.3552 58.0191 29.4545 58.095 29.5914L58.0953 29.5921C58.1715 29.7289 58.1874 29.891 58.1392 30.0408C58.1392 30.0408 58.1392 30.0409 58.1392 30.0409L48.3986 60.2348L48.2657 60.6468L48.6545 60.8373C49.001 61.0072 49.3122 61.194 49.621 61.3838L49.6377 61.3941C50.0393 61.6412 50.4452 61.8909 50.9378 62.072C51.446 62.2588 52.0269 62.3667 52.7937 62.3667C53.5605 62.3667 54.1414 62.2588 54.6496 62.072C55.1422 61.8909 55.5481 61.6412 55.9497 61.3941L55.9664 61.3838L55.9666 61.3837L55.9703 61.3814C56.8763 60.8246 57.8383 60.2333 59.7333 60.2333C60.0462 60.2333 60.3 60.4871 60.3 60.8C60.3 61.1129 60.0462 61.3667 59.7333 61.3667C58.9664 61.3667 58.3856 61.4745 57.8774 61.6614C57.3848 61.8425 56.9789 62.0922 56.5773 62.3392L56.5605 62.3495L56.5604 62.3496L56.5567 62.3519C55.6507 62.9088 54.6887 63.5 52.7937 63.5C50.8987 63.5 49.9367 62.9088 49.0307 62.3519L49.027 62.3496L49.0269 62.3495L49.0101 62.3392C48.6085 62.0922 48.2026 61.8425 47.71 61.6614C47.2018 61.4745 46.621 61.3667 45.8541 61.3667C45.088 61.3667 44.5077 61.4745 43.9998 61.6613C43.5082 61.8422 43.1029 62.0914 42.702 62.3379L42.6839 62.3491L42.6836 62.3493L42.6818 62.3503C41.7765 62.9079 40.8151 63.5 38.9197 63.5C37.0282 63.5 36.0679 62.9091 35.1632 62.3525L35.1579 62.3492L35.1578 62.3492L35.1402 62.3383C34.7397 62.0917 34.3347 61.8423 33.8434 61.6614C33.336 61.4746 32.7563 61.3667 31.9911 61.3667C31.2252 61.3667 30.645 61.4746 30.1372 61.6613C29.6457 61.8422 29.2404 62.0914 28.8395 62.3379L28.8214 62.3491L28.8211 62.3493L28.8187 62.3507C27.9135 62.9082 26.9526 63.5 25.0583 63.5C23.1645 63.5 22.2036 62.9082 21.2984 62.3507L21.296 62.3493L21.2959 62.3492L21.279 62.3388C20.8782 62.092 20.4728 61.8424 19.9809 61.6614C19.4733 61.4746 18.8932 61.3667 18.1276 61.3667C17.5467 61.3667 17.0717 61.4293 16.6523 61.5421L16.6383 61.5459L16.6268 61.5497C15.9601 61.7334 15.4655 62.0379 14.9677 62.3443L14.9598 62.3492L14.9597 62.3492L14.9551 62.352C14.0503 62.9088 13.0895 63.5 11.1973 63.5C9.30472 63.5 8.34391 62.9088 7.4391 62.3521L7.43448 62.3492L7.43437 62.3492L7.41677 62.3383C7.01625 62.0917 6.6112 61.8423 6.11976 61.6614C5.61226 61.4746 5.03225 61.3667 4.26662 61.3667C3.95369 61.3667 3.69995 61.1129 3.69995 60.8C3.69995 60.4871 3.95369 60.2333 4.26662 60.2333C6.16041 60.2333 7.12126 60.8251 8.02651 61.3826L8.0289 61.3841L8.02896 61.3841L8.0458 61.3945C8.44666 61.6413 8.85206 61.8909 9.34399 62.072C9.8516 62.2588 10.4317 62.3667 11.1973 62.3667C11.963 62.3667 12.543 62.2588 13.0505 62.072C13.5419 61.891 13.947 61.6416 14.3475 61.395L14.3651 61.3842M14.1031 60.9583L14.3651 61.3842M14.1031 60.9583C14.4169 60.7652 14.7488 60.5649 15.1234 60.3821L14.1031 60.9583ZM14.3651 61.3842C14.6776 61.1919 14.9917 61.0027 15.3427 60.8314L15.7323 60.6412L15.5992 60.2286L5.86074 30.0409C5.81247 29.8911 5.82838 29.729 5.90456 29.5921L5.90493 29.5914C5.98091 29.4544 6.11025 29.355 6.26277 29.3167L11.8546 27.9188L12.2333 27.8241V27.4337V16C12.2333 15.6871 12.487 15.4333 12.8 15.4333H18.1333H18.6333V14.9333V7.46667C18.6333 7.15374 18.887 6.9 19.2 6.9H22.4H22.9V6.4V1.06667C22.9 0.753743 23.1537 0.5 23.4666 0.5H40.5333C40.8462 0.5 41.1 0.753742 41.1 1.06667V6.4V6.9H41.6H44.8C45.1129 6.9 45.3666 7.15374 45.3666 7.46667V14.9333V15.4333H45.8666H51.2C51.5129 15.4333 51.7666 15.6871 51.7666 16V27.4337V27.8241L52.1454 27.9188L57.7371 29.3167L14.3651 61.3842ZM24.5333 1.63333H24.0333V2.13333V6.4V6.9H24.5333H39.4666H39.9666V6.4V2.13333V1.63333H39.4666H24.5333ZM20.2666 8.03333H19.7666V8.53333V14.9333V15.4333H20.2666H43.7333H44.2333V14.9333V8.53333V8.03333H43.7333H20.2666ZM13.8666 16.5667H13.3666V17.0667V26.9004V27.5408L13.9879 27.3855L31.8624 22.9168L31.8631 22.9167C31.9528 22.8941 32.0471 22.8941 32.1368 22.9167L32.1375 22.9168L50.012 27.3855L50.6333 27.5408V26.9004V17.0667V16.5667H50.1333H13.8666ZM7.6443 30.1399L7.12556 30.2696L7.28972 30.7785L16.6989 59.9459L16.8249 60.3366L17.2327 60.289C17.5141 60.2562 17.8042 60.2333 18.1276 60.2333C20.0202 60.2333 20.981 60.8245 21.8858 61.3813L21.8904 61.3841L21.8905 61.3842L21.908 61.395C22.3086 61.6416 22.7137 61.891 23.2052 62.072C23.7127 62.2588 24.2927 62.3667 25.0583 62.3667C25.8242 62.3667 26.4043 62.2588 26.9119 62.072C27.403 61.8913 27.808 61.6422 28.2086 61.3959L28.2275 61.3843L28.2276 61.3842L28.2324 61.3812C29.1372 60.8245 30.098 60.2333 31.9911 60.2333C33.8832 60.2333 34.844 60.8249 35.7485 61.3817L35.7524 61.3841L35.7701 61.395C36.1706 61.6416 36.5757 61.891 37.067 62.0719C37.5745 62.2588 38.1543 62.3667 38.9197 62.3667C39.6859 62.3667 40.2662 62.2588 40.7741 62.072C41.2657 61.8912 41.671 61.6419 42.0719 61.3954L42.09 61.3843L42.0903 61.3841L42.092 61.383C42.9974 60.8254 43.9588 60.2333 45.8541 60.2333C46.184 60.2333 46.4794 60.2571 46.7655 60.2911L47.174 60.3396L47.3004 59.9481L56.7102 30.7785L56.8743 30.2696L56.3556 30.1399L33.1879 24.3477L32.5666 24.1924V24.8328V44.8C32.5666 45.1129 32.3129 45.3667 32 45.3667C31.687 45.3667 31.4333 45.1129 31.4333 44.8V24.8328V24.1924L30.812 24.3477L7.6443 30.1399ZM16.7646 61.5292C16.7654 61.5291 16.7658 61.5291 16.7654 61.5291L16.7646 61.5292Z" fill="#111111" stroke="black"/>
</svg>
