<svg width="48" height="48" fill="none" xmlns="http://www.w3.org/2000/svg"><g clip-path="url(#a)" fill="#000"><path d="M16 8a8 8 0 1 0 0 16 8 8 0 0 0 0-16Zm0 14a6 6 0 1 1 0-12 6 6 0 0 1 0 12Z"/><path d="M45 44H7a3 3 0 0 1 0-6h35a6 6 0 1 0 0-12H32V16A16.018 16.018 0 0 0 16 0H8a8 8 0 0 0-8 8v22a2 2 0 0 0 2 2h28a2 2 0 0 0 2-2v-2h10a4 4 0 1 1 0 8H7a5 5 0 0 0 0 10h38a1 1 0 0 1 1 1 1 1 0 0 0 2 0 3 3 0 0 0-3-3ZM30 30H2V8a6 6 0 0 1 6-6h8a14.016 14.016 0 0 1 14 14v14Z"/></g><defs><clipPath id="a"><path fill="#fff" d="M0 0h48v48H0z"/></clipPath></defs></svg>