<svg width="46" height="32" viewBox="0 0 46 32" fill="none" xmlns="http://www.w3.org/2000/svg">
<rect width="46" height="32" rx="4" fill="white"/>
<path fill-rule="evenodd" clip-rule="evenodd" d="M21.7247 21.0061V16.9781H23.7739C24.6136 16.9781 25.3223 16.6927 25.9001 16.1297L26.0388 15.987C27.0942 14.8214 27.0249 13.0057 25.9001 11.9273C25.3377 11.3565 24.5674 11.0472 23.7739 11.0631H20.4844V21.0061H21.7247ZM21.7246 15.755V12.2821H23.805C24.2518 12.2821 24.6756 12.4565 24.9915 12.7737C25.6619 13.4397 25.6773 14.5498 25.03 15.2396C24.7141 15.5805 24.2673 15.7708 23.805 15.755H21.7246ZM31.8254 14.7353C31.2939 14.2357 30.5697 13.982 29.653 13.982C28.4743 13.982 27.5883 14.426 27.0029 15.3062L28.0968 16.0118C28.4974 15.4092 29.0444 15.1079 29.7377 15.1079C30.1768 15.1079 30.6005 15.2744 30.9318 15.5757C31.2553 15.8612 31.4402 16.2735 31.4402 16.7096V17.003C30.9626 16.7334 30.3617 16.5907 29.6221 16.5907C28.7593 16.5907 28.066 16.7968 27.5498 17.2171C27.0337 17.6373 26.7717 18.1923 26.7717 18.898C26.7563 19.5403 27.026 20.1508 27.5036 20.5631C27.9889 21.0071 28.6052 21.2291 29.3294 21.2291C30.1845 21.2291 30.8624 20.8406 31.3786 20.0636H31.4325V21.0071H32.6189V16.8127C32.6189 15.9326 32.357 15.2348 31.8254 14.7353ZM28.4585 19.7532C28.2042 19.5629 28.0501 19.2537 28.0501 18.9207C28.0501 18.548 28.2196 18.2388 28.5509 17.993C28.89 17.7472 29.3137 17.6203 29.8146 17.6203C30.508 17.6124 31.0473 17.771 31.4326 18.0881C31.4326 18.6273 31.2246 19.0951 30.8162 19.4916C30.4464 19.8722 29.9455 20.0862 29.4216 20.0862C29.0749 20.0942 28.7359 19.9752 28.4585 19.7532ZM35.282 23.9973L39.4267 14.205H38.0785L36.1603 19.0892H36.1372L34.1727 14.205H32.8245L35.544 20.572L34.0032 23.9973H35.282Z" fill="#3C4043"/>
<path d="M17.4405 16.1069C17.4405 15.7183 17.4097 15.3298 17.348 14.9492H12.1172V17.1456H15.114C14.9907 17.8512 14.5901 18.4856 14.0046 18.882V20.3092H15.7919C16.8396 19.3181 17.4405 17.8512 17.4405 16.1069Z" fill="#4285F4"/>
<path d="M12.1176 21.6948C13.6121 21.6948 14.8755 21.1873 15.7923 20.3151L14.005 18.8879C13.5043 19.2368 12.8648 19.435 12.1176 19.435C10.6693 19.435 9.44438 18.428 9.00526 17.0801H7.16406V18.5549C8.10392 20.4816 10.0222 21.6948 12.1176 21.6948Z" fill="#34A853"/>
<path d="M9.00702 17.0752C8.77587 16.3695 8.77587 15.6004 9.00702 14.8868V13.4199H7.16552C6.37191 15.0295 6.37191 16.9325 7.16552 18.5421L9.00702 17.0752Z" fill="#FBBC04"/>
<path d="M12.1176 12.5336C12.9111 12.5177 13.6737 12.8269 14.2438 13.3899L15.8308 11.7565C14.8216 10.7892 13.4966 10.2579 12.1176 10.2738C10.0222 10.2738 8.10392 11.4949 7.16406 13.4216L9.00526 14.8964C9.44438 13.5405 10.6693 12.5336 12.1176 12.5336Z" fill="#EA4335"/>
</svg>
