<svg width="46" height="32" viewBox="0 0 46 32" fill="none" xmlns="http://www.w3.org/2000/svg">
<rect width="46" height="32" rx="4" fill="white"/>
<path fill-rule="evenodd" clip-rule="evenodd" d="M30.1726 10.4375C29.4288 10.4375 28.8248 11.0471 28.8248 11.7986C28.8248 12.5506 29.4288 13.1588 30.1726 13.1588C30.9176 13.1588 31.5212 12.5506 31.5212 11.7986C31.5212 11.0471 30.9176 10.4375 30.1726 10.4375ZM10.7289 14.9986C10.3833 14.9761 9.58258 14.9234 9.58258 14.1963C9.58258 13.3188 10.7346 13.3188 11.1669 13.3188C11.9273 13.3188 12.9111 13.5451 13.6146 13.7577C13.6146 13.7577 14.0062 13.8974 14.3395 14.0398L14.3706 14.0486V11.6451L14.329 11.6323C13.4985 11.3392 12.5344 11.0576 10.746 11.0576C7.66274 11.0576 6.57031 12.8696 6.57031 14.4235C6.57031 15.3182 6.95051 17.426 10.4805 17.6687L10.4838 17.6689C10.7863 17.6876 11.5751 17.7364 11.5751 18.4851C11.5751 19.1058 10.9247 19.4709 9.83094 19.4709C8.63252 19.4709 7.46913 19.1633 6.76304 18.8702V21.3448C7.82042 21.6255 9.01272 21.7644 10.41 21.7644C13.4236 21.7644 14.7744 20.0496 14.7744 18.3494C14.7744 16.4225 13.2637 15.1701 10.7289 14.9986ZM19.8276 13.9304L19.8415 13.8939H23.0697C22.9777 14.1905 22.4017 15.9804 21.0885 17.6611C21.0885 17.6611 22.5511 20.2476 22.8853 21.6507H19.5051C19.5051 21.6507 19.1012 19.7879 18.2839 18.5501V21.6507H15.4612V11.6212L18.2839 11.0576V16.5913C19.284 15.3705 19.7296 14.1898 19.8276 13.9304ZM36.6925 21.6507V11.5514L39.4279 11.0576V21.6507H36.6925ZM27.2612 13.7887C24.7343 13.8709 23.4504 15.0158 23.4504 17.2916V21.6503H26.2082V18.0952C26.2082 16.7332 26.3852 16.1493 27.987 16.0936V13.8289C27.7176 13.771 27.2612 13.7887 27.2612 13.7887ZM28.8041 21.6478V13.8998H31.5391V21.6478H28.8041ZM32.6979 11.5514L35.4316 11.0576V21.6507H32.6979V11.5514Z" fill="#862165"/>
</svg>
