<svg width="46" height="32" viewBox="0 0 46 32" fill="none" xmlns="http://www.w3.org/2000/svg">
<rect width="46" height="32" rx="4" fill="white"/>
<path fill-rule="evenodd" clip-rule="evenodd" d="M24.7149 10.8579L22.3781 11.3666V9.44465L24.7149 8.94531V10.8579ZM15.2177 10.0357L12.9462 10.5256L12.9368 18.0721C12.9368 19.4665 13.9702 20.4934 15.348 20.4934C16.1114 20.4934 16.67 20.3521 16.9772 20.1825V18.27C16.6793 18.3924 15.2084 18.8258 15.2084 17.4315V14.0869H16.9772V12.0801H15.2084L15.2177 10.0357ZM40.0847 16.2367C40.0847 13.8249 38.9303 11.9218 36.724 11.9218C34.5083 11.9218 33.1677 13.8249 33.1677 16.2179C33.1677 19.0537 34.7504 20.4858 37.0219 20.4858C38.1297 20.4858 38.9676 20.2314 39.6006 19.8734V17.9891C38.9676 18.3094 38.2414 18.5073 37.3198 18.5073C36.4168 18.5073 35.6161 18.187 35.5137 17.0752H40.0661C40.0661 17.0233 40.0695 16.9054 40.0733 16.7694C40.0785 16.5848 40.0847 16.367 40.0847 16.2367ZM35.4854 15.3412C35.4854 14.2766 36.1278 13.8338 36.7143 13.8338C37.2822 13.8338 37.8873 14.2766 37.8873 15.3412H35.4854ZM9.71695 13.9663C9.22354 13.9663 8.92563 14.1076 8.92563 14.4751C8.92563 14.8762 9.43833 15.0527 10.0744 15.2717C11.1113 15.6286 12.4761 16.0984 12.4819 17.8385C12.4819 19.5249 11.1506 20.4953 9.21423 20.4953C8.41361 20.4953 7.53851 20.3352 6.67272 19.9583V17.716C7.45472 18.1494 8.44154 18.4697 9.21423 18.4697C9.73557 18.4697 10.1079 18.3284 10.1079 17.895C10.1079 17.4507 9.55217 17.2475 8.8812 17.0023C7.85934 16.6289 6.57031 16.1578 6.57031 14.5881C6.57031 12.9205 7.8271 11.9219 9.71695 11.9219C10.4896 11.9219 11.253 12.0444 12.0257 12.3553V14.5693C11.3182 14.183 10.4245 13.9663 9.71695 13.9663ZM19.8742 12.7785L19.7252 12.0813H17.7143V20.325H20.0417V14.7381C20.591 14.0127 21.5219 14.1446 21.8105 14.2482V12.0813C21.5126 11.9682 20.4234 11.7609 19.8742 12.7785ZM22.3781 12.0821H24.7149V20.3258H22.3781V12.0821ZM27.7484 12.6566C28.0742 12.3551 28.6607 11.9218 29.573 11.9218C31.2022 11.9218 32.7383 13.4103 32.7476 16.1425C32.7476 19.1291 31.2301 20.4858 29.5637 20.4858C28.7445 20.4858 28.2511 20.1372 27.9159 19.8923L27.9066 22.5585L25.5792 23.0578V12.0725H27.6273L27.7484 12.6566ZM27.9166 17.9716C28.14 18.2166 28.4658 18.4144 29.0151 18.4144C29.8716 18.4144 30.4488 17.4723 30.4488 16.2098C30.4488 14.9756 29.8623 14.0146 29.0151 14.0146C28.4845 14.0146 28.1493 14.2031 27.9073 14.4763L27.9166 17.9716Z" fill="#6461FC"/>
</svg>
