<svg width="46" height="32" viewBox="0 0 46 32" fill="none" xmlns="http://www.w3.org/2000/svg">
<rect width="46" height="32" rx="4" fill="white"/>
<path fill-rule="evenodd" clip-rule="evenodd" d="M13.9644 21.6777H11.1777L9.088 13.5898C8.98882 13.2178 8.77822 12.8889 8.46843 12.7339C7.69533 12.3443 6.84342 12.0343 5.91406 11.8779V11.5665H10.4032C11.0228 11.5665 11.4875 12.0343 11.5649 12.5775L12.6492 18.4115L15.4345 11.5665H18.1438L13.9644 21.6777ZM19.6925 21.6777H17.0607L19.2278 11.5665H21.8596L19.6925 21.6777ZM25.2659 14.3683C25.3434 13.8237 25.808 13.5123 26.3502 13.5123C27.2021 13.4341 28.1301 13.5905 28.9045 13.9787L29.3692 11.8017C28.5948 11.4903 27.7428 11.334 26.9697 11.334C24.4154 11.334 22.5567 12.7345 22.5567 14.6783C22.5567 16.157 23.8732 16.9335 24.8026 17.4012C25.808 17.8676 26.1953 18.179 26.1178 18.6454C26.1178 19.345 25.3434 19.6564 24.5703 19.6564C23.6409 19.6564 22.7115 19.4232 21.861 19.0336L21.3963 21.2119C22.3257 21.6001 23.3311 21.7565 24.2605 21.7565C27.1246 21.8333 28.9045 20.4341 28.9045 18.334C28.9045 15.6893 25.2659 15.5343 25.2659 14.3683ZM38.1129 21.6777L36.0232 11.5665H33.7787C33.314 11.5665 32.8493 11.8779 32.6944 12.3443L28.8248 21.6777H31.5341L32.0748 20.2003H35.4037L35.7135 21.6777H38.1129ZM34.1669 14.2899L34.94 18.1006H32.7729L34.1669 14.2899Z" fill="#172B85"/>
</svg>
