<svg width="36" height="36" viewBox="0 0 36 36" fill="none" xmlns="http://www.w3.org/2000/svg">
<g clip-path="url(#clip0_53_654)">
<mask id="path-1-inside-1_53_654" fill="white">
<path d="M27 17.3984C22.0374 17.3984 18 21.4358 18 26.3984C18 31.361 22.0374 35.3984 27 35.3984C31.9626 35.3984 36 31.361 36 26.3984C36 21.4358 31.9626 17.3984 27 17.3984ZM27 34.1984C22.6989 34.1984 19.2 30.6995 19.2 26.3984C19.2 22.0974 22.6989 18.5984 27 18.5984C31.3011 18.5984 34.8 22.0974 34.8 26.3984C34.8 30.6995 31.3011 34.1984 27 34.1984Z"/>
</mask>
<path d="M27 16.1984C21.3747 16.1984 16.8 20.7731 16.8 26.3984H19.2C19.2 22.0986 22.7001 18.5984 27 18.5984V16.1984ZM16.8 26.3984C16.8 32.0238 21.3747 36.5984 27 36.5984V34.1984C22.7001 34.1984 19.2 30.6983 19.2 26.3984H16.8ZM27 36.5984C32.6253 36.5984 37.2 32.0238 37.2 26.3984H34.8C34.8 30.6983 31.2999 34.1984 27 34.1984V36.5984ZM37.2 26.3984C37.2 20.7731 32.6253 16.1984 27 16.1984V18.5984C31.2999 18.5984 34.8 22.0986 34.8 26.3984H37.2ZM27 32.9984C23.3617 32.9984 20.4 30.0368 20.4 26.3984H18C18 31.3623 22.0362 35.3984 27 35.3984V32.9984ZM20.4 26.3984C20.4 22.7601 23.3617 19.7984 27 19.7984V17.3984C22.0362 17.3984 18 21.4346 18 26.3984H20.4ZM27 19.7984C30.6383 19.7984 33.6 22.7601 33.6 26.3984H36C36 21.4346 31.9638 17.3984 27 17.3984V19.7984ZM33.6 26.3984C33.6 30.0368 30.6383 32.9984 27 32.9984V35.3984C31.9638 35.3984 36 31.3623 36 26.3984H33.6Z" fill="#111111" mask="url(#path-1-inside-1_53_654)"/>
<mask id="path-3-inside-2_53_654" fill="white">
<path d="M0.375294 29.0578L15.9663 35.3541C15.9664 35.3542 15.9666 35.3542 15.9667 35.3543L15.9753 35.3578C16.0474 35.3868 16.1238 35.4014 16.2 35.4014C16.2762 35.4014 16.3523 35.3868 16.4244 35.3578L16.4327 35.3544C16.4332 35.3542 16.4336 35.354 16.4341 35.3538L19.8445 33.9779C20.1519 33.854 20.3004 33.5044 20.1765 33.1971C20.0528 32.8901 19.7036 32.741 19.3957 32.8652L16.8 33.9122V14.2062L31.2 8.39083V17.4073C31.2 17.7386 31.4686 18.0073 31.8 18.0073C32.1313 18.0073 32.4 17.7386 32.4 17.4073V7.50142C32.4 7.42762 32.3827 7.35798 32.3576 7.29151C32.3499 7.27122 32.3399 7.25346 32.3302 7.23427C32.3074 7.18919 32.2798 7.14825 32.2465 7.11023C32.2323 7.09397 32.2195 7.0779 32.2037 7.06328C32.1596 7.02259 32.1099 6.98879 32.054 6.96239C32.0452 6.95821 32.0383 6.95148 32.0292 6.9477C32.0276 6.94704 32.0264 6.94572 32.0247 6.94507L16.4247 0.645069C16.2806 0.587061 16.1194 0.587061 15.9753 0.645069L0.375294 6.94507C0.373644 6.94573 0.372438 6.94705 0.370824 6.9477C0.361704 6.95148 0.354822 6.95821 0.345924 6.96243C0.290184 6.9888 0.240456 7.02263 0.196398 7.06324C0.180468 7.07789 0.167688 7.09397 0.153402 7.11027C0.120186 7.1482 0.092646 7.18911 0.069906 7.23415C0.060162 7.25338 0.050022 7.27125 0.042366 7.29161C0.017286 7.35805 0 7.42767 0 7.50142V28.5014C0 28.5029 0.00084 28.5041 0.00084 28.5056C0.00135 28.576 0.01776 28.6438 0.041892 28.7088C0.045006 28.7172 0.044052 28.7273 0.047568 28.7355C0.072984 28.7955 0.112866 28.8481 0.156624 28.8973C0.164244 28.9059 0.167682 28.9176 0.175776 28.9257C0.184746 28.9347 0.198336 28.939 0.20793 28.9474C0.257112 28.9906 0.310032 29.0299 0.371514 29.0553C0.372984 29.0559 0.37383 29.0572 0.375294 29.0578ZM15.6 33.9119L1.2 28.0966V8.39083L15.6 14.2062V33.9119ZM16.2 1.84858L30.1978 7.50142L24 10.0043L10.0024 4.35142L16.2 1.84858ZM8.4 4.99851L22.3976 10.6514L16.2 13.1543L2.20225 7.50142L8.4 4.99851Z"/>
</mask>
<path d="M0.375294 29.0578L0.824651 27.9451L0.822536 27.9442L0.375294 29.0578ZM15.9663 35.3541L16.5029 34.2808L16.4601 34.2594L16.4156 34.2415L15.9663 35.3541ZM15.9667 35.3543L15.4301 36.4276L15.4719 36.4485L15.5153 36.4661L15.9667 35.3543ZM15.9753 35.3578L15.5238 36.4696L15.5272 36.471L15.9753 35.3578ZM16.4244 35.3578L16.8724 36.471L16.8755 36.4698L16.4244 35.3578ZM16.4327 35.3544L15.9943 34.2373L15.9816 34.2424L16.4327 35.3544ZM16.4341 35.3538L16.8725 36.471L16.8831 36.4667L16.4341 35.3538ZM19.8445 33.9779L19.3958 32.865L19.3955 32.865L19.8445 33.9779ZM20.1765 33.1971L19.0633 33.6453L19.0635 33.6459L20.1765 33.1971ZM19.3957 32.8652L19.8446 33.9781L19.8446 33.978L19.3957 32.8652ZM16.8 33.9122H15.6V35.6902L17.2489 35.0251L16.8 33.9122ZM16.8 14.2062L16.3506 13.0935L15.6 13.3966V14.2062H16.8ZM31.2 8.39083H32.4V6.61206L30.7506 7.27814L31.2 8.39083ZM32.3576 7.29151L31.2349 7.71522L31.2349 7.71523L32.3576 7.29151ZM32.3302 7.23427L31.2588 7.77475L31.2602 7.77761L32.3302 7.23427ZM32.2465 7.11023L31.3429 7.89982L31.3433 7.90027L32.2465 7.11023ZM32.2037 7.06328L31.3899 7.94521L31.3904 7.94566L32.2037 7.06328ZM32.054 6.96239L32.5672 5.87762L32.5656 5.87687L32.054 6.96239ZM32.0292 6.9477L32.4883 5.83899L32.4834 5.83698L32.0292 6.9477ZM32.0247 6.94507L31.5753 8.05778L31.5825 8.06063L32.0247 6.94507ZM16.4247 0.645069L16.8741 -0.467623L16.8727 -0.468161L16.4247 0.645069ZM15.9753 0.645069L15.5273 -0.468162L15.5259 -0.467622L15.9753 0.645069ZM0.375294 6.94507L0.820965 8.05925L0.82465 8.05776L0.375294 6.94507ZM0.370824 6.9477L-0.0798425 5.83551L-0.0880197 5.83889L0.370824 6.9477ZM0.345924 6.96243L0.859101 8.04716L0.859345 8.04705L0.345924 6.96243ZM0.196398 7.06324L1.00858 7.94663L1.00974 7.94556L0.196398 7.06324ZM0.153402 7.11027L-0.748949 6.31921L-0.749451 6.31979L0.153402 7.11027ZM0.069906 7.23415L1.14026 7.77668L1.14113 7.77497L0.069906 7.23415ZM0.042366 7.29161L1.16504 7.71541L1.16557 7.71401L0.042366 7.29161ZM0.00084 28.5056H-1.19919L-1.19913 28.5143L0.00084 28.5056ZM0.041892 28.7088L1.16803 28.2943L1.16671 28.2907L0.041892 28.7088ZM0.047568 28.7355L1.15237 28.2671L1.15211 28.2665L0.047568 28.7355ZM0.156624 28.8973L-0.739901 29.695L-0.73839 29.6967L0.156624 28.8973ZM0.175776 28.9257L1.026 28.0789L1.0243 28.0772L0.175776 28.9257ZM0.20793 28.9474L0.999979 28.0459L0.999691 28.0457L0.20793 28.9474ZM0.371514 29.0553L-0.0869561 30.1643L-0.0741549 30.1694L0.371514 29.0553ZM15.6 33.9119L15.1507 35.0246L16.8 35.6907V33.9119H15.6ZM1.2 28.0966H-1.19209e-07V28.9062L0.750651 29.2093L1.2 28.0966ZM1.2 8.39083L1.64935 7.27814L-1.19209e-07 6.61206V8.39083H1.2ZM15.6 14.2062H16.8V13.3966L16.0494 13.0935L15.6 14.2062ZM16.2 1.84858L16.6493 0.735891L16.2 0.554428L15.7507 0.73589L16.2 1.84858ZM30.1978 7.50142L30.6471 8.61411L33.4024 7.50142L30.6471 6.38873L30.1978 7.50142ZM24 10.0043L23.5506 11.117L24 11.2985L24.4493 11.117L24 10.0043ZM10.0024 4.35142L9.55301 3.23872L6.79773 4.3514L9.553 5.46411L10.0024 4.35142ZM8.4 4.99851L8.84936 3.88582L8.4 3.70435L7.95065 3.88582L8.4 4.99851ZM22.3976 10.6514L22.847 11.7641L25.6023 10.6514L22.847 9.53873L22.3976 10.6514ZM16.2 13.1543L15.7507 14.2669L16.2 14.4484L16.6493 14.2669L16.2 13.1543ZM2.20225 7.50142L1.7529 6.38873L-1.00239 7.50142L1.7529 8.61411L2.20225 7.50142ZM-0.0740623 30.1705L15.5169 36.4668L16.4156 34.2415L0.82465 27.9451L-0.0740623 30.1705ZM15.4296 36.4275C15.5044 36.4648 15.5694 36.4875 15.6132 36.501C15.6348 36.5077 15.6526 36.5125 15.6635 36.5153C15.6691 36.5168 15.6736 36.5179 15.6763 36.5186C15.6777 36.5189 15.6788 36.5192 15.6795 36.5194C15.6799 36.5195 15.6802 36.5196 15.6803 36.5196C15.6804 36.5196 15.6805 36.5196 15.6805 36.5196C15.6806 36.5196 15.6806 36.5196 15.6806 36.5197C15.6806 36.5197 15.6806 36.5197 15.6806 36.5197C15.6806 36.5197 15.6806 36.5197 15.6806 36.5197C15.681 36.5197 15.6788 36.5192 15.6764 36.5186C15.6736 36.5179 15.6691 36.5168 15.6636 36.5154C15.6527 36.5125 15.635 36.5077 15.6134 36.5011C15.5697 36.4876 15.5047 36.4649 15.4301 36.4276L16.5034 34.281C16.4286 34.2436 16.3636 34.2209 16.3198 34.2074C16.2982 34.2007 16.2804 34.1959 16.2695 34.1931C16.2639 34.1916 16.2594 34.1905 16.2567 34.1898C16.2553 34.1895 16.2542 34.1892 16.2535 34.189C16.2531 34.1889 16.2528 34.1889 16.2527 34.1888C16.2526 34.1888 16.2525 34.1888 16.2525 34.1888C16.2524 34.1888 16.2524 34.1888 16.2524 34.1888C16.2524 34.1888 16.2524 34.1888 16.2524 34.1888C16.2524 34.1888 16.2524 34.1888 16.2524 34.1888C16.252 34.1887 16.2542 34.1892 16.2566 34.1898C16.2594 34.1905 16.2639 34.1916 16.2694 34.1931C16.2803 34.1959 16.298 34.2007 16.3196 34.2073C16.3633 34.2208 16.4283 34.2435 16.5029 34.2808L15.4296 36.4275ZM15.5153 36.4661L15.5238 36.4696L16.4267 34.2459L16.4182 34.2424L15.5153 36.4661ZM15.5272 36.471C15.7419 36.5574 15.9705 36.6014 16.2 36.6014V34.2014C16.2772 34.2014 16.3528 34.2162 16.4233 34.2445L15.5272 36.471ZM16.2 36.6014C16.4301 36.6014 16.6583 36.5572 16.8724 36.471L15.9764 34.2445C16.0464 34.2164 16.1222 34.2014 16.2 34.2014V36.6014ZM16.8755 36.4698L16.8838 36.4664L15.9816 34.2424L15.9733 34.2458L16.8755 36.4698ZM16.8711 36.4715C16.873 36.4707 16.8747 36.4701 16.8757 36.4696C16.8763 36.4694 16.8767 36.4692 16.877 36.4691C16.8773 36.469 16.8776 36.4689 16.8776 36.4689C16.8782 36.4686 16.8756 36.4697 16.8725 36.4709L15.9958 34.2368C15.9938 34.2375 15.9922 34.2382 15.9911 34.2386C15.9905 34.2388 15.9901 34.239 15.9898 34.2391C15.9895 34.2392 15.9893 34.2393 15.9893 34.2393C15.9886 34.2396 15.9912 34.2386 15.9944 34.2373L16.8711 36.4715ZM16.8831 36.4667L20.2935 35.0907L19.3955 32.865L15.9851 34.241L16.8831 36.4667ZM20.2933 35.0908C21.2156 34.7189 21.661 33.67 21.2894 32.7483L19.0635 33.6459C18.9397 33.3389 19.0881 32.989 19.3958 32.865L20.2933 35.0908ZM21.2896 32.7489C20.9185 31.8272 19.87 31.3799 18.9467 31.7523L19.8446 33.978C19.5372 34.1021 19.1872 33.9529 19.0633 33.6453L21.2896 32.7489ZM18.9468 31.7523L16.3511 32.7994L17.2489 35.0251L19.8446 33.9781L18.9468 31.7523ZM18 33.9122V14.2062H15.6V33.9122H18ZM17.2494 15.3189L31.6494 9.50353L30.7506 7.27814L16.3506 13.0935L17.2494 15.3189ZM30 8.39083V17.4073H32.4V8.39083H30ZM30 17.4073C30 18.4014 30.8059 19.2073 31.8 19.2073V16.8073C32.1314 16.8073 32.4 17.0759 32.4 17.4073H30ZM31.8 19.2073C32.7941 19.2073 33.6 18.4014 33.6 17.4073H31.2C31.2 17.0759 31.4686 16.8073 31.8 16.8073V19.2073ZM33.6 17.4073V7.50142H31.2V17.4073H33.6ZM33.6 7.50142C33.6 7.23804 33.5378 7.0202 33.4803 6.86778L31.2349 7.71523C31.2275 7.69575 31.2 7.61721 31.2 7.50142H33.6ZM33.4803 6.8678C33.4564 6.80458 33.4324 6.75475 33.4182 6.72623C33.4112 6.71235 33.405 6.70037 33.4025 6.69546C33.3987 6.68827 33.3994 6.68963 33.4001 6.69093L31.2602 7.77761C31.2657 7.7885 31.2714 7.79928 31.2725 7.80145C31.2748 7.8059 31.2734 7.80323 31.2711 7.79873C31.2663 7.78895 31.2511 7.75815 31.2349 7.71522L33.4803 6.8678ZM33.4016 6.69379C33.3331 6.5581 33.2488 6.43341 33.1498 6.32019L31.3433 7.90027C31.3108 7.86308 31.2817 7.82028 31.2588 7.77474L33.4016 6.69379ZM33.1501 6.32064C33.1515 6.32214 33.1525 6.3234 33.1475 6.31758C33.1442 6.31367 33.1355 6.30348 33.1254 6.29205C33.1047 6.26861 33.0672 6.22722 33.0169 6.1809L31.3904 7.94566C31.356 7.91396 31.3328 7.88791 31.326 7.88023C31.3229 7.87667 31.321 7.87447 31.3246 7.8786C31.3265 7.88082 31.3345 7.89019 31.3429 7.89982L33.1501 6.32064ZM33.0174 6.18135C32.8848 6.05893 32.7338 5.95647 32.5672 5.87762L31.5409 8.04716C31.4859 8.02111 31.4344 7.98625 31.3899 7.94521L33.0174 6.18135ZM32.5656 5.87687C32.6209 5.90294 32.6627 5.92809 32.686 5.94272C32.6978 5.9501 32.7067 5.95605 32.7108 5.95878C32.7132 5.96037 32.7181 5.96364 32.7129 5.96019C32.7105 5.95854 32.7025 5.95314 32.6925 5.94662C32.682 5.93985 32.667 5.9303 32.6487 5.91941C32.6121 5.89765 32.5575 5.86767 32.4883 5.839L31.5701 8.05641C31.5054 8.02962 31.4551 8.0019 31.4226 7.98259C31.4064 7.97293 31.3934 7.96466 31.385 7.9592C31.3769 7.95398 31.3709 7.94991 31.3705 7.9496C31.3702 7.94946 31.3701 7.94937 31.3704 7.94954C31.3705 7.94963 31.3711 7.95002 31.3717 7.95043C31.3729 7.95125 31.3754 7.95296 31.3785 7.95503C31.3846 7.95909 31.3956 7.96635 31.4094 7.97501C31.4367 7.9922 31.4828 8.01975 31.5425 8.04791L32.5656 5.87687ZM32.4834 5.83698C32.5238 5.8535 32.5589 5.87044 32.5883 5.88594C32.6175 5.90135 32.6418 5.91574 32.6603 5.92717C32.6785 5.93848 32.6928 5.94805 32.7011 5.95364C32.7053 5.95651 32.7087 5.95882 32.7105 5.96009C32.712 5.96117 32.7136 5.96226 32.7128 5.96171C32.7127 5.9616 32.7106 5.96019 32.7081 5.95847C32.7055 5.95665 32.7014 5.95384 32.6964 5.95047C32.6866 5.94384 32.6708 5.93344 32.651 5.92137C32.6311 5.90919 32.6054 5.89432 32.5749 5.87859C32.5442 5.86279 32.5081 5.84584 32.4669 5.8295L31.5825 8.06063C31.5417 8.04446 31.506 8.0277 31.4757 8.01209C31.4456 7.99657 31.4203 7.98191 31.4007 7.96996C31.3813 7.95811 31.3659 7.94795 31.3564 7.94157C31.3516 7.93831 31.3477 7.93563 31.3452 7.93393C31.344 7.93306 31.3429 7.93235 31.3423 7.93189C31.3416 7.93144 31.3411 7.9311 31.3411 7.93105C31.3405 7.93063 31.3422 7.93185 31.3439 7.93305C31.346 7.93444 31.3495 7.93688 31.3539 7.93986C31.3625 7.94569 31.3772 7.9555 31.3958 7.96704C31.4146 7.9787 31.4393 7.9933 31.4689 8.00891C31.4987 8.02461 31.5342 8.04174 31.575 8.05842L32.4834 5.83698ZM32.4741 5.83238L16.8741 -0.467622L15.9753 1.75776L31.5753 8.05776L32.4741 5.83238ZM16.8727 -0.468161C16.4411 -0.641863 15.9589 -0.641863 15.5273 -0.468161L16.4233 1.7583C16.28 1.81598 16.12 1.81598 15.9767 1.7583L16.8727 -0.468161ZM15.5259 -0.467622L-0.0740617 5.83238L0.82465 8.05776L16.4246 1.75776L15.5259 -0.467622ZM-0.0703749 5.8309C-0.111218 5.84723 -0.146994 5.86414 -0.177334 5.87986C-0.207525 5.8955 -0.232875 5.91025 -0.252552 5.9223C-0.272038 5.93424 -0.287533 5.94449 -0.29713 5.95096C-0.302021 5.95425 -0.305991 5.95698 -0.308513 5.95872C-0.310874 5.96035 -0.312817 5.96171 -0.312841 5.96173C-0.313464 5.96216 -0.311874 5.96105 -0.310154 5.95986C-0.30819 5.9585 -0.304731 5.95612 -0.300381 5.95317C-0.291885 5.94742 -0.27731 5.9377 -0.258773 5.92624C-0.240033 5.91467 -0.215402 5.90016 -0.185822 5.88465C-0.156085 5.86906 -0.120612 5.85206 -0.0798303 5.83554L0.821478 8.05987C0.862664 8.04318 0.898527 8.026 0.928646 8.0102C0.958607 7.99449 0.98361 7.97978 1.00272 7.96797C1.02162 7.95629 1.03655 7.94634 1.04541 7.94034C1.04993 7.93728 1.05357 7.93477 1.05571 7.93329C1.05761 7.93197 1.05938 7.93074 1.05893 7.93105C1.05892 7.93106 1.0588 7.93114 1.05864 7.93125C1.05847 7.93137 1.05822 7.93154 1.05791 7.93176C1.0573 7.93218 1.05633 7.93286 1.05514 7.93368C1.05279 7.9353 1.049 7.93791 1.04429 7.94108C1.03505 7.94731 1.01992 7.95732 1.0008 7.96903C0.981499 7.98085 0.956526 7.99539 0.926723 8.01083C0.896771 8.02635 0.861394 8.04307 0.820963 8.05924L-0.0703749 5.8309ZM-0.0880197 5.83889C-0.157332 5.86757 -0.211973 5.89758 -0.248715 5.91942C-0.283081 5.93984 -0.309925 5.95815 -0.313272 5.96041C-0.318504 5.96395 -0.31359 5.96063 -0.311339 5.95912C-0.307316 5.95644 -0.298435 5.95054 -0.286794 5.94321C-0.263694 5.92868 -0.222253 5.90373 -0.167497 5.87781L0.859345 8.04705C0.91855 8.01902 0.964188 7.99165 0.991366 7.97455C1.00505 7.96594 1.01594 7.95872 1.02195 7.9547C1.02502 7.95265 1.02752 7.95096 1.02871 7.95016C1.02929 7.94977 1.02987 7.94937 1.02999 7.9493C1.03022 7.94914 1.03008 7.94923 1.02985 7.94939C1.02934 7.94974 1.02329 7.95383 1.01519 7.95909C1.00674 7.96458 0.993706 7.97289 0.97739 7.98259C0.944781 8.00197 0.89442 8.02972 0.829668 8.05651L-0.0880197 5.83889ZM-0.167253 5.87769C-0.334121 5.95663 -0.484799 6.05912 -0.616944 6.18093L1.00974 7.94556C0.965711 7.98614 0.914489 8.02096 0.859101 8.04716L-0.167253 5.87769ZM-0.615782 6.17986C-0.666401 6.2264 -0.704139 6.268 -0.724831 6.29141C-0.734887 6.30278 -0.743614 6.31297 -0.746816 6.3167C-0.751658 6.32235 -0.7505 6.32098 -0.748949 6.31921L1.05575 7.90132C1.06445 7.8914 1.07256 7.88192 1.07463 7.8795C1.07834 7.87518 1.07648 7.87738 1.0734 7.88086C1.06665 7.8885 1.04327 7.91473 1.00858 7.94663L-0.615782 6.17986ZM-0.749451 6.31979C-0.849497 6.43406 -0.933465 6.55894 -1.00132 6.69334L1.14113 7.77497C1.11876 7.81928 1.08987 7.86235 1.05626 7.90074L-0.749451 6.31979ZM-1.00045 6.69163C-0.999514 6.68978 -0.998684 6.6882 -1.00228 6.69512C-1.00469 6.69976 -1.01095 6.71179 -1.01788 6.72563C-1.03212 6.75411 -1.0566 6.80478 -1.08083 6.86921L1.16557 7.71401C1.14899 7.75808 1.1334 7.78964 1.12858 7.79928C1.12637 7.80371 1.12495 7.8064 1.12742 7.80164C1.1287 7.79917 1.13445 7.78814 1.14026 7.77668L-1.00045 6.69163ZM-1.08031 6.86781C-1.13797 7.02057 -1.2 7.23833 -1.2 7.50142H1.2C1.2 7.61701 1.17255 7.69553 1.16504 7.71541L-1.08031 6.86781ZM-1.2 7.50142V28.5014H1.2V7.50142H-1.2ZM-1.2 28.5014C-1.2 28.6147 -1.18397 28.7069 -1.17027 28.7674C-1.16352 28.7972 -1.15692 28.8211 -1.15271 28.8357C-1.15056 28.8431 -1.14875 28.8491 -1.14763 28.8528C-1.14706 28.8546 -1.1466 28.8562 -1.14631 28.8571C-1.14616 28.8576 -1.14604 28.858 -1.14596 28.8582C-1.14592 28.8583 -1.14589 28.8584 -1.14587 28.8585C-1.14585 28.8586 -1.14583 28.8586 -1.14583 28.8586C-1.14566 28.8592 -1.14651 28.8565 -1.14748 28.8533C-1.14854 28.8498 -1.1503 28.8439 -1.1524 28.8367C-1.15651 28.8224 -1.16302 28.7989 -1.16969 28.7694C-1.18323 28.7096 -1.19916 28.6182 -1.19916 28.5056H1.20084C1.20084 28.3924 1.18481 28.3002 1.17111 28.2397C1.16436 28.2099 1.15776 28.186 1.15355 28.1714C1.1514 28.1639 1.14959 28.1579 1.14847 28.1543C1.1479 28.1524 1.14744 28.1509 1.14715 28.1499C1.147 28.1495 1.14688 28.1491 1.1468 28.1488C1.14676 28.1487 1.14673 28.1486 1.14671 28.1485C1.14669 28.1485 1.14667 28.1484 1.14667 28.1484C1.1465 28.1479 1.14735 28.1506 1.14832 28.1538C1.14938 28.1573 1.15114 28.1631 1.15324 28.1704C1.15735 28.1846 1.16386 28.2082 1.17053 28.2376C1.18407 28.2974 1.2 28.3889 1.2 28.5014H-1.2ZM-1.19913 28.5143C-1.19731 28.7655 -1.13906 28.9758 -1.08292 29.1268L1.16671 28.2907C1.17458 28.3119 1.20001 28.3865 1.20081 28.4969L-1.19913 28.5143ZM-1.08424 29.1233C-1.11609 29.0368 -1.13083 28.9649 -1.13772 28.9263C-1.1413 28.9062 -1.14356 28.8904 -1.14464 28.8826C-1.14548 28.8765 -1.14641 28.8691 -1.14566 28.8749C-1.14537 28.8772 -1.1439 28.8888 -1.14177 28.9031C-1.13955 28.9179 -1.13593 28.9404 -1.13043 28.9675C-1.11967 29.0206 -1.09894 29.1057 -1.05697 29.2046L1.15211 28.2665C1.17249 28.3145 1.18734 28.3584 1.19829 28.3958C1.20919 28.4331 1.21662 28.4655 1.2217 28.4906C1.22674 28.5154 1.22999 28.5357 1.23186 28.5483C1.23283 28.5547 1.23355 28.56 1.23402 28.5634C1.23446 28.5667 1.23478 28.5692 1.23482 28.5695C1.23484 28.5696 1.23487 28.5699 1.23479 28.5692C1.23474 28.5688 1.23461 28.5679 1.23446 28.5667C1.23417 28.5645 1.23362 28.5602 1.2329 28.555C1.2315 28.5448 1.2289 28.5267 1.22492 28.5045C1.2209 28.4819 1.21493 28.452 1.20611 28.4172C1.19726 28.3823 1.18506 28.3405 1.16803 28.2943L-1.08424 29.1233ZM-1.05723 29.204C-0.957149 29.44 -0.8182 29.607 -0.739899 29.695L1.05315 28.0997C1.05115 28.0974 1.06335 28.1108 1.08083 28.136C1.09882 28.1619 1.12644 28.206 1.15237 28.2671L-1.05723 29.204ZM-0.73839 29.6967C-0.796681 29.6314 -0.835205 29.5733 -0.855385 29.5411C-0.865723 29.5245 -0.873338 29.5114 -0.876944 29.5051C-0.879489 29.5007 -0.883089 29.4943 -0.879694 29.5003C-0.878173 29.503 -0.872144 29.5137 -0.864388 29.5268C-0.856336 29.5404 -0.844176 29.5604 -0.828537 29.5839C-0.797584 29.6304 -0.746839 29.7001 -0.672752 29.7742L1.0243 28.0772C1.09434 28.1472 1.14162 28.2124 1.16942 28.2542C1.18348 28.2753 1.19413 28.2929 1.20073 28.304C1.20702 28.3146 1.21163 28.3229 1.21174 28.3231C1.21184 28.3232 1.21193 28.3234 1.21166 28.3229C1.21149 28.3226 1.21102 28.3218 1.21047 28.3208C1.2094 28.3189 1.20733 28.3152 1.20474 28.3107C1.1997 28.3019 1.19063 28.2863 1.17877 28.2674C1.16677 28.2482 1.15041 28.2232 1.12978 28.1949C1.10906 28.1664 1.08317 28.1333 1.05164 28.098L-0.73839 29.6967ZM-0.67445 29.7725C-0.599663 29.8476 -0.52943 29.8987 -0.483957 29.9291C-0.460713 29.9447 -0.440894 29.9568 -0.427299 29.9649C-0.414117 29.9728 -0.403326 29.9789 -0.400051 29.9808C-0.39321 29.9846 -0.399493 29.9811 -0.402598 29.9793C-0.407857 29.9763 -0.419784 29.9693 -0.434932 29.9599C-0.463953 29.9418 -0.520074 29.9051 -0.583831 29.8491L0.999691 28.0457C0.964674 28.0149 0.932168 27.9899 0.904679 27.9701C0.877303 27.9504 0.853284 27.9348 0.835172 27.9235C0.817261 27.9124 0.802512 27.9038 0.794409 27.8991C0.79024 27.8967 0.786814 27.8948 0.785124 27.8938C0.78429 27.8933 0.783487 27.8929 0.783274 27.8928C0.782902 27.8926 0.78304 27.8926 0.783289 27.8928C0.783705 27.893 0.791647 27.8975 0.802023 27.9037C0.812812 27.9101 0.829868 27.9205 0.850427 27.9343C0.871111 27.9481 0.897423 27.9667 0.92689 27.9902C0.956483 28.0137 0.990378 28.0431 1.026 28.0789L-0.67445 29.7725ZM-0.584119 29.8489C-0.491252 29.9305 -0.323543 30.0664 -0.0869258 30.1643L0.829954 27.9463C0.888671 27.9706 0.932248 27.9969 0.959648 28.0155C0.973336 28.0248 0.983566 28.0326 0.990027 28.0377C0.996442 28.0428 0.999963 28.0459 0.999979 28.0459L-0.584119 29.8489ZM-0.0741549 30.1694C-0.181462 30.1265 -0.262391 30.0761 -0.314091 30.04C-0.339537 30.0222 -0.359401 30.0069 -0.371402 29.9974C-0.377514 29.9926 -0.382399 29.9886 -0.385346 29.9862C-0.388045 29.984 -0.390309 29.9821 -0.389913 29.9825C-0.389912 29.9825 -0.38991 29.9825 -0.389906 29.9825C-0.389903 29.9825 -0.389896 29.9825 -0.389891 29.9825C-0.389878 29.9825 -0.389857 29.9825 -0.389832 29.9825C-0.389783 29.9826 -0.389703 29.9826 -0.389606 29.9827C-0.389416 29.9829 -0.389104 29.9831 -0.388721 29.9834C-0.38797 29.9841 -0.386734 29.9851 -0.385206 29.9863C-0.382214 29.9888 -0.377274 29.9928 -0.371114 29.9976C-0.359021 30.0072 -0.33902 30.0227 -0.31344 30.0406C-0.261507 30.0769 -0.180038 30.1279 -0.0719481 30.1713L0.822536 27.9442C0.929894 27.9873 1.01071 28.038 1.06203 28.0738C1.0873 28.0915 1.107 28.1068 1.1188 28.1161C1.12481 28.1209 1.12961 28.1248 1.13245 28.1271C1.13503 28.1292 1.13725 28.131 1.13673 28.1306C1.13672 28.1306 1.13655 28.1304 1.13635 28.1303C1.13613 28.1301 1.13579 28.1298 1.13539 28.1295C1.13458 28.1288 1.1333 28.1278 1.13172 28.1265C1.12863 28.124 1.1236 28.1199 1.11734 28.1149C1.10505 28.1052 1.08488 28.0896 1.05913 28.0717C1.00681 28.0352 0.925225 27.9843 0.817183 27.9411L-0.0741549 30.1694ZM16.0493 32.7992L1.64935 26.984L0.750651 29.2093L15.1507 35.0246L16.0493 32.7992ZM2.4 28.0966V8.39083H-1.19209e-07V28.0966H2.4ZM0.750646 9.50353L15.1506 15.3189L16.0494 13.0935L1.64935 7.27814L0.750646 9.50353ZM14.4 14.2062V33.9119H16.8V14.2062H14.4ZM15.7507 2.96128L29.7484 8.61411L30.6471 6.38873L16.6493 0.735891L15.7507 2.96128ZM29.7484 6.38873L23.5506 8.89163L24.4493 11.117L30.6471 8.61411L29.7484 6.38873ZM24.4494 8.89163L10.4517 3.23873L9.553 5.46411L23.5506 11.117L24.4494 8.89163ZM10.4517 5.46411L16.6493 2.96128L15.7507 0.73589L9.55301 3.23872L10.4517 5.46411ZM7.95064 6.1112L21.9483 11.7641L22.847 9.53873L8.84936 3.88582L7.95064 6.1112ZM21.9483 9.53872L15.7507 12.0416L16.6493 14.2669L22.847 11.7641L21.9483 9.53872ZM16.6493 12.0416L2.65159 6.38873L1.7529 8.61411L15.7507 14.2669L16.6493 12.0416ZM2.6516 8.61411L8.84935 6.11121L7.95065 3.88582L1.7529 6.38873L2.6516 8.61411Z" fill="#111111" mask="url(#path-3-inside-2_53_654)"/>
<path d="M27.0003 26.4016L27.5272 26.0441L30.7323 23.8694L30.7331 23.8688L31.0693 24.3661C31.3435 24.18 31.415 23.8068 31.2289 23.5326C31.0429 23.2584 30.6691 23.1866 30.3954 23.3729L27.6877 25.2101L27.706 25.2408L27.1904 25.5476L26.8535 25.0511L26.883 25.0311L24.5639 21.1329M27.0003 26.4016C27.0003 26.4016 27.0003 26.4016 27.0003 26.4016M27.0003 26.4016C27.0003 26.4016 27.0003 26.4016 27.0003 26.4017L27.0003 26.4017L27.0003 26.4016C27.0003 26.4016 27.0003 26.4016 27.0003 26.4016M27.0003 26.4016L27.0003 26.4017L27.0003 26.4016M27.0003 26.4016L26.6747 25.8544L27.0002 26.4016L27.0003 26.4016M27.0003 26.4016C27.0003 26.4016 27.0003 26.4016 27.0003 26.4016M27.0003 26.4016L27.0003 26.4017M27.0003 26.4017L27.0003 26.4017L27.0005 26.402L27.0005 26.402M27.0003 26.4017L27.0005 26.402L27.0005 26.402M27.0003 26.4017L27.0005 26.402M27.0005 26.402L27.001 26.4028L27.3371 26.8982M27.0005 26.402L27.0005 26.402M27.3371 26.8982C27.2369 26.9662 27.1195 27.0016 27.0002 27.0016C26.9569 27.0016 26.9129 26.9969 26.8699 26.9873C26.7084 26.9512 26.569 26.8505 26.4846 26.7084L23.5326 21.7463C23.3633 21.4616 23.4568 21.0933 23.7415 20.924M27.3371 26.8982L27.001 26.4028L27.0005 26.402M27.3371 26.8982L27.0005 26.402M23.7415 20.924L24.0474 21.4401L23.5328 21.7463L24.048 21.4399C24.0481 21.4399 24.0483 21.4399 24.0484 21.44L26.4762 25.5208L24.0485 21.44C24.0491 21.4401 24.0492 21.4403 24.0488 21.44C24.0487 21.4399 24.0486 21.4399 24.0486 21.4398L24.5639 21.1329M23.7415 20.924C24.0263 20.7552 24.3943 20.8481 24.5639 21.1329M23.7415 20.924L24.0482 21.4397L24.0482 21.4396C24.0481 21.4394 24.0481 21.4394 24.0481 21.4394C24.0481 21.4394 24.0481 21.4394 24.0483 21.4396L24.0483 21.4396L24.0483 21.4396C24.0483 21.4396 24.0483 21.4396 24.0483 21.4396L24.5639 21.1329M27.0005 26.402L27.0006 26.4017M27.0005 26.402L27.0006 26.4017M27.0006 26.4017C27.0007 26.4017 27.0009 26.4018 27.0012 26.4018L27.0006 26.4017L27.0006 26.4017ZM24.0479 21.4398C24.0479 21.4398 24.0478 21.4398 24.0477 21.4398C24.0477 21.4398 24.0477 21.4398 24.0477 21.4398C24.0477 21.4398 24.0477 21.4398 24.0478 21.4399L24.0479 21.4398Z" stroke="#111111" stroke-width="1.2"/>
</g>
<defs>
<clipPath id="clip0_53_654">
<rect width="36" height="36" fill="white"/>
</clipPath>
</defs>
</svg>
