<svg width="48" height="48" fill="none" xmlns="http://www.w3.org/2000/svg"><g clip-path="url(#a)" fill="#000"><path d="M5.008 46c-2.758 0-5-2.244-5-5V21c0-2.758 2.242-5 5-5h30c2.756 0 5 2.242 5 5v20c0 2.756-2.244 5-5 5h-30Zm0-28c-1.654 0-3 1.346-3 3v20c0 1.654 1.346 3 3 3h30c1.654 0 3-1.346 3-3V21c0-1.654-1.346-3-3-3h-30Z"/><path d="M6.008 28c-1.102 0-2-.896-2-2v-4c0-1.102.898-2 2-2h4c1.102 0 2 .898 2 2v4c0 1.104-.898 2-2 2h-4Zm0-2h4v-4h-4v4ZM5.008 34a1 1 0 0 1 0-2h10a1 1 0 0 1 0 2h-10ZM5.008 38a1 1 0 0 1 0-2h8a1 1 0 0 1 0 2h-8ZM25.004 40.998a4.972 4.972 0 0 1-3.758-1.696 4.973 4.973 0 0 1-1.238-3.622 4.993 4.993 0 0 1 4.922-4.678.432.432 0 0 1 .07-.006c.044 0 .09.002.132.004l.052.002.034.5.02-.5.076.002.224.022c.108.012.194.022.28.038l.126.024c.104.02.212.042.318.07.654.18 1.23.458 1.738.84.86-.646 1.908-1 2.994-1h.008c1.436 0 2.802.618 3.752 1.694a4.973 4.973 0 0 1 1.238 3.622 5.005 5.005 0 0 1-5.306 4.674 4.928 4.928 0 0 1-2.69-.992 4.978 4.978 0 0 1-2.992 1.002Zm-.022-7.996c-.732 0-1.412.258-1.966.746a2.975 2.975 0 0 0-1.01 2.062c-.05.8.214 1.57.742 2.172A2.985 2.985 0 0 0 25.01 39c.734 0 1.416-.258 1.972-.75.096-.084.186-.176.27-.27a1 1 0 0 1 1.5 0 2.985 2.985 0 0 0 2.258 1.018c.726 0 1.428-.266 1.978-.75.602-.53.96-1.262 1.012-2.062a3.004 3.004 0 0 0-4.666-2.682c.262.448.448.928.558 1.432a1.003 1.003 0 0 1-.978 1.212c-.468 0-.878-.332-.978-.788a3.035 3.035 0 0 0-2.404-2.316 3.057 3.057 0 0 0-.49-.044l-.06.002ZM43 30a1 1 0 0 1 0-2c1.654 0 3-1.346 3-3V12H10v1a1 1 0 0 1-2 0V7c0-2.758 2.242-5 5-5h30c2.756 0 5 2.242 5 5v3.914a.482.482 0 0 1-.002.186L48 25c0 2.756-2.244 5-5 5Zm3-20V7c0-1.654-1.346-3-3-3H13c-1.654 0-3 1.346-3 3v3h36Z"/></g><defs><clipPath id="a"><path fill="#fff" d="M0 0h48v48H0z"/></clipPath></defs></svg>