<svg width="47" height="46" viewBox="0 0 47 46" fill="none" xmlns="http://www.w3.org/2000/svg">
<path d="M24.5928 45.5652C21.9718 45.5652 19.0823 44.5112 14.2975 42.7672L14.2328 42.7452C12.9718 42.2832 11.5756 41.7752 10.0004 41.2152V41.6992C10.0004 42.8032 9.14513 43.6992 8.09561 43.6992H2.38132C1.3318 43.6992 0.476562 42.8032 0.476562 41.6992V27.6992C0.476562 26.5952 1.3318 25.6992 2.38132 25.6992H8.09561C9.14513 25.6992 10.0004 26.5952 10.0004 27.6992H14.7623C18.1432 27.6992 20.7889 29.7332 22.368 30.9492C22.6689 31.1812 23.2156 31.6012 23.4137 31.6992H29.9985C31.3737 31.6992 32.1718 32.8672 32.3432 34.1632L39.2347 31.8712C39.8156 31.6892 40.4099 31.5992 41.008 31.5992C42.9718 31.5992 44.8366 32.5812 46.0023 34.2292C46.1699 34.4652 46.2289 34.7672 46.1642 35.0572C46.0994 35.3452 45.9166 35.5872 45.6651 35.7192C41.7909 37.7532 38.7547 39.4492 36.3147 40.8112C30.6461 43.9772 27.8023 45.5652 24.5928 45.5652ZM10.0004 39.1052C11.9185 39.7812 13.5775 40.3852 14.9223 40.8772C19.6556 42.6032 22.2632 43.5532 24.5661 43.5532C27.3489 43.5532 29.8766 42.1412 35.4156 39.0492C37.6023 37.8292 40.2937 36.3252 43.6518 34.5452C42.9013 33.9392 41.9699 33.6012 41.0118 33.6012C40.6004 33.6012 40.1908 33.6632 39.7947 33.7872L31.9985 36.3792C31.5756 37.2232 30.8556 37.7012 29.9985 37.7012H19.5242C18.9985 37.7012 18.5718 37.2532 18.5718 36.7012C18.5718 36.1492 18.9985 35.7012 19.5242 35.7012H30.0004C30.3966 35.7012 30.4766 34.9132 30.4766 34.7012C30.4766 34.4892 30.3966 33.7012 30.0004 33.7012H23.3337C22.7223 33.7012 22.1661 33.2732 21.2442 32.5652C19.7604 31.4232 17.5185 29.6992 14.7623 29.6992H10.0004V39.1052ZM2.38132 41.6992H8.09561V27.6992H2.38132V41.6992Z" fill="#46655E"/>
<path d="M31.8847 27.6987L31.6961 27.7007C29.2961 27.7007 27.0123 26.7367 25.2675 24.9887C23.4637 23.1807 22.4409 20.7427 22.3837 18.1267C22.3799 17.9767 22.3799 17.8267 22.3837 17.6747C22.3837 13.2447 27.9723 4.68672 30.3742 1.21272C30.6732 0.780719 31.1132 0.496719 31.6161 0.412719C31.717 0.394719 31.818 0.386719 31.919 0.386719C32.3209 0.386719 32.7056 0.518719 33.0332 0.766719C33.197 0.890719 33.3399 1.04272 33.458 1.21272C35.8542 4.70672 41.4237 13.3047 41.4294 17.6907C41.4847 20.2947 40.5685 22.7767 38.8485 24.6687C37.1266 26.5627 34.8047 27.6367 32.3132 27.6987L32.098 27.7007L31.8847 27.6987ZM32.0961 25.7027C32.1551 25.7027 32.2104 25.7027 32.2637 25.7007C34.2523 25.6527 36.0999 24.7967 37.4694 23.2907C38.8409 21.7827 39.5704 19.8067 39.5247 17.7247C39.5247 14.5967 35.5932 7.75472 31.9132 2.38672C28.2275 7.71872 24.2866 14.5407 24.2866 17.6987C24.2847 17.8407 24.2847 17.9607 24.2866 18.0807C24.378 22.2827 27.7037 25.7007 31.6999 25.7007C31.6999 25.7007 31.8923 25.6987 31.8961 25.6987C31.898 25.6987 32.0371 25.7027 32.0961 25.7027Z" fill="#46655E"/>
</svg>
