<svg width="80" height="80" viewBox="0 0 80 80" fill="none" xmlns="http://www.w3.org/2000/svg">
<g clip-path="url(#clip0_2_312)">
<circle cx="40" cy="40" r="40" fill="#0D6EFD"/>
<path d="M48.9991 33.25C48.9991 34.4926 47.9918 35.5 46.7491 35.5C45.5064 35.5 44.4991 34.4926 44.4991 33.25C44.4991 32.0074 45.5064 31 46.7491 31C47.9918 31 48.9991 32.0074 48.9991 33.25Z" fill="white"/>
<path d="M35.4991 33.25C35.4991 34.4926 34.4917 35.5 33.2491 35.5C32.0064 35.5 30.9991 34.4926 30.9991 33.25C30.9991 32.0074 32.0064 31 33.2491 31C34.4917 31 35.4991 32.0074 35.4991 33.25Z" fill="white"/>
<path fill-rule="evenodd" clip-rule="evenodd" d="M39.9991 19.1875C37.203 19.1875 34.9366 21.4541 34.9366 24.25V24.8226C35.876 24.8125 36.8901 24.8125 37.9858 24.8125H42.0122C43.1082 24.8125 44.1222 24.8125 45.0616 24.8226V24.25C45.0616 21.4541 42.795 19.1875 39.9991 19.1875ZM48.4366 24.9406V24.25C48.4366 19.5901 44.6589 15.8125 39.9991 15.8125C35.3392 15.8125 31.5616 19.5901 31.5616 24.25V24.9406C31.2578 24.9628 30.9647 24.9888 30.6817 25.0193C28.7054 25.2323 27.0527 25.6785 25.5851 26.6844C25.0803 27.0304 24.6062 27.4191 24.1679 27.8462C22.8937 29.0881 22.132 30.6212 21.5355 32.5174C20.9564 34.3583 20.4884 36.6986 19.9003 39.6391L19.8574 39.8538C19.01 44.0907 18.3422 47.4295 18.1504 50.089C17.9544 52.8061 18.2282 55.0919 19.5153 57.073C19.9448 57.7338 20.446 58.3451 21.0099 58.8959C22.6999 60.5465 24.8877 61.2634 27.5906 61.6041C30.2359 61.9375 33.6408 61.9375 37.9617 61.9375H42.0363C46.3574 61.9375 49.7623 61.9375 52.4076 61.6041C55.1103 61.2634 57.2982 60.5465 58.9882 58.8959C59.552 58.3451 60.0534 57.7338 60.4829 57.073C61.7699 55.0919 62.0437 52.8061 61.8477 50.089C61.656 47.4297 60.9882 44.0909 60.1407 39.854L60.0979 39.6391C59.5097 36.6986 59.0418 34.3583 58.4626 32.5174C57.8661 30.6212 57.1045 29.0881 55.8301 27.8462C55.392 27.4191 54.9177 27.0304 54.413 26.6844C52.9454 25.6785 51.2928 25.2323 49.3164 25.0193C49.0333 24.9888 48.7404 24.9628 48.4366 24.9406ZM31.0434 28.3748C29.3633 28.5559 28.3254 28.8979 27.4931 29.4683C27.1478 29.705 26.8233 29.971 26.5235 30.2632C25.8009 30.9674 25.2621 31.9182 24.755 33.5301C24.2368 35.1774 23.8022 37.3387 23.1907 40.3964C22.3142 44.7788 21.6913 47.9094 21.5166 50.3318C21.3443 52.721 21.6353 54.141 22.3454 55.2341C22.6392 55.6863 22.9822 56.1046 23.368 56.4815C24.3005 57.392 25.6359 57.9559 28.0127 58.2556C30.4222 58.5593 33.6141 58.5625 38.0832 58.5625H41.9148C46.3839 58.5625 49.576 58.5593 51.9855 58.2556C54.3622 57.9559 55.6976 57.392 56.63 56.4815C57.0158 56.1046 57.3588 55.6863 57.6526 55.2341C58.3629 54.141 58.6539 52.721 58.4815 50.3318C58.3067 47.9094 57.6839 44.7788 56.8075 40.3964C56.1959 37.3389 55.7613 35.1774 55.2431 33.5301C54.7362 31.9182 54.1973 30.9674 53.4746 30.2632C53.1747 29.971 52.8504 29.705 52.5051 29.4683C51.6728 28.8979 50.6349 28.5559 48.9548 28.3748C47.2378 28.1898 45.033 28.1875 41.9148 28.1875H38.0832C34.965 28.1875 32.7603 28.1898 31.0434 28.3748Z" fill="white"/>
</g>
<defs>
<clipPath id="clip0_2_312">
<rect width="80" height="80" fill="white"/>
</clipPath>
</defs>
</svg>
