<svg width="20" height="20" viewBox="0 0 20 20" fill="none" xmlns="http://www.w3.org/2000/svg">
<g clip-path="url(#clip0_6637_28443)">
<path d="M9.99947 19.1667C8.7471 19.1666 7.52364 18.7902 6.48772 18.0864C5.45181 17.3826 4.65122 16.3839 4.18976 15.2196C3.72829 14.0554 3.62724 12.7793 3.8997 11.5569C4.17217 10.3346 4.80557 9.22223 5.7178 8.36417C6.83613 7.31167 9.5828 5.41667 9.16613 1.25C14.1661 4.58333 16.6661 7.91667 11.6661 12.9167C12.4995 12.9167 13.7495 12.9167 15.8328 10.8583C16.0578 11.5025 16.2495 12.195 16.2495 12.9167C16.2495 14.5743 15.591 16.164 14.4189 17.3361C13.2468 18.5082 11.6571 19.1667 9.99947 19.1667Z" fill="#ED0006"/>
</g>
<defs>
<clipPath id="clip0_6637_28443">
<rect width="20" height="20" fill="white"/>
</clipPath>
</defs>
</svg>
