<svg width="48" height="48" fill="none" xmlns="http://www.w3.org/2000/svg"><g clip-path="url(#a)" fill="#000"><path d="M14.998 31c-5.238 0-9.5-4.262-9.5-9.5s4.262-9.5 9.5-9.5 9.5 4.262 9.5 9.5-4.262 9.5-9.5 9.5Zm0-17c-4.136 0-7.5 3.364-7.5 7.5s3.364 7.5 7.5 7.5 7.5-3.364 7.5-7.5-3.364-7.5-7.5-7.5ZM.998 48a1 1 0 0 1-1-1c0-8.27 6.73-15 15-15s15 6.73 15 15a1 1 0 0 1-1 1h-28Zm26.962-2a12.95 12.95 0 0 0-12.962-12A12.95 12.95 0 0 0 2.036 46H27.96ZM30.998 32.008a.994.994 0 0 1-1-1V25.71a14.765 14.765 0 0 1-2.406-.71 1.003 1.003 0 0 1-.568-1.296.995.995 0 0 1 1.296-.566c.908.354 1.856.604 2.818.74.49.07.86.496.86.99v3.904c.972-.842 2.192-1.88 3.3-2.822 1.288-1.096 2.62-2.228 3.022-2.598a.978.978 0 0 1 .342-.206c4.292-1.524 7.238-5.606 7.336-10.158-.254-6.152-5.32-10.996-11.534-10.996-.142 0-.286.002-.428.008l-.288-.002a11.937 11.937 0 0 0-11.07 7.386.998.998 0 0 1-1.306.54.997.997 0 0 1-.542-1.308 13.914 13.914 0 0 1 12.892-8.62c.098 0 .198 0 .296.002a13.487 13.487 0 0 1 13.98 12.966c-.112 5.346-3.514 10.14-8.474 11.992-.53.472-1.698 1.466-2.93 2.514l-.042.036c-1.912 1.626-4.29 3.65-4.848 4.208a.984.984 0 0 1-.706.294Z"/><path d="M28.5 14.48a1.496 1.496 0 0 1-1.502-1.492c0-.83.672-1.505 1.498-1.508.402 0 .776.154 1.058.434a1.503 1.503 0 0 1-1.05 2.566H28.5ZM34 14.48a1.496 1.496 0 0 1-1.502-1.492c0-.832.672-1.508 1.5-1.508a1.5 1.5 0 0 1 .008 3H34ZM39.5 14.48a1.496 1.496 0 0 1-1.502-1.492c0-.832.672-1.508 1.5-1.508a1.5 1.5 0 0 1 .008 3H39.5Z"/></g><defs><clipPath id="a"><path fill="#fff" d="M0 0h48v48H0z"/></clipPath></defs></svg>