<svg width="48" height="48" viewBox="0 0 48 48" fill="none" xmlns="http://www.w3.org/2000/svg">
<path d="M8.99414 48C6.23614 48 3.99414 45.756 3.99414 43C3.99414 42.312 4.01814 41.616 4.06414 40.932L5.86414 14.932C5.97614 13.288 7.35214 12 9.00014 12H14.0001V10C14.0001 4.486 18.4861 0 24.0001 0C29.5141 0 34.0001 4.486 34.0001 10V12H38.9941C40.6421 12 42.0181 13.288 42.1301 14.932L43.9301 40.93C43.9761 41.622 43.9981 42.32 43.9941 43.006C43.9941 45.758 41.7501 48 38.9941 48H8.99414ZM9.00014 14C8.40014 14 7.90014 14.47 7.86014 15.068L6.06014 41.07C6.01614 41.708 5.99414 42.358 5.99414 43C5.99414 44.654 7.34014 46 8.99414 46H38.9941C40.6481 46 41.9941 44.654 41.9941 43C41.9981 42.36 41.9781 41.71 41.9341 41.068L40.1341 15.068C40.0941 14.47 39.5941 14 38.9941 14H34.0001V19C34.0001 19.552 33.5521 20 33.0001 20C32.4481 20 32.0001 19.552 32.0001 19V14H16.0001V19C16.0001 19.552 15.5521 20 15.0001 20C14.4481 20 14.0001 19.552 14.0001 19V14H9.00014ZM32.0001 12V10C32.0001 5.588 28.4121 2 24.0001 2C19.5881 2 16.0001 5.588 16.0001 10V12H32.0001Z" fill="#111111"/>
</svg>
