<svg width="99" height="106" viewBox="0 0 99 106" fill="none" xmlns="http://www.w3.org/2000/svg">
<path d="M73.4708 91.2311C73.6066 91.466 73.9075 91.5464 74.141 91.4083C83.2852 85.9985 90.4335 77.7669 94.5066 67.9445C98.6425 57.9706 99.3773 46.912 96.5974 36.4786C93.8175 26.0452 87.6778 16.8182 79.1276 10.2245C70.5774 3.63071 60.0931 0.0374362 49.2957 0.000292827C38.4984 -0.0368505 27.9896 3.4842 19.3943 10.019C10.7989 16.5538 4.59585 25.7383 1.74425 36.1523C-1.10736 46.5663 -0.448652 57.6297 3.61851 67.6318C7.62393 77.4821 14.7154 85.7626 23.8222 91.2352C24.0548 91.3749 24.3561 91.2965 24.4936 91.0626C24.631 90.8287 24.5524 90.5277 24.3199 90.3879C15.3992 85.0248 8.45275 76.9119 4.52867 67.2617C0.542854 57.4597 -0.102677 46.6175 2.6919 36.4118C5.48647 26.2061 11.5655 17.2052 19.9889 10.8011C28.4123 4.39705 38.711 0.946419 49.2924 0.98282C59.8737 1.01922 70.1484 4.54062 78.5276 11.0025C86.9068 17.4644 92.9237 26.5068 95.648 36.7316C98.3723 46.9563 97.6522 57.7937 93.599 67.5681C89.6086 77.1911 82.6065 85.256 73.6492 90.5576C73.4157 90.6958 73.335 90.9962 73.4708 91.2311Z" fill="white"/>
<path d="M67 47.768C68.3333 48.5378 68.3333 50.4622 67 51.232L42.25 65.5215C40.9167 66.2913 39.25 65.329 39.25 63.7894L39.25 35.2106C39.25 33.671 40.9167 32.7087 42.25 33.4785L67 47.768Z" fill="white"/>
<path d="M31.841 88.1H35.071C35.8416 88.1 36.5273 88.2473 37.128 88.542C37.74 88.8253 38.2216 89.2333 38.573 89.766C38.9356 90.2987 39.117 90.9333 39.117 91.67C39.117 92.3953 38.9356 93.03 38.573 93.574C38.2216 94.1067 37.74 94.5203 37.128 94.815C36.5273 95.0983 35.8416 95.24 35.071 95.24H33.286V100H31.841V88.1ZM35.071 89.46H33.286V93.88H35.071C35.8416 93.88 36.465 93.693 36.941 93.319C37.4283 92.945 37.672 92.3953 37.672 91.67C37.672 90.9333 37.4283 90.3837 36.941 90.021C36.465 89.647 35.8416 89.46 35.071 89.46ZM41.1544 88.1H42.5994V98.64H47.2744V100H41.1544V88.1ZM57.4824 100L55.9694 96.43H51.1754L49.6624 100H48.0474L53.5724 87.505L59.0974 100H57.4824ZM53.5724 90.786L51.7534 95.07H55.3914L53.5724 90.786ZM65.8267 88.1H67.4417L63.4807 94.866V100H62.0357V94.883L58.0747 88.1H59.6897L62.7497 93.608L65.8267 88.1Z" fill="white"/>
</svg>
