<svg width="18" height="21" viewBox="0 0 18 21" fill="none" xmlns="http://www.w3.org/2000/svg">
<path d="M12.5156 11.75C13.9479 11.75 15.1719 12.2708 16.1875 13.3125C17.2292 14.3281 17.75 15.5521 17.75 16.9844V18.625C17.75 19.1458 17.5677 19.5885 17.2031 19.9531C16.8385 20.3177 16.3958 20.5 15.875 20.5H2.125C1.60417 20.5 1.16146 20.3177 0.796875 19.9531C0.432292 19.5885 0.25 19.1458 0.25 18.625V16.9844C0.25 15.5521 0.757812 14.3281 1.77344 13.3125C2.8151 12.2708 4.05208 11.75 5.48438 11.75C5.82292 11.75 6.31771 11.8542 6.96875 12.0625C7.64583 12.2708 8.32292 12.375 9 12.375C9.67708 12.375 10.3542 12.2708 11.0312 12.0625C11.7083 11.8542 12.2031 11.75 12.5156 11.75ZM16.5 18.625V16.9844C16.5 15.8906 16.1094 14.9531 15.3281 14.1719C14.5469 13.3906 13.6094 13 12.5156 13C12.3594 13 11.9167 13.1042 11.1875 13.3125C10.4844 13.5208 9.75521 13.625 9 13.625C8.24479 13.625 7.5026 13.5208 6.77344 13.3125C6.07031 13.1042 5.64062 13 5.48438 13C4.39062 13 3.45312 13.3906 2.67188 14.1719C1.89062 14.9531 1.5 15.8906 1.5 16.9844V18.625C1.5 18.8073 1.55208 18.9505 1.65625 19.0547C1.78646 19.1849 1.94271 19.25 2.125 19.25H15.875C16.0573 19.25 16.2005 19.1849 16.3047 19.0547C16.4349 18.9505 16.5 18.8073 16.5 18.625ZM12.5156 9.05469C11.5521 10.0182 10.3802 10.5 9 10.5C7.61979 10.5 6.4349 10.0182 5.44531 9.05469C4.48177 8.0651 4 6.88021 4 5.5C4 4.11979 4.48177 2.94792 5.44531 1.98438C6.4349 0.994792 7.61979 0.5 9 0.5C10.3802 0.5 11.5521 0.994792 12.5156 1.98438C13.5052 2.94792 14 4.11979 14 5.5C14 6.88021 13.5052 8.0651 12.5156 9.05469ZM11.6562 2.84375C10.9271 2.11458 10.0417 1.75 9 1.75C7.95833 1.75 7.07292 2.11458 6.34375 2.84375C5.61458 3.57292 5.25 4.45833 5.25 5.5C5.25 6.54167 5.61458 7.42708 6.34375 8.15625C7.07292 8.88542 7.95833 9.25 9 9.25C10.0417 9.25 10.9271 8.88542 11.6562 8.15625C12.3854 7.42708 12.75 6.54167 12.75 5.5C12.75 4.45833 12.3854 3.57292 11.6562 2.84375Z" fill="#C8815F"/>
</svg>
