<svg width="20" height="20" viewBox="0 0 20 20" fill="none" xmlns="http://www.w3.org/2000/svg">
<g clip-path="url(#clip0_551_5766)">
<path d="M3.79227 13.7921C3.79227 17.2202 6.57121 19.9991 9.99918 19.9991C13.4271 19.9991 16.2061 17.2202 16.2061 13.7921C16.2061 10.3439 14.482 7.58523 15.6388 5.17145C15.6388 5.17145 13.7923 5.51629 12.7578 8.27488C12.7578 8.27488 9.30953 4.8266 10.7502 -0.000976562C10.7502 -0.000976562 7.24059 1.37832 7.60762 5.86109C7.92238 9.70508 7.24059 10.3439 7.24059 10.3439C7.24059 7.24043 4.81422 5.86109 4.81422 5.86109C5.51641 9.65422 3.79227 10.6887 3.79227 13.7921Z" fill="#FFB446"/>
<path d="M14.4814 15.2641C14.4814 17.8458 12.488 20.0498 9.90667 20C7.47744 19.9532 5.67006 18.105 5.86322 15.6906C5.94943 14.613 6.76838 12.8673 8.10459 11.1001L8.99542 11.6389C8.96663 9.45504 10.0011 6.55273 10.0011 6.55273C10.6807 9.61066 14.4814 10.4033 14.4814 15.2641Z" fill="#FFDC64"/>
<path d="M8.27592 13.1031C7.93107 15.1721 7.24142 15.9254 7.24142 17.2411C7.24142 18.6204 8.47654 19.9997 10.0001 19.9997C11.5346 19.9997 12.7629 18.7459 12.7587 17.2114C12.7471 13.09 10.3449 11.0342 10.3449 11.0342C10.6897 13.1032 9.65525 14.1376 9.65525 14.1376C9.22432 13.4913 8.27592 13.1031 8.27592 13.1031Z" fill="white"/>
</g>
<defs>
<clipPath id="clip0_551_5766">
<rect width="20" height="20" fill="white"/>
</clipPath>
</defs>
</svg>
