<svg width="20" height="19" viewBox="0 0 20 19" fill="none" xmlns="http://www.w3.org/2000/svg">
<path d="M18.125 5.125C18.6458 5.125 19.0885 5.30729 19.4531 5.67188C19.8177 6.03646 20 6.47917 20 7V10.75C20 10.9323 19.9349 11.0885 19.8047 11.2188C19.7005 11.3229 19.5573 11.375 19.375 11.375H18.75V17C18.75 17.5208 18.5677 17.9635 18.2031 18.3281C17.8385 18.6927 17.3958 18.875 16.875 18.875H3.125C2.60417 18.875 2.16146 18.6927 1.79688 18.3281C1.43229 17.9635 1.25 17.5208 1.25 17V11.375H0.625C0.442708 11.375 0.286458 11.3229 0.15625 11.2188C0.0520833 11.0885 0 10.9323 0 10.75V7C0 6.47917 0.182292 6.03646 0.546875 5.67188C0.911458 5.30729 1.35417 5.125 1.875 5.125H3.39844C3.00781 4.55208 2.8125 3.92708 2.8125 3.25C2.8125 2.39062 3.09896 1.66146 3.67188 1.0625C4.24479 0.4375 4.92188 0.125 5.70312 0.125C6.51042 0.125 7.21354 0.398438 7.8125 0.945312C8.41146 1.46615 9.14062 2.44271 10 3.875C10.8594 2.44271 11.5885 1.46615 12.1875 0.945312C12.7865 0.398438 13.4896 0.125 14.2969 0.125C15.0781 0.125 15.7552 0.4375 16.3281 1.0625C16.901 1.66146 17.1875 2.39062 17.1875 3.25C17.1875 3.92708 16.9922 4.55208 16.6016 5.125H18.125ZM10.7812 4.96875L10.7031 5.125H14.2969C14.7396 5.125 15.1172 4.94271 15.4297 4.57812C15.7682 4.21354 15.9375 3.77083 15.9375 3.25C15.9375 2.72917 15.7682 2.28646 15.4297 1.92188C15.1172 1.55729 14.7396 1.375 14.2969 1.375C13.776 1.375 13.2812 1.59635 12.8125 2.03906C12.3698 2.48177 11.6927 3.45833 10.7812 4.96875ZM5.70312 1.375C5.26042 1.375 4.86979 1.55729 4.53125 1.92188C4.21875 2.28646 4.0625 2.72917 4.0625 3.25C4.0625 3.77083 4.21875 4.21354 4.53125 4.57812C4.86979 4.94271 5.26042 5.125 5.70312 5.125H9.29688L9.21875 4.96875C8.30729 3.45833 7.61719 2.48177 7.14844 2.03906C6.70573 1.59635 6.22396 1.375 5.70312 1.375ZM7.5 17.625V11.375H2.5V17C2.5 17.1823 2.55208 17.3255 2.65625 17.4297C2.78646 17.5599 2.94271 17.625 3.125 17.625H7.5ZM7.5 10.125V6.375H1.875C1.69271 6.375 1.53646 6.4401 1.40625 6.57031C1.30208 6.67448 1.25 6.81771 1.25 7V10.125H7.5ZM11.25 17.625V6.375H8.75V17.625H11.25ZM17.5 17V11.375H12.5V17.625H16.875C17.0573 17.625 17.2005 17.5599 17.3047 17.4297C17.4349 17.3255 17.5 17.1823 17.5 17ZM18.75 10.125V7C18.75 6.81771 18.6849 6.67448 18.5547 6.57031C18.4505 6.4401 18.3073 6.375 18.125 6.375H12.5V10.125H18.75Z" fill="#C8815F"/>
</svg>
