<svg width="40" height="20" viewBox="0 0 40 20" fill="none" xmlns="http://www.w3.org/2000/svg">
<path d="M0 10C0 10.4606 0.36552 10.8333 0.816349 10.8333L37.214 10.8333L29.6277 18.5775C29.4683 18.7402 29.3885 18.9534 29.3885 19.1667C29.3885 19.3799 29.4683 19.5931 29.6277 19.7559C29.9466 20.0814 30.4632 20.0814 30.7821 19.7559L39.7612 10.5899C39.8368 10.5129 39.8966 10.4207 39.9381 10.3184C40.0207 10.1147 40.0206 9.88525 39.9381 9.6816C39.8966 9.57932 39.8368 9.48705 39.7612 9.41009L30.7821 0.244144C30.4632 -0.0813812 29.9466 -0.0813812 29.6277 0.244144C29.3088 0.569669 29.3088 1.09701 29.6277 1.42253L37.214 9.16667L0.816349 9.16667C0.36552 9.16667 0 9.53939 0 10Z" fill="#111111"/>
</svg>
