<svg width="32" height="25" viewBox="0 0 32 25" fill="none" xmlns="http://www.w3.org/2000/svg">
<path opacity="0.8" d="M10.1719 12.6641C10.1719 12.1172 9.78906 11.7891 9.29688 11.7891C8.58594 11.7891 8.09375 12.3359 8.09375 12.9922C8.09375 13.5391 8.47656 13.8125 8.96875 13.8125C9.625 13.8125 10.1719 13.3203 10.1719 12.6641ZM4.375 9.98438H4.10156C4.04688 9.98438 3.9375 10.0391 3.9375 10.1484L3.71875 11.625L4.15625 11.5703C4.75781 11.5703 5.25 11.5156 5.35938 10.8047C5.46875 10.0938 4.97656 9.98438 4.375 9.98438ZM19.9062 9.98438H19.6875C19.5781 9.98438 19.5234 10.0391 19.4688 10.1484L19.25 11.625L19.6875 11.5703C20.3984 11.5703 20.8906 11.4062 20.8906 10.5859C20.8906 10.0391 20.3984 9.98438 19.9062 9.98438ZM31.5 2.875C31.5 1.45312 30.2969 0.25 28.875 0.25H2.625C1.14844 0.25 0 1.45312 0 2.875V22.125C0 23.6016 1.14844 24.75 2.625 24.75H28.875C30.2969 24.75 31.5 23.6016 31.5 22.125V2.875ZM7 10.3125C7 11.8984 6.01562 12.8281 4.48438 12.8281C4.21094 12.8281 3.55469 12.6641 3.5 13.0469L3.22656 14.5234C3.22656 14.6875 3.0625 14.8516 2.95312 14.8516H1.91406C1.80469 14.8516 1.69531 14.7422 1.75 14.6328L2.625 9.05469C2.625 8.89062 2.78906 8.78125 2.89844 8.78125H5.08594C6.125 8.78125 7 9.16406 7 10.3125ZM11.5938 10.8047C11.7031 10.8047 11.8125 10.9141 11.7578 11.0234L11.2109 14.5234C11.2109 14.6875 11.0469 14.8516 10.9375 14.8516H9.95312C9.84375 14.8516 9.78906 14.7422 9.78906 14.6328C9.78906 14.5234 9.84375 14.3594 9.84375 14.25C9.51562 14.6328 8.91406 14.9062 8.42188 14.9062C7.32812 14.9062 6.67188 14.25 6.67188 13.1562C6.67188 11.8438 7.71094 10.6953 9.02344 10.6953C9.57031 10.6953 10.0078 10.75 10.3359 11.2422C10.3359 11.0781 10.3359 10.8047 10.5547 10.8047H11.5938ZM13.8359 16.1641C13.7812 16.2188 13.6719 16.2734 13.5625 16.2734H12.5234C12.4141 16.2734 12.3594 16.2188 12.3594 16.1094C12.3594 15.9453 13.2891 14.5781 13.4531 14.3594C13.3438 14.0859 12.3047 11.0234 12.3047 10.9688C12.3047 10.9141 12.3594 10.8047 12.4688 10.8047H13.5078C13.6172 10.8047 13.7812 10.9141 13.7812 11.0234L14.3828 13.0469L15.8594 10.9141C15.9141 10.8594 16.0234 10.8047 16.0781 10.8047H17.1719C17.2266 10.8047 17.3359 10.9141 17.3359 10.9688C17.3359 11.0234 17.3359 11.0234 17.2812 11.0781L13.8359 16.1641ZM22.5312 10.3125C22.5312 11.8984 21.5469 12.8281 20.0156 12.8281C19.7422 12.8281 19.0859 12.6641 19.0312 13.0469L18.7578 14.6328C18.7578 14.7422 18.6484 14.8516 18.5391 14.8516H17.4453C17.3359 14.8516 17.2812 14.7422 17.2812 14.6328L18.1562 9.05469C18.1562 8.89062 18.3203 8.78125 18.4297 8.78125H20.6172C21.6562 8.78125 22.5312 9.16406 22.5312 10.3125ZM27.125 10.8047C27.2344 10.8047 27.3438 10.9141 27.2891 11.0234L26.7422 14.5234C26.7422 14.6875 26.5781 14.8516 26.4688 14.8516H25.4844C25.375 14.8516 25.3203 14.7422 25.3203 14.6328C25.3203 14.5234 25.375 14.3594 25.375 14.25C25.0469 14.6328 24.4453 14.9062 23.9531 14.9062C22.8594 14.9062 22.2031 14.25 22.2031 13.1562C22.2031 11.8438 23.2422 10.6953 24.5547 10.6953C25.1016 10.6953 25.5391 10.75 25.8672 11.2422C25.8672 11.0781 25.8672 10.8047 26.0859 10.8047H27.125ZM29.75 8.94531V9L28.8203 14.5234C28.8203 14.6875 28.7109 14.8516 28.5469 14.8516H27.6719C27.5625 14.8516 27.4531 14.7422 27.4531 14.6328L28.3828 8.94531C28.3828 8.83594 28.4375 8.78125 28.5469 8.78125H29.5312C29.6406 8.78125 29.75 8.83594 29.75 8.94531ZM24.8281 11.7891C24.1172 11.7891 23.625 12.3359 23.625 12.9922C23.625 13.5391 24.0078 13.8125 24.5 13.8125C25.1562 13.8125 25.7031 13.3203 25.7031 12.6641C25.7031 12.1172 25.3203 11.7891 24.8281 11.7891Z" fill="#555555"/>
</svg>
