<svg width="16" height="15" viewBox="0 0 16 15" fill="none" xmlns="http://www.w3.org/2000/svg">
<path d="M15.1875 6.5625C15.3958 6.5625 15.5 6.66667 15.5 6.875V8.125C15.5 8.33333 15.3958 8.4375 15.1875 8.4375H8.9375V14.6875C8.9375 14.8958 8.83333 15 8.625 15H7.375C7.16667 15 7.0625 14.8958 7.0625 14.6875V8.4375H0.8125C0.604167 8.4375 0.5 8.33333 0.5 8.125V6.875C0.5 6.66667 0.604167 6.5625 0.8125 6.5625H7.0625V0.3125C7.0625 0.104167 7.16667 0 7.375 0H8.625C8.83333 0 8.9375 0.104167 8.9375 0.3125V6.5625H15.1875Z" fill="#111111"/>
</svg>
