<svg width="40" height="20" viewBox="0 0 40 20" fill="none" xmlns="http://www.w3.org/2000/svg">
<path d="M40 9.99999C40 9.53939 39.6345 9.16666 39.1837 9.16666L2.78699 9.16666L10.3731 1.42252C10.692 1.097 10.692 0.569657 10.3731 0.244141C10.0542 -0.081376 9.53762 -0.0813843 9.21875 0.244141L0.239853 9.41009C0.164268 9.48705 0.104431 9.57931 0.0629768 9.6816C0.0217209 9.78342 0 9.8915 0 9.99999C0 10.1085 0.0216713 10.2166 0.0629311 10.3184C0.104431 10.4207 0.164276 10.5129 0.239861 10.5899L9.21876 19.7559C9.53764 20.0814 10.0542 20.0814 10.3731 19.7559C10.692 19.4303 10.692 18.903 10.3731 18.5775L2.78699 10.8333L39.1837 10.8333C39.6345 10.8333 40 10.4606 40 9.99999Z" fill="#999999"/>
</svg>
