<svg width="32" height="32" viewBox="0 0 32 32" fill="none" xmlns="http://www.w3.org/2000/svg">
<path d="M2.13333 30.9333C2.8487 30.9333 3.17422 31.1339 3.5862 31.3875C4.0526 31.6745 4.58125 32 5.5987 32C6.61589 32 7.14453 31.6745 7.61094 31.3875C7.86413 31.2316 8.08535 31.0963 8.38376 31.0148C8.38509 31.0144 8.38643 31.0147 8.38776 31.0143C8.38903 31.0139 8.38982 31.0129 8.39109 31.0125C8.57653 30.9626 8.79183 30.9333 9.0638 30.9333C9.77917 30.9333 10.1049 31.1339 10.5169 31.3875C10.9833 31.6747 11.512 32 12.5292 32C13.5466 32 14.0753 31.6747 14.5417 31.3875C14.9542 31.1339 15.2799 30.9333 15.9956 30.9333C16.7104 30.9333 17.0359 31.1339 17.4479 31.3875C17.9143 31.6745 18.4427 32 19.4599 32C20.4776 32 21.0065 31.6747 21.4729 31.3875C21.8854 31.1339 22.2112 30.9333 22.9271 30.9333C23.6437 30.9333 23.9698 31.1339 24.3825 31.3878C24.8495 31.6747 25.3786 32 26.3969 32C27.4151 32 27.9443 31.6747 28.4112 31.3878C28.824 31.1339 29.15 30.9333 29.8667 30.9333C30.1612 30.9333 30.4 30.6945 30.4 30.4C30.4 30.1055 30.1612 29.8667 29.8667 29.8667C28.8484 29.8667 28.3193 30.1919 27.8523 30.4789C27.4396 30.7328 27.1135 30.9333 26.3969 30.9333C25.6802 30.9333 25.3542 30.7328 24.9414 30.4789C24.7862 30.3835 24.622 30.2847 24.4373 30.1942L29.3076 15.0971C29.3529 14.9565 29.338 14.8036 29.2661 14.6745C29.1945 14.5453 29.0727 14.4518 28.9294 14.4159L26.1333 13.7169V8C26.1333 7.70547 25.8945 7.46667 25.6 7.46667H22.9333V3.73333C22.9333 3.4388 22.6945 3.2 22.4 3.2H20.8V0.533333C20.8 0.2388 20.5612 0 20.2667 0H11.7333C11.4388 0 11.2 0.2388 11.2 0.533333V3.2H9.6C9.30547 3.2 9.06667 3.4388 9.06667 3.73333V7.46667H6.4C6.10547 7.46667 5.86667 7.70547 5.86667 8V13.7169L3.07057 14.4159C2.92734 14.4518 2.80547 14.5453 2.73385 14.6745C2.66197 14.8036 2.64713 14.9565 2.69244 15.0971L7.56171 30.1911C7.37444 30.2825 7.20849 30.3826 7.05156 30.4792C6.63958 30.7328 6.31406 30.9333 5.5987 30.9333C4.88333 30.9333 4.55755 30.7328 4.14557 30.4792C3.67917 30.1919 3.15052 29.8667 2.13333 29.8667C1.8388 29.8667 1.6 30.1055 1.6 30.4C1.6 30.6945 1.8388 30.9333 2.13333 30.9333ZM12.2667 1.06667H19.7333V3.2H12.2667V1.06667ZM10.1333 4.26667H21.8667V7.46667H10.1333V4.26667ZM6.93333 8.53333H25.0667V13.4502L16.1294 11.2159C16.0445 11.1945 15.9555 11.1945 15.8706 11.2159L6.93333 13.4502V8.53333ZM3.88281 15.3125L15.4667 12.4164V22.4C15.4667 22.6945 15.7055 22.9333 16 22.9333C16.2945 22.9333 16.5333 22.6945 16.5333 22.4V12.4164L28.1172 15.3125L23.4123 29.8973C23.2623 29.8795 23.1044 29.8667 22.9271 29.8667C21.9094 29.8667 21.3805 30.1919 20.9141 30.4792C20.5016 30.7328 20.1758 30.9333 19.4599 30.9333C18.7448 30.9333 18.4193 30.7328 18.0073 30.4792C17.5411 30.1922 17.0125 29.8667 15.9956 29.8667C14.9779 29.8667 14.4492 30.1922 13.9828 30.4792C13.5703 30.7328 13.2448 30.9333 12.5292 30.9333C11.8138 30.9333 11.4883 30.7328 11.0763 30.4792C10.6099 30.1922 10.0812 29.8667 9.0638 29.8667C8.88994 29.8667 8.73483 29.879 8.5874 29.8962L3.88281 15.3125Z" fill="#111111"/>
</svg>
