<svg width="18" height="18" viewBox="0 0 18 18" fill="none" xmlns="http://www.w3.org/2000/svg">
<g clip-path="url(#clip0_77_22861)">
<path d="M16.6212 4.24121C16.0487 4.49448 15.4415 4.66082 14.8197 4.73471C15.475 4.34279 15.9655 3.72597 16.1997 2.99921C15.5847 3.36521 14.9105 3.62171 14.2077 3.76046C13.7357 3.2554 13.11 2.92043 12.428 2.80765C11.7459 2.69487 11.0457 2.81058 10.4362 3.1368C9.82668 3.46302 9.34203 3.98148 9.05757 4.61156C8.77312 5.24164 8.7048 5.94805 8.86323 6.62096C7.61607 6.55845 6.39598 6.23436 5.2822 5.66971C4.16842 5.10507 3.18583 4.3125 2.39823 3.34346C2.11945 3.8223 1.97295 4.36663 1.97373 4.92071C1.97373 6.00821 2.52723 6.96896 3.36873 7.53146C2.87074 7.51578 2.38371 7.3813 1.94823 7.13921V7.17821C1.94838 7.90249 2.19901 8.60442 2.65762 9.16501C3.11623 9.72559 3.7546 10.1103 4.46448 10.254C4.0022 10.3792 3.51746 10.3977 3.04698 10.308C3.24713 10.9314 3.63724 11.4766 4.16268 11.8673C4.68812 12.258 5.32258 12.4746 5.97723 12.4867C5.32659 12.9977 4.58162 13.3754 3.78489 13.5983C2.98817 13.8212 2.15533 13.8849 1.33398 13.7857C2.76776 14.7078 4.43681 15.1973 6.14148 15.1957C11.9112 15.1957 15.0665 10.416 15.0665 6.27071C15.0665 6.13571 15.0627 5.99921 15.0567 5.86571C15.6709 5.42184 16.2009 4.87198 16.622 4.24196L16.6212 4.24121Z" fill="black"/>
</g>
<defs>
<clipPath id="clip0_77_22861">
<rect width="18" height="18" fill="white"/>
</clipPath>
</defs>
</svg>
