<svg width="32" height="25" viewBox="0 0 32 25" fill="none" xmlns="http://www.w3.org/2000/svg">
<path opacity="0.8" d="M25.7031 11.1875L25.5391 10.4219C25.4297 10.75 25.2109 11.2969 25.2656 11.2422C25.2656 11.2422 24.5547 13.1562 24.3906 13.6484H26.1953C26.0859 13.2109 25.7031 11.1875 25.7031 11.1875ZM31.5 2.875C31.5 1.45312 30.2969 0.25 28.875 0.25H2.625C1.14844 0.25 0 1.45312 0 2.875V22.125C0 23.6016 1.14844 24.75 2.625 24.75H28.875C30.2969 24.75 31.5 23.6016 31.5 22.125V2.875ZM8.3125 16.6562H6.01562L4.04688 9.27344C3.33594 8.83594 2.57031 8.5625 1.75 8.34375V8.125H5.30469C5.79688 8.17969 6.17969 8.34375 6.28906 8.89062L7.05469 12.7734L7.27344 13.9219L9.46094 8.125H11.7578L8.3125 16.6562ZM13.4531 16.6562H11.2656L12.6328 8.125H14.875L13.4531 16.6562ZM21.1094 13.8672C21.1094 15.6172 19.6328 16.7656 17.2812 16.7656C16.2969 16.7656 15.3672 16.5469 14.875 16.3281L15.1484 14.4141L15.4219 14.5234C16.1875 14.8516 16.625 15.0156 17.5 15.0156C18.1562 15.0156 18.8125 14.7422 18.8125 14.1406C18.8125 13.8125 18.5391 13.5391 17.6641 13.1016C16.8438 12.7188 15.75 12.0078 15.75 10.8047C15.75 9.16406 17.2812 8.01562 19.4688 8.01562C20.3438 8.01562 21 8.17969 21.4375 8.34375L21.1641 10.2031L20.9453 10.0938C20.5625 9.92969 20.0156 9.76562 19.3047 9.76562C18.4297 9.76562 18.0469 10.1484 18.0469 10.5312C18.0469 10.9141 18.5391 11.1875 19.3047 11.5703C20.5625 12.1719 21.1641 12.8828 21.1094 13.8672ZM28.875 16.6562H26.7969C26.7969 16.6562 26.6328 15.6719 26.5781 15.3984H23.7344C23.625 15.6172 23.2969 16.6562 23.2969 16.6562H20.9453L24.2266 8.83594C24.4453 8.28906 24.8281 8.125 25.375 8.125H27.0703L28.875 16.6562Z" fill="white"/>
</svg>
