<svg width="42" height="42" viewBox="0 0 42 42" fill="none" xmlns="http://www.w3.org/2000/svg">
<circle cx="21" cy="21" r="21" fill="white"/>
<g clip-path="url(#clip0_144_12458)">
<path d="M29.1563 12.2812H24.3751C24.2259 12.2812 24.0828 12.3405 23.9773 12.446C23.8718 12.5515 23.8126 12.6946 23.8126 12.8437C23.8126 12.9929 23.8718 13.136 23.9773 13.2415C24.0828 13.347 24.2259 13.4062 24.3751 13.4062H27.7523L22.5804 18.343C22.527 18.394 22.4841 18.4551 22.4542 18.5226C22.4244 18.5902 22.4081 18.663 22.4064 18.7369C22.4047 18.8107 22.4175 18.8842 22.4442 18.9531C22.4709 19.022 22.5108 19.085 22.5619 19.1384C22.6129 19.1918 22.6739 19.2347 22.7415 19.2646C22.809 19.2944 22.8818 19.3107 22.9557 19.3124C23.0296 19.3141 23.103 19.3013 23.1719 19.2746C23.2408 19.248 23.3038 19.208 23.3572 19.157L28.5938 14.1583V17.625C28.5938 17.7742 28.6531 17.9173 28.7586 18.0227C28.8641 18.1282 29.0071 18.1875 29.1563 18.1875C29.3055 18.1875 29.4486 18.1282 29.5541 18.0227C29.6596 17.9173 29.7188 17.7742 29.7188 17.625V12.8437C29.7188 12.6946 29.6596 12.5515 29.5541 12.446C29.4486 12.3405 29.3055 12.2812 29.1563 12.2812Z" fill="#294646"/>
<path d="M29.1562 23.8124C29.007 23.8124 28.8639 23.8717 28.7584 23.9772C28.6529 24.0827 28.5937 24.2257 28.5937 24.3749V27.7983L23.3664 22.571C23.2603 22.4685 23.1182 22.4118 22.9707 22.4131C22.8232 22.4144 22.6821 22.4735 22.5778 22.5778C22.4735 22.6821 22.4144 22.8232 22.4131 22.9707C22.4118 23.1182 22.4685 23.2603 22.571 23.3664L27.7983 28.5937H24.3749C24.2257 28.5937 24.0827 28.6529 23.9772 28.7584C23.8717 28.8639 23.8124 29.007 23.8124 29.1562C23.8124 29.3054 23.8717 29.4484 23.9772 29.5539C24.0827 29.6594 24.2257 29.7187 24.3749 29.7187H29.1562C29.3054 29.7187 29.4484 29.6594 29.5539 29.5539C29.6594 29.4484 29.7187 29.3054 29.7187 29.1562V24.3749C29.7187 24.2257 29.6594 24.0827 29.5539 23.9772C29.4484 23.8717 29.3054 23.8124 29.1562 23.8124Z" fill="#294646"/>
<path d="M18.3523 22.8522L13.4062 27.7983V24.3749C13.4062 24.2257 13.347 24.0827 13.2415 23.9772C13.136 23.8717 12.9929 23.8124 12.8438 23.8124C12.6946 23.8124 12.5515 23.8717 12.446 23.9772C12.3405 24.0827 12.2812 24.2257 12.2812 24.3749V29.1562C12.2812 29.3054 12.3405 29.4484 12.446 29.5539C12.5515 29.6594 12.6946 29.7187 12.8438 29.7187H17.625C17.7742 29.7187 17.9173 29.6594 18.0227 29.5539C18.1282 29.4484 18.1875 29.3054 18.1875 29.1562C18.1875 29.007 18.1282 28.8639 18.0227 28.7584C17.9173 28.6529 17.7742 28.5937 17.625 28.5937H14.2016L19.1477 23.6476C19.2502 23.5415 19.3068 23.3994 19.3056 23.2519C19.3043 23.1045 19.2451 22.9634 19.1408 22.8591C19.0365 22.7548 18.8955 22.6956 18.748 22.6944C18.6005 22.6931 18.4584 22.7498 18.3523 22.8522Z" fill="#294646"/>
<path d="M14.2016 13.4062H17.625C17.7742 13.4062 17.9173 13.347 18.0227 13.2415C18.1282 13.136 18.1875 12.9929 18.1875 12.8438C18.1875 12.6946 18.1282 12.5515 18.0227 12.446C17.9173 12.3405 17.7742 12.2812 17.625 12.2812H12.8438C12.6946 12.2812 12.5515 12.3405 12.446 12.446C12.3405 12.5515 12.2812 12.6946 12.2812 12.8438V17.625C12.2812 17.7742 12.3405 17.9173 12.446 18.0227C12.5515 18.1282 12.6946 18.1875 12.8438 18.1875C12.9929 18.1875 13.136 18.1282 13.2415 18.0227C13.347 17.9173 13.4062 17.7742 13.4062 17.625V14.2016L18.3523 19.1477C18.4584 19.2502 18.6005 19.3068 18.748 19.3056C18.8955 19.3043 19.0365 19.2451 19.1408 19.1408C19.2451 19.0365 19.3043 18.8955 19.3056 18.748C19.3068 18.6005 19.2502 18.4584 19.1477 18.3523L14.2016 13.4062Z" fill="#294646"/>
</g>
<defs>
<clipPath id="clip0_144_12458">
<rect width="18" height="18" fill="white" transform="translate(12 12)"/>
</clipPath>
</defs>
</svg>
