<svg width="65" height="64" viewBox="0 0 65 64" fill="none" xmlns="http://www.w3.org/2000/svg">
<path d="M32.773 0C18.1502 0 6.25391 11.4844 6.25391 25.6C6.25391 39.3722 17.58 50.634 31.7122 51.174V62.9333C31.7122 63.5224 32.1867 64 32.773 64C33.3593 64 33.8337 63.5224 33.8337 62.9333V51.174C47.9659 50.634 59.292 39.3722 59.292 25.6C59.292 11.4844 47.3958 0 32.773 0ZM33.8337 49.0408V32.4411L38.8268 27.4203C39.2411 27.0036 39.2411 26.3286 38.8268 25.912C38.4124 25.4953 37.7411 25.4953 37.3268 25.912L33.8337 29.4245V20.2719C33.8337 19.6828 33.3593 19.2052 32.773 19.2052C32.1867 19.2052 31.7122 19.6828 31.7122 20.2719V35.824L27.1584 31.2448C26.744 30.8281 26.0728 30.8281 25.6584 31.2448C25.244 31.6615 25.244 32.3365 25.6584 32.7531L31.7122 38.8406V49.0408C18.7495 48.5043 8.37543 38.1975 8.37543 25.6C8.37543 12.6604 19.3197 2.13333 32.773 2.13333C46.2262 2.13333 57.1705 12.6604 57.1705 25.6C57.1705 38.1975 46.7964 48.5043 33.8337 49.0408Z" fill="#111111"/>
<rect x="31.6787" y="19" width="2.18782" height="45" rx="1.09391" fill="#2355D6"/>
<rect width="2.32618" height="10.6003" rx="1.16309" transform="matrix(0.705142 0.709066 -0.705142 0.709066 38.9316 24)" fill="#2355D6"/>
<rect width="2.5067" height="11.2133" rx="1.25335" transform="matrix(-0.705142 0.709066 0.705142 0.709066 26.458 30)" fill="#2355D6"/>
</svg>
