<svg width="65" height="64" viewBox="0 0 65 64" fill="none" xmlns="http://www.w3.org/2000/svg">
<g clip-path="url(#clip0_2428_18425)">
<path d="M60.8863 9.60052H42.8533V3.2C42.8533 1.43541 41.4259 0 39.671 0H3.60514C1.85032 0 0.422852 1.43541 0.422852 3.2V51.2C0.422852 52.9646 1.85032 54.4 3.60514 54.4H21.6381V60.8C21.6381 62.5646 23.0656 64 24.8204 64H42.8663C43.4521 64 43.9265 63.5229 43.927 62.9339C43.9327 52.3599 52.4929 43.7521 63.0083 43.7464C63.5941 43.7458 64.0686 43.2688 64.0686 42.6797V12.8005C64.0686 11.0359 62.6411 9.60052 60.8863 9.60052ZM3.60514 52.2667C3.02037 52.2667 2.54438 51.788 2.54438 51.2V3.2C2.54438 2.61198 3.02037 2.13333 3.60514 2.13333H39.671C40.2558 2.13333 40.7318 2.61198 40.7318 3.2V9.60052H24.8204C23.0656 9.60052 21.6381 11.0359 21.6381 12.8005V52.2667H3.60514ZM61.9471 41.6401C51.1038 42.1854 42.3748 50.963 41.8325 61.8667H24.8204C24.2356 61.8667 23.7596 61.388 23.7596 60.8V12.8005C23.7596 12.2125 24.2356 11.7339 24.8204 11.7339H60.8863C61.4711 11.7339 61.9471 12.2125 61.9471 12.8005V41.6401Z" fill="#111111"/>
<path d="M38.6099 57.6016H37.0188C36.433 57.6016 35.958 58.0792 35.958 58.6682C35.958 59.2573 36.433 59.7349 37.0188 59.7349H38.6099C39.1957 59.7349 39.6707 59.2573 39.6707 58.6682C39.6707 58.0792 39.1957 57.6016 38.6099 57.6016Z" fill="#2355D6"/>
<path d="M33.7555 57.6016H31.7971C31.2113 57.6016 30.7363 58.0792 30.7363 58.6682C30.7363 59.2573 31.2113 59.7349 31.7971 59.7349H33.7555C34.3413 59.7349 34.8162 59.2573 34.8162 58.6682C34.8162 58.0792 34.3413 57.6016 33.7555 57.6016Z" fill="#2355D6"/>
<path d="M28.5328 57.6H28.0024V57.0667C28.0024 56.4776 27.5274 56 26.9416 56C26.3558 56 25.8809 56.4776 25.8809 57.0667V58.6667C25.8809 59.2557 26.3558 59.7333 26.9416 59.7333H28.5328C29.1186 59.7333 29.5935 59.2557 29.5935 58.6667C29.5935 58.0776 29.1186 57.6 28.5328 57.6Z" fill="#2355D6"/>
<path d="M26.9416 26.3656C27.5274 26.3656 28.0024 25.888 28.0024 25.299V22.012C28.0024 21.4229 27.5274 20.9453 26.9416 20.9453C26.3558 20.9453 25.8809 21.4229 25.8809 22.012V25.299C25.8809 25.888 26.3558 26.3656 26.9416 26.3656Z" fill="#2355D6"/>
<path d="M26.9416 43.8924C27.5274 43.8924 28.0024 43.4148 28.0024 42.8258V39.5393C28.0024 38.9503 27.5274 38.4727 26.9416 38.4727C26.3558 38.4727 25.8809 38.9503 25.8809 39.5393V42.8258C25.8809 43.4148 26.3558 43.8924 26.9416 43.8924Z" fill="#2355D6"/>
<path d="M26.9416 52.6542C27.5274 52.6542 28.0024 52.1766 28.0024 51.5875V48.301C28.0024 47.712 27.5274 47.2344 26.9416 47.2344C26.3558 47.2344 25.8809 47.712 25.8809 48.301V51.5875C25.8809 52.1765 26.3558 52.6542 26.9416 52.6542Z" fill="#2355D6"/>
<path d="M26.9416 35.1268C27.5274 35.1268 28.0024 34.6492 28.0024 34.0602V30.7737C28.0024 30.1846 27.5274 29.707 26.9416 29.707C26.3558 29.707 25.8809 30.1846 25.8809 30.7737V34.0602C25.8809 34.6492 26.3558 35.1268 26.9416 35.1268Z" fill="#2355D6"/>
<path d="M28.5328 13.8672H26.9416C26.3558 13.8672 25.8809 14.3448 25.8809 14.9339V16.5339C25.8809 17.1229 26.3558 17.6005 26.9416 17.6005C27.5274 17.6005 28.0024 17.1229 28.0024 16.5339V16.0005H28.5328C29.1186 16.0005 29.5935 15.5229 29.5935 14.9339C29.5935 14.3448 29.1186 13.8672 28.5328 13.8672Z" fill="#2355D6"/>
<path d="M52.2354 13.8672H49.2727C48.6869 13.8672 48.2119 14.3448 48.2119 14.9339C48.2119 15.5229 48.6869 16.0005 49.2727 16.0005H52.2354C52.8212 16.0005 53.2961 15.5229 53.2961 14.9339C53.2961 14.3448 52.8211 13.8672 52.2354 13.8672Z" fill="#2355D6"/>
<path d="M44.335 13.8672H41.3723C40.7865 13.8672 40.3115 14.3448 40.3115 14.9339C40.3115 15.5229 40.7865 16.0005 41.3723 16.0005H44.335C44.9208 16.0005 45.3957 15.5229 45.3957 14.9339C45.3957 14.3448 44.9208 13.8672 44.335 13.8672Z" fill="#2355D6"/>
<path d="M33.4709 16.0005H36.4336C37.0194 16.0005 37.4944 15.5229 37.4944 14.9339C37.4944 14.3448 37.0194 13.8672 36.4336 13.8672H33.4709C32.8851 13.8672 32.4102 14.3448 32.4102 14.9339C32.4102 15.5229 32.8851 16.0005 33.4709 16.0005Z" fill="#2355D6"/>
<path d="M58.7652 13.8672H57.174C56.5882 13.8672 56.1133 14.3448 56.1133 14.9339C56.1133 15.5229 56.5882 16.0005 57.174 16.0005H57.7044V16.5339C57.7044 17.1229 58.1794 17.6005 58.7652 17.6005C59.351 17.6005 59.8259 17.1229 59.8259 16.5339V14.9339C59.8259 14.3448 59.351 13.8672 58.7652 13.8672Z" fill="#2355D6"/>
<path d="M58.7649 20.293C58.1791 20.293 57.7041 20.7706 57.7041 21.3596V24.255C57.7041 24.844 58.1791 25.3216 58.7649 25.3216C59.3507 25.3216 59.8256 24.844 59.8256 24.255V21.3596C59.8256 20.7706 59.3507 20.293 58.7649 20.293Z" fill="#2355D6"/>
<path d="M58.7649 28.0117C58.1791 28.0117 57.7041 28.4893 57.7041 29.0784V31.9732C57.7041 32.5622 58.1791 33.0398 58.7649 33.0398C59.3507 33.0398 59.8256 32.5622 59.8256 31.9732V29.0784C59.8256 28.4893 59.3507 28.0117 58.7649 28.0117Z" fill="#2355D6"/>
<path d="M58.7649 35.7344C58.1791 35.7344 57.7041 36.212 57.7041 36.801V38.401C57.7041 38.9901 58.1791 39.4677 58.7649 39.4677C59.3507 39.4677 59.8256 38.9901 59.8256 38.401V36.801C59.8256 36.212 59.3507 35.7344 58.7649 35.7344Z" fill="#2355D6"/>
</g>
<defs>
<clipPath id="clip0_2428_18425">
<rect width="63.6457" height="64" fill="white" transform="translate(0.422852)"/>
</clipPath>
</defs>
</svg>
