<svg width="40" height="40" viewBox="0 0 40 40" fill="none" xmlns="http://www.w3.org/2000/svg">
<rect opacity="0.1" width="40" height="40" rx="20" fill="white"/>
<path d="M24.8534 19.6465L21.3534 16.1465C21.2559 16.049 21.1279 16 20.9999 16C20.8719 16 20.7439 16.049 20.6464 16.1465C20.4509 16.342 20.4509 16.658 20.6464 16.8535L23.2929 19.5L15.4999 19.5C15.2234 19.5 14.9999 19.7235 14.9999 20C14.9999 20.2765 15.2234 20.5 15.4999 20.5L23.2929 20.5L20.6464 23.1465C20.4509 23.342 20.4509 23.658 20.6464 23.8535C20.8419 24.049 21.1579 24.049 21.3534 23.8535L24.8534 20.3535C25.0489 20.158 25.0489 19.842 24.8534 19.6465Z" fill="white"/>
</svg>
