<svg width="46" height="32" viewBox="0 0 46 32" fill="none" xmlns="http://www.w3.org/2000/svg">
<rect width="46" height="32" rx="4" fill="white"/>
<path fill-rule="evenodd" clip-rule="evenodd" d="M10.9672 11.9113C11.585 11.9641 12.2027 11.5941 12.5888 11.1249C12.9685 10.6424 13.2195 9.99482 13.1551 9.33398C12.6082 9.36042 11.9325 9.70405 11.5464 10.1865C11.1924 10.6028 10.89 11.2769 10.9672 11.9113ZM18.3164 20.422V10.1195H22.0809C24.0243 10.1195 25.3821 11.494 25.3821 13.503C25.3821 15.5119 23.9985 16.8997 22.0294 16.8997H19.8737V20.422H18.3164ZM13.1496 12.0349C12.6054 12.0028 12.1088 12.203 11.7077 12.3648C11.4495 12.4688 11.231 12.557 11.0647 12.557C10.878 12.557 10.6504 12.4641 10.3949 12.3599L10.3949 12.3599C10.06 12.2233 9.67718 12.0671 9.27571 12.0746C8.35549 12.0878 7.49963 12.6231 7.02986 13.4756C6.0646 15.1805 6.7789 17.7049 7.71198 19.0927C8.16887 19.78 8.71586 20.5333 9.43659 20.5069C9.75366 20.4946 9.98175 20.3952 10.2178 20.2924C10.4896 20.1739 10.7719 20.0509 11.2127 20.0509C11.6382 20.0509 11.9082 20.1707 12.1673 20.2857C12.4137 20.3951 12.6503 20.5001 13.0016 20.4937C13.7481 20.4805 14.2179 19.8064 14.6747 19.1191C15.1678 18.3815 15.3845 17.6616 15.4174 17.5524L15.4212 17.5397C15.4204 17.5389 15.4143 17.5361 15.4036 17.531C15.2388 17.4535 13.979 16.8612 13.9669 15.273C13.9548 13.94 14.9661 13.2646 15.1253 13.1582L15.1253 13.1582L15.1254 13.1582C15.135 13.1518 15.1416 13.1474 15.1445 13.1451C14.501 12.1671 13.4971 12.0614 13.1496 12.0349ZM28.2263 20.5005C29.2044 20.5005 30.1118 19.9917 30.5236 19.1854H30.5558V20.4212H31.9973V15.2931C31.9973 13.8062 30.839 12.848 29.0564 12.848C27.4026 12.848 26.18 13.8194 26.1349 15.1543H27.5378C27.6536 14.5199 28.2263 14.1036 29.0114 14.1036C29.9638 14.1036 30.4979 14.5596 30.4979 15.3988V15.9671L28.5545 16.0861C26.7462 16.1984 25.7681 16.9584 25.7681 18.2801C25.7681 19.615 26.7784 20.5005 28.2263 20.5005ZM28.6452 19.2777C27.8151 19.2777 27.2874 18.868 27.2874 18.2402C27.2874 17.5926 27.7958 17.2159 28.7675 17.1565L30.4985 17.0441V17.6256C30.4985 18.5905 29.7005 19.2777 28.6452 19.2777ZM36.7787 20.8285C36.1545 22.6326 35.4402 23.2274 33.9215 23.2274C33.8057 23.2274 33.4196 23.2142 33.3295 23.1877V21.952C33.426 21.9652 33.6641 21.9784 33.7864 21.9784C34.4749 21.9784 34.861 21.681 35.0991 20.9078L35.2407 20.4519L32.6023 12.9513H34.2304L36.0644 19.0377H36.0966L37.9306 12.9513H39.5136L36.7787 20.8285ZM19.8744 11.4682H21.6698C23.0212 11.4682 23.7934 12.2084 23.7934 13.5102C23.7934 14.8121 23.0212 15.5588 21.6634 15.5588H19.8744V11.4682Z" fill="black"/>
</svg>
