<svg width="36" height="36" viewBox="0 0 36 36" fill="none" xmlns="http://www.w3.org/2000/svg">
<mask id="path-1-inside-1_53_664" fill="white">
<path d="M33.2172 1.97266H2.78278C1.24838 1.97266 0 3.22103 0 4.75543V22.7907C0 24.3251 1.24838 25.5734 2.78278 25.5734H15.182C15.4738 25.5734 15.7104 25.3369 15.7104 25.0451C15.7104 24.7533 15.4738 24.5167 15.182 24.5167H2.78278C1.83107 24.5167 1.05675 23.7424 1.05675 22.7907V4.75543C1.05675 3.80372 1.83107 3.02941 2.78278 3.02941H33.2172C34.1689 3.02941 34.9432 3.80372 34.9432 4.75543V22.7907C34.9432 23.0825 35.1798 23.319 35.4716 23.319C35.7634 23.319 36 23.0825 36 22.7907V4.75543C36 3.22103 34.7516 1.97266 33.2172 1.97266Z"/>
</mask>
<path d="M33.2172 -2.02734H2.78278V5.97266H33.2172V-2.02734ZM2.78278 -2.02734C-0.960763 -2.02734 -4 1.01189 -4 4.75543H4C4 5.43017 3.45751 5.97266 2.78278 5.97266V-2.02734ZM-4 4.75543V22.7907H4V4.75543H-4ZM-4 22.7907C-4 26.5342 -0.960763 29.5734 2.78278 29.5734V21.5734C3.45751 21.5734 4 22.1159 4 22.7907H-4ZM2.78278 29.5734H15.182V21.5734H2.78278V29.5734ZM15.182 29.5734C17.6829 29.5734 19.7104 27.546 19.7104 25.0451H11.7104C11.7104 23.1277 13.2647 21.5734 15.182 21.5734V29.5734ZM19.7104 25.0451C19.7104 22.5441 17.6829 20.5167 15.182 20.5167V28.5167C13.2647 28.5167 11.7104 26.9624 11.7104 25.0451H19.7104ZM15.182 20.5167H2.78278V28.5167H15.182V20.5167ZM2.78278 20.5167C4.04021 20.5167 5.05675 21.5332 5.05675 22.7907H-2.94325C-2.94325 25.9515 -0.378071 28.5167 2.78278 28.5167V20.5167ZM5.05675 22.7907V4.75543H-2.94325V22.7907H5.05675ZM5.05675 4.75543C5.05675 6.01286 4.04021 7.02941 2.78278 7.02941V-0.970592C-0.378071 -0.970592 -2.94325 1.59459 -2.94325 4.75543H5.05675ZM2.78278 7.02941H33.2172V-0.970592H2.78278V7.02941ZM33.2172 7.02941C31.9598 7.02941 30.9432 6.01286 30.9432 4.75543H38.9432C38.9432 1.59459 36.3781 -0.970592 33.2172 -0.970592V7.02941ZM30.9432 4.75543V22.7907H38.9432V4.75543H30.9432ZM30.9432 22.7907C30.9432 25.2916 32.9707 27.319 35.4716 27.319V19.319C37.389 19.319 38.9432 20.8733 38.9432 22.7907H30.9432ZM35.4716 27.319C37.9726 27.319 40 25.2916 40 22.7907H32C32 20.8733 33.5543 19.319 35.4716 19.319V27.319ZM40 22.7907V4.75543H32V22.7907H40ZM40 4.75543C40 1.01189 36.9608 -2.02734 33.2172 -2.02734V5.97266C32.5425 5.97266 32 5.43017 32 4.75543H40Z" fill="#111111" mask="url(#path-1-inside-1_53_664)"/>
<path d="M4.47369 16.2465C4.6314 16.2465 4.78331 16.2713 4.92574 16.3172C4.97418 16.397 5.00206 16.4907 5.00206 16.5909V17.7181C5.00206 17.8183 4.97418 17.9119 4.92574 17.9918C4.78331 18.0377 4.6314 18.0625 4.47369 18.0625C4.31598 18.0625 4.16407 18.0377 4.02164 17.9918C3.9732 17.9119 3.94531 17.8183 3.94531 17.7181V16.5909C3.94531 16.4907 3.9732 16.397 4.02164 16.3172C4.16407 16.2713 4.31598 16.2465 4.47369 16.2465Z" stroke="#111111" stroke-width="4"/>
<path d="M7.85504 16.2465C8.01275 16.2465 8.16466 16.2713 8.30709 16.3172C8.35552 16.397 8.38341 16.4907 8.38341 16.5909V17.7181C8.38341 17.8183 8.35552 17.9119 8.30709 17.9918C8.16466 18.0377 8.01275 18.0625 7.85504 18.0625C7.69733 18.0625 7.54541 18.0377 7.40298 17.9918C7.35455 17.9119 7.32666 17.8183 7.32666 17.7181V16.5909C7.32666 16.4907 7.35455 16.397 7.40298 16.3172C7.54541 16.2713 7.69733 16.2465 7.85504 16.2465Z" stroke="#111111" stroke-width="4"/>
<path d="M12.2524 17.9918C12.11 18.0377 11.9581 18.0625 11.8003 18.0625C11.6426 18.0625 11.4907 18.0377 11.3483 17.9918C11.2999 17.9119 11.272 17.8183 11.272 17.7181V16.5909C11.272 16.4907 11.2999 16.397 11.3483 16.3172C11.4907 16.2713 11.6426 16.2465 11.8003 16.2465C11.9581 16.2465 12.11 16.2713 12.2524 16.3172C12.3008 16.397 12.3287 16.4907 12.3287 16.5909V17.7181C12.3287 17.8183 12.3008 17.9119 12.2524 17.9918Z" stroke="#111111" stroke-width="4"/>
<path d="M15.7106 16.5909C15.7106 16.4907 15.6827 16.397 15.6342 16.3172C15.4918 16.2713 15.3399 16.2465 15.1822 16.2465C15.0245 16.2465 14.8726 16.2713 14.7301 16.3172C14.6817 16.397 14.6538 16.4907 14.6538 16.5909V17.7181C14.6538 17.8183 14.6817 17.9119 14.7301 17.9918C14.8726 18.0377 15.0245 18.0625 15.1822 18.0625C15.3399 18.0625 15.4918 18.0377 15.6342 17.9918C15.6827 17.9119 15.7106 17.8183 15.7106 17.7181V16.5909Z" stroke="#111111" stroke-width="4"/>
<mask id="path-7-inside-2_53_664" fill="white">
<path d="M26.2718 11.6124C27.8062 11.6124 29.0546 10.3641 29.0546 8.82965C29.0546 7.29525 27.8062 6.04688 26.2718 6.04688H22.8902C21.3558 6.04688 20.1074 7.29525 20.1074 8.82965C20.1074 10.3641 21.3558 11.6124 22.8902 11.6124H26.2718ZM21.1642 8.82965C21.1642 7.87794 21.9385 7.10363 22.8902 7.10363H26.2718C27.2235 7.10363 27.9978 7.87794 27.9978 8.82965C27.9978 9.78136 27.2235 10.5557 26.2718 10.5557H22.8902C21.9385 10.5557 21.1642 9.78136 21.1642 8.82965Z"/>
</mask>
<path d="M26.2718 15.6124C30.0153 15.6124 33.0546 12.5732 33.0546 8.82965H25.0546C25.0546 8.15492 25.5971 7.61243 26.2718 7.61243V15.6124ZM33.0546 8.82965C33.0546 5.08611 30.0153 2.04688 26.2718 2.04688V10.0469C25.5971 10.0469 25.0546 9.50439 25.0546 8.82965H33.0546ZM26.2718 2.04688H22.8902V10.0469H26.2718V2.04688ZM22.8902 2.04688C19.1467 2.04688 16.1074 5.08611 16.1074 8.82965H24.1074C24.1074 9.50439 23.5649 10.0469 22.8902 10.0469V2.04688ZM16.1074 8.82965C16.1074 12.5732 19.1467 15.6124 22.8902 15.6124V7.61243C23.5649 7.61243 24.1074 8.15492 24.1074 8.82965H16.1074ZM22.8902 15.6124H26.2718V7.61243H22.8902V15.6124ZM25.1642 8.82965C25.1642 10.0871 24.1476 11.1036 22.8902 11.1036V3.10363C19.7294 3.10363 17.1642 5.66881 17.1642 8.82965H25.1642ZM22.8902 11.1036H26.2718V3.10363H22.8902V11.1036ZM26.2718 11.1036C25.0144 11.1036 23.9978 10.0871 23.9978 8.82965H31.9978C31.9978 5.66881 29.4327 3.10363 26.2718 3.10363V11.1036ZM23.9978 8.82965C23.9978 7.57223 25.0144 6.55568 26.2718 6.55568V14.5557C29.4327 14.5557 31.9978 11.9905 31.9978 8.82965H23.9978ZM26.2718 6.55568H22.8902V14.5557H26.2718V6.55568ZM22.8902 6.55568C24.1476 6.55568 25.1642 7.57223 25.1642 8.82965H17.1642C17.1642 11.9905 19.7294 14.5557 22.8902 14.5557V6.55568Z" fill="#111111" mask="url(#path-7-inside-2_53_664)"/>
<mask id="path-9-inside-3_53_664" fill="white">
<path d="M33.3781 19.3684C33.258 19.2853 33.1088 19.2557 32.9661 19.2863C32.4859 19.3899 32.0016 19.4425 31.5265 19.4425C29.1805 19.4425 27.03 18.2508 25.7741 16.2548C25.6774 16.1011 25.5085 16.0078 25.3269 16.0078C25.1453 16.0078 24.9764 16.1011 24.8797 16.2548C23.6239 18.2508 21.4734 19.4425 19.1274 19.4425C18.6524 19.4425 18.1681 19.3899 17.6878 19.2863C17.5452 19.2556 17.3959 19.2852 17.2758 19.3684C17.1557 19.4514 17.0753 19.5805 17.0538 19.725C16.9572 20.3731 16.9082 21.0247 16.9082 21.6616C16.9082 27.2001 20.3779 32.3882 25.1583 33.998C25.213 34.0164 25.27 34.0256 25.327 34.0256C25.384 34.0256 25.4409 34.0164 25.4956 33.998C30.2761 32.3882 33.7458 27.2001 33.7458 21.6616C33.7458 21.0247 33.6968 20.3731 33.6002 19.725C33.5786 19.5805 33.4982 19.4514 33.3781 19.3684ZM20.0962 28.6739C18.7219 26.5991 17.965 24.1087 17.965 21.6616C17.965 21.253 17.987 20.8374 18.0306 20.4206C18.3974 20.4729 18.7645 20.4992 19.1274 20.4992C21.303 20.4992 23.3321 19.6127 24.7986 18.0716V32.7284C22.9697 31.938 21.3195 30.5206 20.0962 28.6739ZM30.5578 28.6739C29.3345 30.5206 27.6843 31.938 25.8554 32.7284V18.0716C27.3219 19.6127 29.351 20.4992 31.5266 20.4992C31.8895 20.4992 32.2566 20.4728 32.6234 20.4206C32.667 20.8374 32.689 21.253 32.689 21.6616C32.689 24.1087 31.9321 26.5991 30.5578 28.6739Z"/>
</mask>
<path d="M32.9661 19.2863L32.1264 15.3755L32.1228 15.3763L32.9661 19.2863ZM25.7741 16.2548L29.1597 14.1246L29.1597 14.1245L25.7741 16.2548ZM24.8797 16.2548L21.4942 14.1245L21.494 14.1247L24.8797 16.2548ZM17.6878 19.2863L18.531 15.3762L18.5301 15.376L17.6878 19.2863ZM17.2758 19.3684L19.5508 22.6584L19.5522 22.6575L17.2758 19.3684ZM17.0538 19.725L21.0101 20.315L21.0103 20.3136L17.0538 19.725ZM25.1583 33.998L23.8818 37.7889L23.8832 37.7893L25.1583 33.998ZM25.4956 33.998L26.7693 37.7898L26.7722 37.7889L25.4956 33.998ZM33.6002 19.725L37.5564 19.135L37.5564 19.1347L33.6002 19.725ZM20.0962 28.6739L16.7614 30.8828L16.7615 30.8829L20.0962 28.6739ZM18.0306 20.4206L18.595 16.4606L14.4843 15.8747L14.0523 20.0044L18.0306 20.4206ZM24.7986 18.0716H28.7986V8.0663L21.901 15.3141L24.7986 18.0716ZM24.7986 32.7284L23.2118 36.4002L28.7986 38.8146V32.7284H24.7986ZM30.5578 28.6739L33.8925 30.8829L33.8925 30.8828L30.5578 28.6739ZM25.8554 32.7284H21.8554V38.8148L27.4423 36.4002L25.8554 32.7284ZM25.8554 18.0716L28.7529 15.3141L21.8554 8.0663V18.0716H25.8554ZM32.6234 20.4206L36.6017 20.0044L36.1697 15.8755L32.0597 16.4605L32.6234 20.4206ZM35.6531 16.0783C34.6228 15.3659 33.3461 15.1136 32.1264 15.3755L33.8058 23.1972C32.8716 23.3978 31.8931 23.2047 31.1031 22.6584L35.6531 16.0783ZM32.1228 15.3763C31.9101 15.4221 31.7083 15.4425 31.5265 15.4425V23.4425C32.2948 23.4425 33.0618 23.3577 33.8094 23.1964L32.1228 15.3763ZM31.5265 15.4425C30.564 15.4425 29.688 14.9643 29.1597 14.1246L22.3885 18.385C24.3719 21.5374 27.7969 23.4425 31.5265 23.4425V15.4425ZM29.1597 14.1245C28.3309 12.8074 26.8836 12.0078 25.3269 12.0078V20.0078C24.1334 20.0078 23.0239 19.3948 22.3886 18.3851L29.1597 14.1245ZM25.3269 12.0078C23.7702 12.0078 22.323 12.8074 21.4942 14.1245L28.2652 18.3851C27.6299 19.3948 26.5204 20.0078 25.3269 20.0078V12.0078ZM21.494 14.1247C20.9659 14.9642 20.0899 15.4425 19.1274 15.4425V23.4425C22.857 23.4425 26.282 21.5374 28.2654 18.3849L21.494 14.1247ZM19.1274 15.4425C18.9457 15.4425 18.7439 15.4221 18.531 15.3762L16.8446 23.1965C17.5922 23.3577 18.3591 23.4425 19.1274 23.4425V15.4425ZM18.5301 15.376C17.3088 15.1129 16.0303 15.3658 14.9995 16.0792L19.5522 22.6575C18.7616 23.2046 17.7816 23.3983 16.8455 23.1967L18.5301 15.376ZM15.0008 16.0783C13.9709 16.7905 13.2817 17.8975 13.0974 19.1363L21.0103 20.3136C20.8689 21.2636 20.3405 22.1123 19.5508 22.6584L15.0008 16.0783ZM13.0976 19.135C12.9726 19.973 12.9082 20.8218 12.9082 21.6616H20.9082C20.9082 21.2276 20.9417 20.7732 21.0101 20.315L13.0976 19.135ZM12.9082 21.6616C12.9082 28.692 17.2701 35.5624 23.8818 37.7889L26.4349 30.2072C23.4856 29.214 20.9082 25.7082 20.9082 21.6616H12.9082ZM23.8832 37.7893C24.3507 37.9466 24.8385 38.0256 25.327 38.0256V30.0256C25.7015 30.0256 26.0753 30.0863 26.4335 30.2067L23.8832 37.7893ZM25.327 38.0256C25.8163 38.0256 26.3034 37.9463 26.7693 37.7898L24.222 30.2062C24.5784 30.0865 24.9516 30.0256 25.327 30.0256V38.0256ZM26.7722 37.7889C33.3839 35.5624 37.7458 28.692 37.7458 21.6616H29.7458C29.7458 25.7082 27.1683 29.214 24.2191 30.2072L26.7722 37.7889ZM37.7458 21.6616C37.7458 20.8218 37.6814 19.973 37.5564 19.135L29.6439 20.315C29.7122 20.7732 29.7458 21.2276 29.7458 21.6616H37.7458ZM37.5564 19.1347C37.3716 17.8966 36.6827 16.7903 35.6531 16.0783L31.1031 22.6584C30.3137 22.1126 29.7856 21.2643 29.6439 20.3152L37.5564 19.1347ZM23.431 26.465C22.4826 25.0333 21.965 23.309 21.965 21.6616H13.965C13.965 24.9085 14.9611 28.1649 16.7614 30.8828L23.431 26.465ZM21.965 21.6616C21.965 21.3961 21.9793 21.1196 22.0089 20.8368L14.0523 20.0044C13.9947 20.5553 13.965 21.1098 13.965 21.6616H21.965ZM17.4662 24.3806C18.0157 24.4589 18.5714 24.4992 19.1274 24.4992V16.4992C18.9576 16.4992 18.7791 16.4868 18.595 16.4606L17.4662 24.3806ZM19.1274 24.4992C22.406 24.4992 25.48 23.1579 27.6962 20.8292L21.901 15.3141C21.1841 16.0674 20.1999 16.4992 19.1274 16.4992V24.4992ZM20.7986 18.0716V32.7284H28.7986V18.0716H20.7986ZM26.3854 29.0566C25.3396 28.6046 24.2705 27.7323 23.4309 26.4649L16.7615 30.8829C18.3685 33.3089 20.5999 35.2714 23.2118 36.4002L26.3854 29.0566ZM27.223 26.4649C26.3834 27.7324 25.3144 28.6046 24.2685 29.0567L27.4423 36.4002C30.0542 35.2713 32.2855 33.3088 33.8925 30.8829L27.223 26.4649ZM29.8554 32.7284V18.0716H21.8554V32.7284H29.8554ZM22.9578 20.8292C25.174 23.1579 28.248 24.4992 31.5266 24.4992V16.4992C30.4541 16.4992 29.4699 16.0674 28.7529 15.3141L22.9578 20.8292ZM31.5266 24.4992C32.0831 24.4992 32.6386 24.4587 33.187 24.3807L32.0597 16.4605C31.8746 16.4868 31.6959 16.4992 31.5266 16.4992V24.4992ZM28.6451 20.8368C28.6747 21.1196 28.689 21.3961 28.689 21.6616H36.689C36.689 21.1098 36.6593 20.5553 36.6017 20.0044L28.6451 20.8368ZM28.689 21.6616C28.689 23.309 28.1713 25.0333 27.223 26.465L33.8925 30.8828C35.6929 28.1649 36.689 24.9085 36.689 21.6616H28.689Z" fill="#111111" mask="url(#path-9-inside-3_53_664)"/>
</svg>
