<svg width="26" height="73" viewBox="0 0 26 73" fill="none" xmlns="http://www.w3.org/2000/svg">
<g clip-path="url(#clip0_1256_14597)">
<path fill-rule="evenodd" clip-rule="evenodd" d="M0.990096 13.5607C0.697196 13.2678 0.697196 12.793 0.990096 12.5001L12.7763 0.713899C12.8129 0.677301 12.8524 0.645295 12.8939 0.617799C13.1851 0.425599 13.5807 0.457597 13.8369 0.713899L25.6231 12.5001C25.916 12.793 25.916 13.2678 25.6231 13.5607C25.3302 13.8536 24.8553 13.8536 24.5624 13.5607L14.0566 3.0549L14.0566 71.75C14.0566 72.1642 13.7208 72.5 13.3066 72.5C12.8924 72.5 12.5566 72.1642 12.5566 71.75L12.5566 3.0549L2.0508 13.5607C1.7579 13.8536 1.283 13.8536 0.990096 13.5607Z" fill="#111111"/>
</g>
<defs>
<clipPath id="clip0_1256_14597">
<rect width="26" height="73" fill="white" transform="translate(26 73) rotate(180)"/>
</clipPath>
</defs>
</svg>
