<svg width="18" height="19" viewBox="0 0 18 19" fill="none" xmlns="http://www.w3.org/2000/svg">
<path d="M9.27344 18.0156C9.03906 18.224 8.81771 18.224 8.60938 18.0156L0.445312 9.8125C0.210938 9.60417 0.210938 9.39583 0.445312 9.1875L8.60938 0.984375C8.81771 0.776042 9.03906 0.776042 9.27344 0.984375L10.0547 1.76562C10.263 1.97396 10.263 2.19531 10.0547 2.42969L4 8.48438H17.3203C17.6328 8.48438 17.7891 8.64062 17.7891 8.95312V10.0469C17.7891 10.3594 17.6328 10.5156 17.3203 10.5156H4L10.0547 16.5703C10.263 16.8047 10.263 17.026 10.0547 17.2344L9.27344 18.0156Z" fill="#111111"/>
</svg>
