<svg width="18" height="19" viewBox="0 0 18 19" fill="none" xmlns="http://www.w3.org/2000/svg">
<path d="M15.875 0.75C16.3958 0.75 16.8385 0.932292 17.2031 1.29688C17.5677 1.66146 17.75 2.10417 17.75 2.625V16.375C17.75 16.8958 17.5677 17.3385 17.2031 17.7031C16.8385 18.0677 16.3958 18.25 15.875 18.25H2.125C1.60417 18.25 1.16146 18.0677 0.796875 17.7031C0.432292 17.3385 0.25 16.8958 0.25 16.375V2.625C0.25 2.10417 0.432292 1.66146 0.796875 1.29688C1.16146 0.932292 1.60417 0.75 2.125 0.75H15.875ZM16.5 16.375V2.625C16.5 2.44271 16.4349 2.29948 16.3047 2.19531C16.2005 2.0651 16.0573 2 15.875 2H2.125C1.94271 2 1.78646 2.0651 1.65625 2.19531C1.55208 2.29948 1.5 2.44271 1.5 2.625V16.375C1.5 16.5573 1.55208 16.7135 1.65625 16.8438C1.78646 16.9479 1.94271 17 2.125 17H15.875C16.0573 17 16.2005 16.9479 16.3047 16.8438C16.4349 16.7135 16.5 16.5573 16.5 16.375Z" fill="#EEEEEE"/>
</svg>
