<svg width="14" height="13" viewBox="0 0 14 13" fill="none" xmlns="http://www.w3.org/2000/svg">
<path d="M8.36719 6.5L13.2109 11.3438C13.3411 11.474 13.3411 11.6172 13.2109 11.7734L12.3125 12.6719C12.1562 12.8021 12.013 12.8021 11.8828 12.6719L11.0625 11.8125L7.03906 7.82812L2.19531 12.6719C2.0651 12.8021 1.92188 12.8021 1.76562 12.6719L0.867188 11.7734C0.736979 11.6172 0.736979 11.474 0.867188 11.3438L5.71094 6.5L0.867188 1.65625C0.736979 1.52604 0.736979 1.38281 0.867188 1.22656L1.76562 0.328125C1.92188 0.197917 2.0651 0.197917 2.19531 0.328125L7.03906 5.17188L11.8828 0.328125C12.013 0.197917 12.1562 0.197917 12.3125 0.328125L13.2109 1.22656C13.3411 1.38281 13.3411 1.52604 13.2109 1.65625L12.3516 2.47656L8.36719 6.5Z" fill="#111111"/>
</svg>
