<svg width="28" height="28" viewBox="0 0 28 28" fill="none" xmlns="http://www.w3.org/2000/svg">
<path d="M15.3672 14.5L20.2109 19.3438C20.3411 19.474 20.3411 19.6172 20.2109 19.7734L19.3125 20.6719C19.1562 20.8021 19.013 20.8021 18.8828 20.6719L18.0625 19.8125L14.0391 15.8281L9.19531 20.6719C9.0651 20.8021 8.92188 20.8021 8.76562 20.6719L7.86719 19.7734C7.73698 19.6172 7.73698 19.474 7.86719 19.3438L12.7109 14.5L7.86719 9.65625C7.73698 9.52604 7.73698 9.38281 7.86719 9.22656L8.76562 8.32812C8.92188 8.19792 9.0651 8.19792 9.19531 8.32812L14.0391 13.1719L18.8828 8.32812C19.013 8.19792 19.1562 8.19792 19.3125 8.32812L20.2109 9.22656C20.3411 9.38281 20.3411 9.52604 20.2109 9.65625L19.3516 10.4766L15.3672 14.5Z" fill="white"/>
</svg>
