<svg width="64" height="64" viewBox="0 0 64 64" fill="none" xmlns="http://www.w3.org/2000/svg">
<path d="M51.944 22.6673H42.6667V16.0007C42.6667 9.91932 38.0814 5.33398 32 5.33398C25.9187 5.33398 21.3334 9.91932 21.3334 16.0007V22.6673H12.052L10.7787 54.5073C10.736 55.59 11.1414 56.658 11.8907 57.438C12.64 58.218 13.6934 58.6673 14.776 58.6673H49.3334C51.5387 58.6673 53.3334 56.8727 53.332 54.61L51.944 22.6673ZM24 16.0007C24 11.4407 27.44 8.00065 32 8.00065C36.56 8.00065 40 11.4407 40 16.0007V22.6673H24V16.0007ZM49.3334 56.0007H14.776C14.4147 56.0007 14.064 55.8513 13.8147 55.5913C13.564 55.3313 13.4294 54.974 13.444 54.614L14.6147 25.334H21.3334V30.6673H24V25.334H40V30.6673H42.6667V25.334H49.3894L50.6667 54.6673C50.6667 55.402 50.068 56.0007 49.3334 56.0007ZM39.6094 35.61L33.8854 41.334L39.6094 47.058L37.724 48.9433L32 43.2193L26.276 48.9433L24.3907 47.058L30.1147 41.334L24.3907 35.61L26.276 33.7247L32 39.4487L37.724 33.7247L39.6094 35.61Z" fill="#DDDDDD"/>
</svg>
