<svg width="24" height="24" viewBox="0 0 24 24" fill="none" xmlns="http://www.w3.org/2000/svg">
<g clip-path="url(#clip0_473_4694)">
<path d="M12 21.7736L6.69667 16.4703C5.64779 15.4214 4.93349 14.085 4.64411 12.6301C4.35473 11.1753 4.50326 9.66729 5.07092 8.29684C5.63858 6.9264 6.59987 5.75507 7.83324 4.93096C9.0666 4.10686 10.5166 3.66699 12 3.66699C13.4834 3.66699 14.9334 4.10686 16.1668 4.93096C17.4001 5.75507 18.3614 6.9264 18.9291 8.29684C19.4968 9.66729 19.6453 11.1753 19.3559 12.6301C19.0665 14.085 18.3522 15.4214 17.3033 16.4703L12 21.7736ZM16.125 15.2919C16.9408 14.4761 17.4963 13.4367 17.7213 12.3052C17.9463 11.1736 17.8308 10.0008 17.3892 8.93489C16.9477 7.86902 16.2 6.95802 15.2408 6.31707C14.2815 5.67612 13.1537 5.33401 12 5.33401C10.8463 5.33401 9.71851 5.67612 8.75924 6.31707C7.79997 6.95802 7.05229 7.86902 6.61076 8.93489C6.16923 10.0008 6.05368 11.1736 6.27871 12.3052C6.50374 13.4367 7.05926 14.4761 7.875 15.2919L12 19.4169L16.125 15.2919ZM12 12.8336C11.558 12.8336 11.1341 12.658 10.8215 12.3454C10.5089 12.0329 10.3333 11.609 10.3333 11.1669C10.3333 10.7249 10.5089 10.301 10.8215 9.98842C11.1341 9.67586 11.558 9.50026 12 9.50026C12.442 9.50026 12.866 9.67586 13.1785 9.98842C13.4911 10.301 13.6667 10.7249 13.6667 11.1669C13.6667 11.609 13.4911 12.0329 13.1785 12.3454C12.866 12.658 12.442 12.8336 12 12.8336Z" fill="#111111"/>
</g>
<defs>
<clipPath id="clip0_473_4694">
<rect width="20" height="20" fill="white" transform="translate(2 2)"/>
</clipPath>
</defs>
</svg>
