<svg width="42" height="22" viewBox="0 0 42 22" fill="none" xmlns="http://www.w3.org/2000/svg">
<path d="M42 11C42 10.4933 41.6162 10.0833 41.1429 10.0833L2.92634 10.0833L10.8917 1.56478C11.2266 1.2067 11.2266 0.626623 10.8917 0.268555C10.5569 -0.0895136 10.0145 -0.0895228 9.67969 0.268555L0.251846 10.3511C0.172485 10.4358 0.109653 10.5372 0.0661278 10.6498C0.0228081 10.7618 0 10.8807 0 11C0 11.1193 0.0227585 11.2382 0.0660782 11.3502C0.109653 11.4627 0.172493 11.5642 0.251854 11.6489L9.6797 21.7314C10.0145 22.0895 10.5569 22.0895 10.8917 21.7314C11.2266 21.3734 11.2266 20.7933 10.8917 20.4352L2.92634 11.9167L41.1429 11.9167C41.6162 11.9167 42 11.5067 42 11Z" fill="#999999"/>
</svg>
