<svg width="86" height="26" viewBox="0 0 86 26" fill="none" xmlns="http://www.w3.org/2000/svg">
<path d="M25.5514 10.8865C25.6714 11.6545 25.7314 12.3265 25.7314 12.9025C25.7314 16.4305 24.5794 19.4305 22.2754 21.9025C19.9714 24.3505 17.0914 25.5745 13.6354 25.5745C10.1314 25.5745 7.14338 24.3385 4.67138 21.8665C2.19938 19.3945 0.963379 16.4065 0.963379 12.9025C0.963379 9.39847 2.19938 6.41047 4.67138 3.93847C7.14338 1.46647 10.1314 0.230469 13.6354 0.230469C16.0594 0.230469 18.2194 0.854469 20.1154 2.10247C22.0114 3.35047 23.4994 5.03047 24.5794 7.14247L19.9354 8.43847C19.2874 7.33447 18.4114 6.45847 17.3074 5.81047C16.2274 5.16247 15.0034 4.83847 13.6354 4.83847C11.4034 4.83847 9.49538 5.63047 7.91138 7.21447C6.35138 8.77447 5.57138 10.6705 5.57138 12.9025C5.57138 15.1345 6.35138 17.0425 7.91138 18.6265C9.49538 20.1865 11.4034 20.9665 13.6354 20.9665C15.3634 20.9665 16.8634 20.4625 18.1354 19.4545C19.4074 18.4465 20.2834 17.1265 20.7634 15.4945H11.9074V10.8865H25.5514Z" fill="white"/>
<path d="M35.3057 25.5745C33.2177 25.5745 31.5737 24.8905 30.3737 23.5225C29.1977 22.1545 28.6097 20.1505 28.6097 17.5105V7.14247H33.2177V16.9345C33.2177 18.3265 33.4937 19.3465 34.0457 19.9945C34.6217 20.6425 35.4977 20.9665 36.6737 20.9665C37.8257 20.9665 38.7857 20.5825 39.5537 19.8145C40.3217 19.0465 40.7057 17.8945 40.7057 16.3585V7.14247H45.3137V24.9985H40.7057V23.2705C39.4097 24.8065 37.6097 25.5745 35.3057 25.5745Z" fill="white"/>
<path d="M63.1894 24.9985H48.2134L55.9894 11.7505H48.7894V7.14247H63.7654L55.9894 20.3905H63.1894V24.9985Z" fill="white"/>
<path d="M80.4728 7.14247H85.0808V24.9985H80.4728V23.0905C79.0328 24.7465 77.2088 25.5745 75.0008 25.5745C72.5288 25.5745 70.4168 24.6505 68.6648 22.8025C66.9368 20.9305 66.0728 18.6865 66.0728 16.0705C66.0728 13.4545 66.9368 11.2225 68.6648 9.37447C70.4168 7.50247 72.5288 6.56647 75.0008 6.56647C77.2088 6.56647 79.0328 7.39447 80.4728 9.05047V7.14247ZM72.1208 19.5265C73.0807 20.4865 74.2327 20.9665 75.5768 20.9665C76.9208 20.9665 78.0728 20.4865 79.0328 19.5265C79.9928 18.5665 80.4728 17.4145 80.4728 16.0705C80.4728 14.7265 79.9928 13.5745 79.0328 12.6145C78.0728 11.6545 76.9208 11.1745 75.5768 11.1745C74.2327 11.1745 73.0807 11.6545 72.1208 12.6145C71.1608 13.5745 70.6808 14.7265 70.6808 16.0705C70.6808 17.4145 71.1608 18.5665 72.1208 19.5265Z" fill="white"/>
</svg>
