<svg width="64" height="64" viewBox="0 0 64 64" fill="none" xmlns="http://www.w3.org/2000/svg">
<g clip-path="url(#clip0_2428_18445)">
<path d="M56.4446 26.6719C54.104 26.6719 52.2001 24.7568 52.2001 22.4032V4.26931C52.2001 3.80994 51.9079 3.40264 51.4749 3.25733L41.9208 0.055248C41.3687 -0.130171 40.7725 0.166181 40.5824 0.718789L39.2602 4.56397C34.751 5.57635 29.3432 5.57635 24.8341 4.56397L23.5118 0.718789C23.3223 0.166704 22.7287 -0.128091 22.1735 0.055248L12.6193 3.25733C12.1863 3.40264 11.8942 3.80994 11.8942 4.26931V22.4032C11.8942 24.7568 9.99024 26.6719 7.64963 26.6719C7.06382 26.6719 6.58887 27.1495 6.58887 27.7386V56.5302C6.58887 56.9203 6.80071 57.2797 7.14152 57.4667L18.8115 63.8704C19.1165 64.037 19.4832 64.0443 19.794 63.8881L32.0471 57.7266L44.3003 63.8881C44.45 63.9631 44.6121 64.0006 44.7747 64.0006C44.9498 64.0006 45.1249 63.9568 45.2828 63.8704L56.9528 57.4667C57.2936 57.2797 57.5054 56.9203 57.5054 56.5302V27.7386C57.5054 27.1495 57.0305 26.6719 56.4446 26.6719ZM32.0471 7.46462C34.2289 7.46462 36.4082 7.27849 38.4527 6.91208L32.0471 25.5391L25.6416 6.91208C27.6861 7.27849 29.8653 7.46462 32.0471 7.46462ZM19.3408 61.7308L8.71038 55.8969V28.7162C11.7176 28.2073 14.0157 25.5698 14.0157 22.4032V5.03806L21.8492 2.41254L30.9864 28.9829V34.1172H28.8643C28.2785 34.1172 27.8036 34.5948 27.8036 35.1839C27.8036 35.773 28.2785 36.2506 28.8643 36.2506H30.9864V41.5886H28.8643C28.2785 41.5886 27.8036 42.0662 27.8036 42.6553C27.8036 43.2443 28.2785 43.7219 28.8643 43.7219H30.9864V49.0594H28.8643C28.2785 49.0594 27.8036 49.537 27.8036 50.1261C27.8036 50.7152 28.2785 51.1928 28.8643 51.1928H30.9864V55.8746L19.3408 61.7308ZM55.3839 55.8969L44.7535 61.7308L33.1079 55.8746V51.1928H35.2299C35.8157 51.1928 36.2907 50.7152 36.2907 50.1261C36.2907 49.537 35.8157 49.0594 35.2299 49.0594H33.1079V43.7219H35.2299C35.8157 43.7219 36.2907 43.2443 36.2907 42.6553C36.2907 42.0662 35.8157 41.5886 35.2299 41.5886H33.1079V36.2506H35.2299C35.8157 36.2506 36.2907 35.773 36.2907 35.1839C36.2907 34.5948 35.8157 34.1172 35.2299 34.1172H33.1079V28.9829L42.245 2.41254L50.0785 5.03806V22.4032C50.0785 25.5698 52.3767 28.2073 55.3839 28.7162V55.8969Z" fill="#111111"/>
<rect x="27.0752" y="34.1328" width="9.94464" height="2.66666" rx="1.33333" fill="#2355D6"/>
<rect x="27.0752" y="41.6016" width="9.94464" height="2.66667" rx="1.33333" fill="#2355D6"/>
<rect x="27.0752" y="49.0664" width="9.94464" height="2.66667" rx="1.33333" fill="#2355D6"/>
</g>
<defs>
<clipPath id="clip0_2428_18445">
<rect width="63.6457" height="64" fill="white" transform="translate(0.224609)"/>
</clipPath>
</defs>
</svg>
