<svg width="49" height="56" viewBox="0 0 49 56" fill="none" xmlns="http://www.w3.org/2000/svg">
<g clip-path="url(#clip0_2456_17063)">
<path d="M3.79944 53.795C4.87175 53.795 5.35969 54.1437 5.97723 54.5848C6.67635 55.0839 7.46877 55.65 8.99389 55.65C10.5186 55.65 11.311 55.0839 12.0102 54.5848C12.3897 54.3138 12.7213 54.0785 13.1686 53.9367C13.1706 53.9359 13.1726 53.9366 13.1746 53.9359C13.1765 53.9351 13.1777 53.9334 13.1796 53.9326C13.4575 53.8459 13.7803 53.795 14.1879 53.795C15.2602 53.795 15.7486 54.1437 16.3661 54.5848C17.0652 55.0844 17.8576 55.65 19.3824 55.65C20.9075 55.65 21.6999 55.0844 22.399 54.5848C23.0173 54.1437 23.5057 53.795 24.5784 53.795C25.6499 53.795 26.1378 54.1437 26.7554 54.5848C27.4545 55.0839 28.2465 55.65 29.7712 55.65C31.2968 55.65 32.0896 55.0844 32.7887 54.5848C33.407 54.1437 33.8953 53.795 34.9684 53.795C36.0427 53.795 36.5314 54.1437 37.1501 54.5853C37.85 55.0844 38.6432 55.65 40.1695 55.65C41.6958 55.65 42.489 55.0844 43.1889 54.5853C43.8076 54.1437 44.2963 53.795 45.3706 53.795C45.8121 53.795 46.17 53.3797 46.17 52.8675C46.17 52.3553 45.8121 51.94 45.3706 51.94C43.8443 51.94 43.0511 52.5057 42.3512 53.0047C41.7325 53.4463 41.2438 53.795 40.1695 53.795C39.0952 53.795 38.6065 53.4463 37.9878 53.0047C37.7551 52.8388 37.509 52.667 37.2321 52.5096L44.5325 26.2549C44.6004 26.0103 44.5782 25.7445 44.4704 25.5198C44.3631 25.2952 44.1804 25.1326 43.9657 25.0701L39.7745 23.8545V13.9125C39.7745 13.4003 39.4165 12.985 38.975 12.985H34.9778V6.4925C34.9778 5.98029 34.6198 5.565 34.1783 5.565H31.78V0.9275C31.78 0.415288 31.4221 0 30.9806 0H18.1895C17.748 0 17.39 0.415288 17.39 0.9275V5.565H14.9917C14.5502 5.565 14.1922 5.98029 14.1922 6.4925V12.985H10.195C9.75351 12.985 9.39556 13.4003 9.39556 13.9125V23.8545L5.20433 25.0701C4.98963 25.1326 4.80695 25.2952 4.6996 25.5198C4.59185 25.7445 4.56961 26.0103 4.63753 26.2549L11.9364 52.5041C11.6556 52.6631 11.4069 52.8373 11.1717 53.0052C10.5541 53.4463 10.0662 53.795 8.99389 53.795C7.92158 53.795 7.43325 53.4463 6.81571 53.0052C6.11659 52.5057 5.32417 51.94 3.79944 51.94C3.35795 51.94 3 52.3553 3 52.8675C3 53.3797 3.35795 53.795 3.79944 53.795ZM18.9889 1.855H30.1811V5.565H18.9889V1.855ZM15.7911 7.42H33.3789V12.985H15.7911V7.42ZM10.9944 14.84H38.1756V23.3907L24.779 19.5051C24.6518 19.468 24.5183 19.468 24.391 19.5051L10.9944 23.3907V14.84ZM6.42184 26.6294L23.7856 21.5929V38.955C23.7856 39.4672 24.1435 39.8825 24.585 39.8825C25.0265 39.8825 25.3845 39.4672 25.3845 38.955V21.5929L42.7482 26.6294L35.6957 51.9932C35.471 51.9623 35.2343 51.94 34.9684 51.94C33.4429 51.94 32.6501 52.5057 31.951 53.0052C31.3327 53.4463 30.8443 53.795 29.7712 53.795C28.6993 53.795 28.2114 53.4463 27.5939 53.0052C26.8951 52.5061 26.1027 51.94 24.5784 51.94C23.0529 51.94 22.2605 52.5061 21.5613 53.0052C20.943 53.4463 20.4551 53.795 19.3824 53.795C18.3101 53.795 17.8221 53.4463 17.2046 53.0052C16.5055 52.5061 15.713 51.94 14.1879 51.94C13.9273 51.94 13.6948 51.9615 13.4738 51.9914L6.42184 26.6294Z" fill="#111111"/>
</g>
<defs>
<clipPath id="clip0_2456_17063">
<rect width="47.9667" height="55.65" fill="white" transform="translate(0.601562)"/>
</clipPath>
</defs>
</svg>
