<svg width="28" height="28" viewBox="0 0 28 28" fill="none" xmlns="http://www.w3.org/2000/svg">
<path d="M18.6484 15.75H15.7188V24.5H11.8125V15.75H8.64844V12.1172H11.8125V9.38281C11.8125 8.34115 12.0078 7.45573 12.3984 6.72656C12.7891 5.9974 13.3359 5.45052 14.0391 5.08594C14.7682 4.69531 15.6016 4.5 16.5391 4.5C16.9557 4.5 17.3984 4.52604 17.8672 4.57812C18.3359 4.60417 18.7005 4.64323 18.9609 4.69531L19.3516 4.73438V7.82031H17.7891C17.0599 7.82031 16.526 8.01562 16.1875 8.40625C15.875 8.77083 15.7188 9.22656 15.7188 9.77344V12.1172H19.1953L18.6484 15.75Z" fill="#111111"/>
</svg>
