<svg width="18" height="19" viewBox="0 0 18 19" fill="none" xmlns="http://www.w3.org/2000/svg">
<path d="M9 5.00781C11.4609 5.00781 13.4922 7.03906 13.4922 9.5C13.4922 12 11.4609 13.9922 9 13.9922C6.5 13.9922 4.50781 12 4.50781 9.5C4.50781 7.03906 6.5 5.00781 9 5.00781ZM9 12.4297C10.6016 12.4297 11.8906 11.1406 11.8906 9.5C11.8906 7.89844 10.6016 6.60938 9 6.60938C7.35938 6.60938 6.07031 7.89844 6.07031 9.5C6.07031 11.1406 7.39844 12.4297 9 12.4297ZM14.7031 4.85156C14.7031 5.4375 14.2344 5.90625 13.6484 5.90625C13.0625 5.90625 12.5938 5.4375 12.5938 4.85156C12.5938 4.26562 13.0625 3.79688 13.6484 3.79688C14.2344 3.79688 14.7031 4.26562 14.7031 4.85156ZM17.6719 5.90625C17.75 7.35156 17.75 11.6875 17.6719 13.1328C17.5938 14.5391 17.2812 15.75 16.2656 16.8047C15.25 17.8203 14 18.1328 12.5938 18.2109C11.1484 18.2891 6.8125 18.2891 5.36719 18.2109C3.96094 18.1328 2.75 17.8203 1.69531 16.8047C0.679688 15.75 0.367188 14.5391 0.289062 13.1328C0.210938 11.6875 0.210938 7.35156 0.289062 5.90625C0.367188 4.5 0.679688 3.25 1.69531 2.23438C2.75 1.21875 3.96094 0.90625 5.36719 0.828125C6.8125 0.75 11.1484 0.75 12.5938 0.828125C14 0.90625 15.25 1.21875 16.2656 2.23438C17.2812 3.25 17.5938 4.5 17.6719 5.90625ZM15.7969 14.6562C16.2656 13.5234 16.1484 10.7891 16.1484 9.5C16.1484 8.25 16.2656 5.51562 15.7969 4.34375C15.4844 3.60156 14.8984 2.97656 14.1562 2.70312C12.9844 2.23438 10.25 2.35156 9 2.35156C7.71094 2.35156 4.97656 2.23438 3.84375 2.70312C3.0625 3.01562 2.47656 3.60156 2.16406 4.34375C1.69531 5.51562 1.8125 8.25 1.8125 9.5C1.8125 10.7891 1.69531 13.5234 2.16406 14.6562C2.47656 15.4375 3.0625 16.0234 3.84375 16.3359C4.97656 16.8047 7.71094 16.6875 9 16.6875C10.25 16.6875 12.9844 16.8047 14.1562 16.3359C14.8984 16.0234 15.5234 15.4375 15.7969 14.6562Z" fill="#111111"/>
</svg>
